SplineFontDB: 3.2
FontName: DevanagariPixel
FullName: Devanagari Pixel Regular
FamilyName: Devanagari Pixel
Weight: Book
Copyright: Shankar Sivarajan
Version: 1.0
ItalicAngle: 0
UnderlinePosition: 128
UnderlineWidth: 0
Ascent: 1024
Descent: 0
InvalidEm: 0
sfntRevision: 0x00010000
LayerCount: 2
Layer: 0 1 "Back" 1
Layer: 1 1 "Fore" 0
XUID: [1021 146 -1796264217 23096]
StyleMap: 0x0040
FSType: 4
OS2Version: 2
OS2_WeightWidthSlopeOnly: 0
OS2_UseTypoMetrics: 0
CreationTime: 1680230654
ModificationTime: 1768099464
PfmFamily: 81
TTFWeight: 400
TTFWidth: 5
LineGap: 128
VLineGap: 0
Panose: 0 0 6 0 0 0 0 0 0 0
OS2TypoAscent: 1152
OS2TypoAOffset: 0
OS2TypoDescent: -384
OS2TypoDOffset: 0
OS2TypoLinegap: 128
OS2WinAscent: 1152
OS2WinAOffset: 0
OS2WinDescent: 384
OS2WinDOffset: 0
HheadAscent: 1152
HheadAOffset: 0
HheadDescent: -384
HheadDOffset: 0
OS2SubXSize: 512
OS2SubYSize: 512
OS2SubXOff: 0
OS2SubYOff: -128
OS2SupXSize: 512
OS2SupYSize: 512
OS2SupXOff: 0
OS2SupYOff: 512
OS2StrikeYSize: 0
OS2StrikeYPos: 256
OS2Vendor: '    '
OS2CodePages: 00000001.00000000
OS2UnicodeRanges: 00008003.00000000.00000000.00000000
Lookup: 4 0 0 "nukt" { "nukt subtable"  } ['nukt' ('dev2' <'dflt' 'SAN ' > 'DFLT' <'dflt' > ) ]
Lookup: 4 0 0 "akhn" { "akhn subtable"  } ['akhn' ('dev2' <'dflt' 'SAN ' > 'DFLT' <'dflt' > ) ]
Lookup: 4 0 0 "rphf" { "rphf subtable"  } ['rphf' ('dev2' <'dflt' 'SAN ' > 'DFLT' <'dflt' > ) ]
Lookup: 4 0 0 "rkrf" { "rkrf subtable"  } ['rkrf' ('dev2' <'dflt' 'SAN ' > 'DFLT' <'dflt' > ) ]
Lookup: 4 0 0 "blwf" { "blwf subtable"  } ['blwf' ('dev2' <'dflt' 'SAN ' > 'DFLT' <'dflt' > ) ]
Lookup: 4 0 0 "half" { "half subtable"  } ['half' ('dev2' <'dflt' 'SAN ' > 'DFLT' <'dflt' > ) ]
Lookup: 4 0 0 "vatu" { "vatu subtable"  } ['vatu' ('dev2' <'dflt' 'SAN ' > 'DFLT' <'dflt' > ) ]
Lookup: 6 0 0 "rakar_full" { "rakar_full subtable"  } ['vatu' ('dev2' <'dflt' 'SAN ' > 'DFLT' <'dflt' > ) ]
Lookup: 1 0 0 "Single Substitution lookup 8" { "Single Substitution lookup 8 subtable"  } []

StartChar: .notdef
Encoding: 111 -1 0
Width: 640
GlyphClass: 1
Flags: W
LayerCount: 2
Fore
SplineSet
128 896 m 1,0,-1
 128 1024 l 1,1,-1
 384 1024 l 1,2,-1
 384 896 l 1,3,-1
 128 896 l 1,0,-1
128 128 m 1,4,-1
 128 256 l 1,5,-1
 384 256 l 1,6,-1
 384 128 l 1,7,-1
 128 128 l 1,4,-1
384 128 m 1,8,-1
 512 128 l 1,9,-1
 512 1024 l 1,10,-1
 384 1024 l 1,11,-1
 384 128 l 1,8,-1
0 128 m 1,12,-1
 0 1024 l 1,13,-1
 128 1024 l 1,14,-1
 128 128 l 1,15,-1
 0 128 l 1,12,-1
EndSplineSet
EndChar

StartChar: candrabindu
Encoding: 3 2305 3
Width: 0
GlyphClass: 1
Flags: W
AnchorPoint: "mark_up" -256 1024 mark 0
LayerCount: 2
Fore
SplineSet
-512 1408 m 5,0,-1
 -384 1408 l 5,1,-1
 -384 1280 l 5,2,-1
 -512 1280 l 5,3,-1
 -512 1408 l 5,0,-1
-128 1408 m 5,4,-1
 0 1408 l 5,5,-1
 0 1280 l 5,6,-1
 -128 1280 l 5,7,-1
 -128 1408 l 5,4,-1
-384 1280 m 5,8,-1
 -128 1280 l 5,9,-1
 -128 1152 l 5,10,-1
 -384 1152 l 5,11,-1
 -384 1280 l 5,8,-1
EndSplineSet
EndChar

StartChar: anusvara
Encoding: 4 2306 4
Width: 0
GlyphClass: 1
Flags: W
AnchorPoint: "mark_up" -128 1024 mark 0
LayerCount: 2
Fore
SplineSet
-128 1152 m 1029,0,-1
0 1152 m 1029,1,-1
-128 1152 m 5,2,-1
 -128 1280 l 5,3,-1
 0 1280 l 5,4,-1
 0 1152 l 5,5,-1
 -128 1152 l 5,2,-1
EndSplineSet
EndChar

StartChar: visarga
Encoding: 5 2307 5
Width: 256
GlyphClass: 1
Flags: W
LayerCount: 2
Fore
SplineSet
0 256 m 5,0,-1
 0 384 l 5,1,-1
 128 384 l 5,2,-1
 128 256 l 5,3,-1
 0 256 l 5,0,-1
0 640 m 1,4,-1
 0 768 l 1,5,-1
 128 768 l 1,6,-1
 128 640 l 1,7,-1
 0 640 l 1,4,-1
EndSplineSet
EndChar

StartChar: dv_vowel_a_short
Encoding: 6 2308 6
Width: 896
GlyphClass: 1
Flags: W
LayerCount: 2
Fore
SplineSet
640 512 m 1,0,-1
 640 1152 l 1,1,-1
 768 1152 l 1,2,-1
 768 1024 l 1,3,-1
 896 1024 l 1,4,-1
 896 896 l 1,5,-1
 768 896 l 1,6,-1
 768 128 l 1,7,-1
 640 128 l 1,8,-1
 640 256 l 1,9,-1
 640 384 l 1,10,-1
 512 384 l 1,11,-1
 512 256 l 1,12,-1
 384 256 l 1,13,-1
 384 512 l 1,14,-1
 640 512 l 1,0,-1
256 896 m 1,15,-1
 128 896 l 1,16,-1
 128 1024 l 1,17,-1
 256 1024 l 1,18,-1
 384 1024 l 1,19,-1
 384 896 l 1,20,-1
 256 896 l 1,15,-1
256 256 m 1,21,-1
 384 256 l 1,22,-1
 384 128 l 1,23,-1
 256 128 l 1,24,-1
 128 128 l 1,25,-1
 128 256 l 1,26,-1
 256 256 l 1,21,-1
384 640 m 1,27,-1
 384 896 l 1,28,-1
 512 896 l 1,29,-1
 512 640 l 1,30,-1
 384 640 l 1,27,-1
640 1280 m 1,31,-1
 512 1280 l 1,32,-1
 512 1408 l 1,33,-1
 640 1408 l 1,34,-1
 768 1408 l 1,35,-1
 768 1280 l 1,36,-1
 640 1280 l 1,31,-1
0 768 m 1,37,-1
 0 896 l 1,38,-1
 128 896 l 1,39,-1
 128 768 l 1,40,-1
 0 768 l 1,37,-1
128 256 m 1,41,-1
 0 256 l 1,42,-1
 0 384 l 1,43,-1
 128 384 l 1,44,-1
 128 256 l 1,41,-1
256 640 m 1,45,-1
 384 640 l 1,46,-1
 384 512 l 1,47,-1
 256 512 l 1,48,-1
 256 640 l 1,45,-1
512 1408 m 1,49,-1
 384 1408 l 1,50,-1
 384 1536 l 1,51,-1
 512 1536 l 1,52,-1
 512 1408 l 1,49,-1
896 1280 m 1,53,-1
 896 1152 l 1,54,-1
 768 1152 l 1,55,-1
 768 1280 l 1,56,-1
 896 1280 l 1,53,-1
EndSplineSet
EndChar

StartChar: dv_vowel_a
Encoding: 7 2309 7
Width: 896
GlyphClass: 1
Flags: W
LayerCount: 2
Fore
SplineSet
640 512 m 1,0,-1
 640 1024 l 1,1,-1
 896 1024 l 1,2,-1
 896 896 l 1,3,-1
 768 896 l 1,4,-1
 768 128 l 1,5,-1
 640 128 l 1,6,-1
 640 384 l 1,7,-1
 512 384 l 1,8,-1
 512 256 l 1,9,-1
 384 256 l 1,10,-1
 384 384 l 1,11,-1
 384 512 l 1,12,-1
 640 512 l 1,0,-1
256 896 m 1,13,-1
 128 896 l 1,14,-1
 128 1024 l 1,15,-1
 256 1024 l 1,16,-1
 384 1024 l 1,17,-1
 384 896 l 1,18,-1
 256 896 l 1,13,-1
256 256 m 1,19,-1
 384 256 l 1,20,-1
 384 128 l 1,21,-1
 256 128 l 1,22,-1
 128 128 l 1,23,-1
 128 256 l 1,24,-1
 256 256 l 1,19,-1
384 640 m 1,25,-1
 384 896 l 1,26,-1
 512 896 l 1,27,-1
 512 640 l 1,28,-1
 384 640 l 1,25,-1
0 768 m 1,29,-1
 0 896 l 1,30,-1
 128 896 l 1,31,-1
 128 768 l 1,32,-1
 0 768 l 1,29,-1
128 256 m 1,33,-1
 0 256 l 1,34,-1
 0 384 l 1,35,-1
 128 384 l 1,36,-1
 128 256 l 1,33,-1
256 640 m 1,37,-1
 384 640 l 1,38,-1
 384 512 l 1,39,-1
 256 512 l 1,40,-1
 256 640 l 1,37,-1
EndSplineSet
EndChar

StartChar: dv_vowel_aa
Encoding: 8 2310 8
Width: 1152
GlyphClass: 1
Flags: W
LayerCount: 2
Fore
SplineSet
384 512 m 1,0,-1
 640 512 l 1,1,-1
 640 1024 l 1,2,-1
 1152 1024 l 1,3,-1
 1152 896 l 1,4,-1
 1024 896 l 1,5,-1
 1024 128 l 1,6,-1
 896 128 l 1,7,-1
 896 640 l 1,8,-1
 896 896 l 1,9,-1
 768 896 l 1,10,-1
 768 640 l 1,11,-1
 768 128 l 1,12,-1
 640 128 l 1,13,-1
 640 384 l 1,14,-1
 512 384 l 1,15,-1
 512 256 l 1,16,-1
 384 256 l 1,17,-1
 384 512 l 1,0,-1
256 896 m 1,18,-1
 128 896 l 1,19,-1
 128 1024 l 1,20,-1
 256 1024 l 1,21,-1
 384 1024 l 1,22,-1
 384 896 l 1,23,-1
 256 896 l 1,18,-1
256 256 m 1,24,-1
 384 256 l 1,25,-1
 384 128 l 1,26,-1
 256 128 l 1,27,-1
 128 128 l 1,28,-1
 128 256 l 1,29,-1
 256 256 l 1,24,-1
384 640 m 1,30,-1
 384 896 l 1,31,-1
 512 896 l 1,32,-1
 512 640 l 1,33,-1
 384 640 l 1,30,-1
0 768 m 1,34,-1
 0 896 l 1,35,-1
 128 896 l 1,36,-1
 128 768 l 1,37,-1
 0 768 l 1,34,-1
128 256 m 1,38,-1
 0 256 l 1,39,-1
 0 384 l 1,40,-1
 128 384 l 1,41,-1
 128 256 l 1,38,-1
256 640 m 1,42,-1
 384 640 l 1,43,-1
 384 512 l 1,44,-1
 256 512 l 1,45,-1
 256 640 l 1,42,-1
EndSplineSet
EndChar

StartChar: dv_vowel_i
Encoding: 9 2311 9
Width: 640
GlyphClass: 1
Flags: W
LayerCount: 2
Fore
SplineSet
384 768 m 1,0,-1
 384 640 l 1,1,-1
 128 640 l 1,2,-1
 128 768 l 1,3,-1
 256 768 l 1,4,-1
 256 896 l 1,5,-1
 -128 896 l 5,6,-1
 -128 1024 l 1,7,-1
 256 1024 l 1,8,-1
 640 1024 l 1,9,-1
 640 896 l 1,10,-1
 384 896 l 1,11,-1
 384 768 l 1,0,-1
384 256 m 1,12,-1
 384 128 l 1,13,-1
 256 128 l 1,14,-1
 256 0 l 1,15,-1
 128 0 l 1,16,-1
 128 128 l 1,17,-1
 0 128 l 1,18,-1
 0 256 l 1,19,-1
 128 256 l 1,20,-1
 384 256 l 1,12,-1
256 512 m 1,21,-1
 384 512 l 1,22,-1
 384 384 l 1,23,-1
 256 384 l 1,24,-1
 128 384 l 1,25,-1
 128 512 l 1,26,-1
 256 512 l 1,21,-1
128 640 m 1,27,-1
 128 512 l 1,28,-1
 0 512 l 1,29,-1
 0 640 l 1,30,-1
 128 640 l 1,27,-1
512 384 m 1,31,-1
 512 256 l 1,32,-1
 384 256 l 1,33,-1
 384 384 l 1,34,-1
 512 384 l 1,31,-1
EndSplineSet
EndChar

StartChar: dv_vowel_ii
Encoding: 10 2312 10
Width: 640
GlyphClass: 1
Flags: W
LayerCount: 2
Fore
SplineSet
256 1024 m 1,0,-1
 256 1280 l 1,1,-1
 384 1280 l 1,2,-1
 384 1024 l 1,3,-1
 640 1024 l 1,4,-1
 640 896 l 1,5,-1
 512 896 l 1,6,-1
 384 896 l 1,7,-1
 384 768 l 1,8,-1
 384 640 l 1,9,-1
 128 640 l 1,10,-1
 128 768 l 1,11,-1
 256 768 l 1,12,-1
 256 896 l 1,13,-1
 128 896 l 1,14,-1
 -128 896 l 1,15,-1
 -128 1024 l 1,16,-1
 128 1024 l 1,17,-1
 256 1024 l 1,0,-1
384 256 m 1,18,-1
 384 128 l 1,19,-1
 256 128 l 1,20,-1
 256 0 l 1,21,-1
 128 0 l 1,22,-1
 128 128 l 1,23,-1
 0 128 l 1,24,-1
 0 256 l 1,25,-1
 128 256 l 1,26,-1
 384 256 l 1,18,-1
256 512 m 1,27,-1
 384 512 l 1,28,-1
 384 384 l 1,29,-1
 256 384 l 1,30,-1
 128 384 l 1,31,-1
 128 512 l 1,32,-1
 256 512 l 1,27,-1
128 640 m 1,33,-1
 128 512 l 1,34,-1
 0 512 l 1,35,-1
 0 640 l 1,36,-1
 128 640 l 1,33,-1
512 1408 m 1,37,-1
 512 1280 l 1,38,-1
 384 1280 l 1,39,-1
 384 1408 l 1,40,-1
 512 1408 l 1,37,-1
512 384 m 1,41,-1
 512 256 l 1,42,-1
 384 256 l 1,43,-1
 384 384 l 1,44,-1
 512 384 l 1,41,-1
512 1280 m 1,45,-1
 640 1280 l 1,46,-1
 640 1152 l 1,47,-1
 512 1152 l 1,48,-1
 512 1280 l 1,45,-1
EndSplineSet
EndChar

StartChar: dv_vowel_u
Encoding: 11 2313 11
Width: 640
GlyphClass: 1
Flags: W
LayerCount: 2
Fore
SplineSet
-128 1024 m 1,0,-1
 640 1024 l 1,1,-1
 640 896 l 1,2,-1
 512 896 l 1,3,-1
 512 640 l 1,4,-1
 384 640 l 1,5,-1
 384 896 l 1,6,-1
 -128 896 l 5,7,-1
 -128 1024 l 1,0,-1
256 256 m 1,8,-1
 384 256 l 1,9,-1
 384 128 l 1,10,-1
 256 128 l 1,11,-1
 128 128 l 1,12,-1
 128 256 l 1,13,-1
 256 256 l 1,8,-1
384 384 m 1,14,-1
 384 512 l 1,15,-1
 512 512 l 1,16,-1
 512 384 l 1,17,-1
 512 256 l 1,18,-1
 384 256 l 1,19,-1
 384 384 l 1,14,-1
128 256 m 1,20,-1
 0 256 l 1,21,-1
 0 384 l 1,22,-1
 128 384 l 1,23,-1
 128 256 l 1,20,-1
256 640 m 1,24,-1
 384 640 l 1,25,-1
 384 512 l 1,26,-1
 256 512 l 1,27,-1
 256 640 l 1,24,-1
EndSplineSet
EndChar

StartChar: dv_vowel_uu
Encoding: 12 2314 12
Width: 1024
GlyphClass: 1
Flags: W
LayerCount: 2
Fore
SplineSet
-128 1024 m 1,0,-1
 1024 1024 l 1,1,-1
 1024 896 l 1,2,-1
 640 896 l 1,3,-1
 512 896 l 1,4,-1
 512 640 l 1,5,-1
 384 640 l 1,6,-1
 384 896 l 1,7,-1
 -128 896 l 1,8,-1
 -128 1024 l 1,0,-1
640 512 m 1,9,-1
 640 384 l 1,10,-1
 512 384 l 1,11,-1
 512 256 l 1,12,-1
 384 256 l 1,13,-1
 384 512 l 1,14,-1
 640 512 l 1,9,-1
256 256 m 1,15,-1
 384 256 l 1,16,-1
 384 128 l 1,17,-1
 256 128 l 1,18,-1
 128 128 l 1,19,-1
 128 256 l 1,20,-1
 256 256 l 1,15,-1
768 512 m 1,21,-1
 896 512 l 1,22,-1
 896 384 l 1,23,-1
 896 256 l 1,24,-1
 768 256 l 1,25,-1
 768 384 l 1,26,-1
 768 512 l 1,21,-1
128 256 m 1,27,-1
 0 256 l 1,28,-1
 0 384 l 1,29,-1
 128 384 l 1,30,-1
 128 256 l 1,27,-1
256 640 m 1,31,-1
 384 640 l 1,32,-1
 384 512 l 1,33,-1
 256 512 l 1,34,-1
 256 640 l 1,31,-1
640 512 m 1,35,-1
 640 640 l 1,36,-1
 768 640 l 1,37,-1
 768 512 l 1,38,-1
 640 512 l 1,35,-1
640 128 m 1,39,-1
 640 256 l 1,40,-1
 768 256 l 1,41,-1
 768 128 l 1,42,-1
 640 128 l 1,39,-1
EndSplineSet
EndChar

StartChar: dv_vowel_r
Encoding: 13 2315 13
Width: 1024
GlyphClass: 1
Flags: W
AnchorPoint: "mark_up" 384 1024 basechar 0
LayerCount: 2
Fore
SplineSet
384 512 m 1,0,-1
 256 512 l 1,1,-1
 256 640 l 1,2,-1
 384 640 l 1,3,-1
 384 896 l 1,4,-1
 128 896 l 1,5,-1
 -128 896 l 5,6,-1
 -128 1024 l 1,7,-1
 128 1024 l 1,8,-1
 512 1024 l 1,9,-1
 1024 1024 l 1,10,-1
 1024 896 l 1,11,-1
 512 896 l 1,12,-1
 512 640 l 1,13,-1
 640 640 l 1,14,-1
 640 512 l 1,15,-1
 512 512 l 1,16,-1
 512 128 l 1,17,-1
 384 128 l 1,18,-1
 384 512 l 1,0,-1
0 768 m 1,19,-1
 256 768 l 1,20,-1
 256 640 l 1,21,-1
 0 640 l 1,22,-1
 0 768 l 1,19,-1
768 512 m 1,23,-1
 768 640 l 1,24,-1
 896 640 l 1,25,-1
 896 512 l 1,26,-1
 896 384 l 1,27,-1
 768 384 l 1,28,-1
 768 512 l 1,23,-1
128 256 m 1,29,-1
 0 256 l 1,30,-1
 0 384 l 1,31,-1
 128 384 l 1,32,-1
 128 256 l 1,29,-1
256 512 m 1,33,-1
 256 384 l 1,34,-1
 128 384 l 1,35,-1
 128 512 l 1,36,-1
 256 512 l 1,33,-1
768 640 m 1,37,-1
 640 640 l 1,38,-1
 640 768 l 1,39,-1
 768 768 l 1,40,-1
 768 640 l 1,37,-1
640 384 m 1,41,-1
 768 384 l 1,42,-1
 768 256 l 1,43,-1
 640 256 l 1,44,-1
 640 384 l 1,41,-1
896 256 m 1,45,-1
 896 128 l 1,46,-1
 768 128 l 1,47,-1
 768 256 l 1,48,-1
 896 256 l 1,45,-1
EndSplineSet
EndChar

StartChar: dv_vowel_l
Encoding: 14 2316 14
Width: 1024
GlyphClass: 1
Flags: W
AnchorPoint: "mark_up" 640 1024 basechar 0
LayerCount: 2
Fore
SplineSet
512 640 m 1,0,-1
 512 768 l 1,1,-1
 640 768 l 1,2,-1
 640 896 l 1,3,-1
 -128 896 l 5,4,-1
 -128 1024 l 1,5,-1
 1024 1024 l 1,6,-1
 1024 896 l 1,7,-1
 768 896 l 1,8,-1
 768 640 l 1,9,-1
 512 640 l 1,0,-1
0 384 m 1,10,-1
 0 640 l 1,11,-1
 128 640 l 1,12,-1
 128 384 l 1,13,-1
 0 384 l 1,10,-1
384 768 m 1,14,-1
 384 640 l 1,15,-1
 256 640 l 1,16,-1
 128 640 l 1,17,-1
 128 768 l 1,18,-1
 256 768 l 1,19,-1
 384 768 l 1,14,-1
128 256 m 1,20,-1
 128 384 l 1,21,-1
 256 384 l 1,22,-1
 256 256 l 1,23,-1
 128 256 l 1,20,-1
384 512 m 1,24,-1
 384 640 l 1,25,-1
 512 640 l 1,26,-1
 512 512 l 1,27,-1
 384 512 l 1,24,-1
768 384 m 1,28,-1
 640 384 l 1,29,-1
 640 512 l 1,30,-1
 768 512 l 1,31,-1
 768 384 l 1,28,-1
768 512 m 1,32,-1
 768 640 l 1,33,-1
 896 640 l 1,34,-1
 896 512 l 1,35,-1
 768 512 l 1,32,-1
896 256 m 1,36,-1
 768 256 l 1,37,-1
 768 384 l 1,38,-1
 896 384 l 1,39,-1
 896 256 l 1,36,-1
EndSplineSet
EndChar

StartChar: dv_vowel_e_candra
Encoding: 15 2317 15
Width: 768
GlyphClass: 1
Flags: W
LayerCount: 2
Fore
SplineSet
-128 896 m 1025,0,-1
0 896 m 1025,1,-1
-128 896 m 1,2,-1
 -128 1024 l 1,3,-1
 0 1024 l 1,4,-1
 0 896 l 1,5,-1
 -128 896 l 1,2,-1
0 1024 m 1,6,-1
 768 1024 l 1,7,-1
 768 896 l 1,8,-1
 512 896 l 1,9,-1
 512 768 l 1,10,-1
 384 768 l 1,11,-1
 384 896 l 1,12,-1
 128 896 l 1,13,-1
 128 512 l 1,14,-1
 0 512 l 1,15,-1
 0 1024 l 1,6,-1
512 512 m 1,16,-1
 512 384 l 1,17,-1
 128 384 l 1,18,-1
 128 512 l 1,19,-1
 512 512 l 1,16,-1
256 1408 m 1,20,-1
 256 1280 l 1,21,-1
 128 1280 l 1,22,-1
 128 1408 l 1,23,-1
 256 1408 l 1,20,-1
384 768 m 1,24,-1
 384 640 l 1,25,-1
 256 640 l 1,26,-1
 256 768 l 1,27,-1
 384 768 l 1,24,-1
256 1280 m 1,28,-1
 512 1280 l 1,29,-1
 512 1152 l 1,30,-1
 256 1152 l 1,31,-1
 256 1280 l 1,28,-1
384 128 m 1,32,-1
 384 256 l 1,33,-1
 512 256 l 1,34,-1
 512 128 l 1,35,-1
 384 128 l 1,32,-1
640 1280 m 1,36,-1
 512 1280 l 1,37,-1
 512 1408 l 1,38,-1
 640 1408 l 1,39,-1
 640 1280 l 1,36,-1
640 256 m 1,40,-1
 512 256 l 1,41,-1
 512 384 l 1,42,-1
 640 384 l 1,43,-1
 640 256 l 1,40,-1
EndSplineSet
EndChar

StartChar: dv_vowel_e_short
Encoding: 16 2318 16
Width: 768
GlyphClass: 1
Flags: W
LayerCount: 2
Fore
SplineSet
-128 896 m 1029,0,-1
0 896 m 1029,1,-1
-128 896 m 5,2,-1
 -128 1024 l 5,3,-1
 0 1024 l 5,4,-1
 0 896 l 5,5,-1
 -128 896 l 5,2,-1
0 1024 m 1,6,-1
 384 1024 l 1,7,-1
 384 1152 l 1,8,-1
 512 1152 l 1,9,-1
 512 1024 l 1,10,-1
 768 1024 l 1,11,-1
 768 896 l 1,12,-1
 512 896 l 1,13,-1
 512 768 l 1,14,-1
 384 768 l 1,15,-1
 384 896 l 1,16,-1
 256 896 l 1,17,-1
 128 896 l 1,18,-1
 128 512 l 1,19,-1
 0 512 l 1,20,-1
 0 1024 l 1,6,-1
512 512 m 1,21,-1
 512 384 l 1,22,-1
 128 384 l 1,23,-1
 128 512 l 1,24,-1
 512 512 l 1,21,-1
512 1408 m 1,25,-1
 512 1280 l 1,26,-1
 384 1280 l 1,27,-1
 256 1280 l 1,28,-1
 256 1408 l 1,29,-1
 384 1408 l 1,30,-1
 512 1408 l 1,25,-1
256 1536 m 1,31,-1
 256 1408 l 1,32,-1
 128 1408 l 1,33,-1
 128 1536 l 1,34,-1
 256 1536 l 1,31,-1
384 768 m 1,35,-1
 384 640 l 1,36,-1
 256 640 l 1,37,-1
 256 768 l 1,38,-1
 384 768 l 1,35,-1
384 128 m 1,39,-1
 384 256 l 1,40,-1
 512 256 l 1,41,-1
 512 128 l 1,42,-1
 384 128 l 1,39,-1
512 1280 m 1,43,-1
 640 1280 l 1,44,-1
 640 1152 l 1,45,-1
 512 1152 l 1,46,-1
 512 1280 l 1,43,-1
640 256 m 1,47,-1
 512 256 l 1,48,-1
 512 384 l 1,49,-1
 640 384 l 1,50,-1
 640 256 l 1,47,-1
EndSplineSet
EndChar

StartChar: dv_vowel_e
Encoding: 17 2319 17
Width: 768
GlyphClass: 1
Flags: W
LayerCount: 2
Fore
SplineSet
-128 896 m 1029,0,-1
0 896 m 1029,1,-1
-128 896 m 5,2,-1
 -128 1024 l 5,3,-1
 0 1024 l 5,4,-1
 0 896 l 5,5,-1
 -128 896 l 5,2,-1
0 1024 m 1,6,-1
 768 1024 l 1,7,-1
 768 896 l 1,8,-1
 512 896 l 1,9,-1
 512 768 l 1,10,-1
 384 768 l 1,11,-1
 384 896 l 1,12,-1
 128 896 l 1,13,-1
 128 512 l 1,14,-1
 0 512 l 1,15,-1
 0 1024 l 1,6,-1
512 512 m 1,16,-1
 512 384 l 1,17,-1
 128 384 l 1,18,-1
 128 512 l 1,19,-1
 512 512 l 1,16,-1
384 768 m 1,20,-1
 384 640 l 1,21,-1
 256 640 l 1,22,-1
 256 768 l 1,23,-1
 384 768 l 1,20,-1
384 128 m 1,24,-1
 384 256 l 1,25,-1
 512 256 l 1,26,-1
 512 128 l 1,27,-1
 384 128 l 1,24,-1
640 256 m 1,28,-1
 512 256 l 1,29,-1
 512 384 l 1,30,-1
 640 384 l 1,31,-1
 640 256 l 1,28,-1
EndSplineSet
EndChar

StartChar: dv_vowel_ai
Encoding: 18 2320 18
Width: 768
GlyphClass: 1
Flags: W
LayerCount: 2
Fore
SplineSet
-128 896 m 1029,0,-1
0 896 m 1029,1,-1
-128 896 m 5,2,-1
 -128 1024 l 5,3,-1
 0 1024 l 5,4,-1
 0 896 l 5,5,-1
 -128 896 l 5,2,-1
0 1024 m 1,6,-1
 384 1024 l 1,7,-1
 384 1152 l 1,8,-1
 512 1152 l 1,9,-1
 512 1024 l 1,10,-1
 768 1024 l 1,11,-1
 768 896 l 1,12,-1
 512 896 l 1,13,-1
 512 768 l 1,14,-1
 384 768 l 1,15,-1
 384 896 l 1,16,-1
 256 896 l 1,17,-1
 128 896 l 1,18,-1
 128 512 l 1,19,-1
 0 512 l 1,20,-1
 0 1024 l 1,6,-1
512 512 m 1,21,-1
 512 384 l 1,22,-1
 128 384 l 1,23,-1
 128 512 l 1,24,-1
 512 512 l 1,21,-1
128 1408 m 1,25,-1
 256 1408 l 1,26,-1
 256 1280 l 1,27,-1
 128 1280 l 1,28,-1
 128 1408 l 1,25,-1
384 1152 m 1,29,-1
 256 1152 l 1,30,-1
 256 1280 l 1,31,-1
 384 1280 l 1,32,-1
 384 1152 l 1,29,-1
384 768 m 1,33,-1
 384 640 l 1,34,-1
 256 640 l 1,35,-1
 256 768 l 1,36,-1
 384 768 l 1,33,-1
384 128 m 1,37,-1
 384 256 l 1,38,-1
 512 256 l 1,39,-1
 512 128 l 1,40,-1
 384 128 l 1,37,-1
640 256 m 1,41,-1
 512 256 l 1,42,-1
 512 384 l 1,43,-1
 640 384 l 1,44,-1
 640 256 l 1,41,-1
EndSplineSet
EndChar

StartChar: dv_vowel_o_candra
Encoding: 19 2321 19
Width: 1152
GlyphClass: 1
Flags: W
LayerCount: 2
Fore
SplineSet
384 512 m 1,0,-1
 640 512 l 1,1,-1
 640 1024 l 1,2,-1
 1152 1024 l 1,3,-1
 1152 896 l 1,4,-1
 1024 896 l 1,5,-1
 1024 128 l 1,6,-1
 896 128 l 1,7,-1
 896 640 l 1,8,-1
 896 896 l 1,9,-1
 768 896 l 1,10,-1
 768 640 l 1,11,-1
 768 128 l 1,12,-1
 640 128 l 1,13,-1
 640 384 l 1,14,-1
 512 384 l 1,15,-1
 512 256 l 1,16,-1
 384 256 l 1,17,-1
 384 512 l 1,0,-1
256 896 m 1,18,-1
 128 896 l 1,19,-1
 128 1024 l 1,20,-1
 256 1024 l 1,21,-1
 384 1024 l 1,22,-1
 384 896 l 1,23,-1
 256 896 l 1,18,-1
256 256 m 1,24,-1
 384 256 l 1,25,-1
 384 128 l 1,26,-1
 256 128 l 1,27,-1
 128 128 l 1,28,-1
 128 256 l 1,29,-1
 256 256 l 1,24,-1
384 640 m 1,30,-1
 384 896 l 1,31,-1
 512 896 l 1,32,-1
 512 640 l 1,33,-1
 384 640 l 1,30,-1
0 768 m 1,34,-1
 0 896 l 1,35,-1
 128 896 l 1,36,-1
 128 768 l 1,37,-1
 0 768 l 1,34,-1
128 256 m 1,38,-1
 0 256 l 1,39,-1
 0 384 l 1,40,-1
 128 384 l 1,41,-1
 128 256 l 1,38,-1
256 640 m 1,42,-1
 384 640 l 1,43,-1
 384 512 l 1,44,-1
 256 512 l 1,45,-1
 256 640 l 1,42,-1
768 1408 m 1,46,-1
 768 1280 l 1,47,-1
 640 1280 l 1,48,-1
 640 1408 l 1,49,-1
 768 1408 l 1,46,-1
768 1280 m 1,50,-1
 1024 1280 l 1,51,-1
 1024 1152 l 1,52,-1
 768 1152 l 1,53,-1
 768 1280 l 1,50,-1
1024 1408 m 1,54,-1
 1152 1408 l 1,55,-1
 1152 1280 l 1,56,-1
 1024 1280 l 1,57,-1
 1024 1408 l 1,54,-1
EndSplineSet
EndChar

StartChar: dv_vowel_o_short
Encoding: 20 2322 20
Width: 1152
GlyphClass: 1
Flags: W
LayerCount: 2
Fore
SplineSet
384 512 m 1,0,-1
 640 512 l 1,1,-1
 640 1024 l 1,2,-1
 896 1024 l 1,3,-1
 896 1152 l 1,4,-1
 1024 1152 l 1,5,-1
 1024 1024 l 1,6,-1
 1152 1024 l 1,7,-1
 1152 896 l 1,8,-1
 1024 896 l 1,9,-1
 1024 128 l 1,10,-1
 896 128 l 1,11,-1
 896 768 l 1,12,-1
 896 896 l 1,13,-1
 768 896 l 1,14,-1
 768 768 l 1,15,-1
 768 128 l 1,16,-1
 640 128 l 1,17,-1
 640 384 l 1,18,-1
 512 384 l 1,19,-1
 512 256 l 1,20,-1
 384 256 l 1,21,-1
 384 512 l 1,0,-1
256 896 m 1,22,-1
 128 896 l 1,23,-1
 128 1024 l 1,24,-1
 256 1024 l 1,25,-1
 384 1024 l 1,26,-1
 384 896 l 1,27,-1
 256 896 l 1,22,-1
256 256 m 1,28,-1
 384 256 l 1,29,-1
 384 128 l 1,30,-1
 256 128 l 1,31,-1
 128 128 l 1,32,-1
 128 256 l 1,33,-1
 256 256 l 1,28,-1
384 640 m 1,34,-1
 384 896 l 1,35,-1
 512 896 l 1,36,-1
 512 640 l 1,37,-1
 384 640 l 1,34,-1
768 1280 m 1,38,-1
 768 1408 l 1,39,-1
 896 1408 l 1,40,-1
 1024 1408 l 1,41,-1
 1024 1280 l 1,42,-1
 896 1280 l 1,43,-1
 768 1280 l 1,38,-1
0 768 m 1,44,-1
 0 896 l 1,45,-1
 128 896 l 1,46,-1
 128 768 l 1,47,-1
 0 768 l 1,44,-1
128 256 m 1,48,-1
 0 256 l 1,49,-1
 0 384 l 1,50,-1
 128 384 l 1,51,-1
 128 256 l 1,48,-1
256 640 m 1,52,-1
 384 640 l 1,53,-1
 384 512 l 1,54,-1
 256 512 l 1,55,-1
 256 640 l 1,52,-1
640 1536 m 1,56,-1
 768 1536 l 1,57,-1
 768 1408 l 1,58,-1
 640 1408 l 1,59,-1
 640 1536 l 1,56,-1
1152 1280 m 1,60,-1
 1152 1152 l 1,61,-1
 1024 1152 l 1,62,-1
 1024 1280 l 1,63,-1
 1152 1280 l 1,60,-1
EndSplineSet
EndChar

StartChar: dv_vowel_o
Encoding: 21 2323 21
Width: 1152
GlyphClass: 1
Flags: W
LayerCount: 2
Fore
SplineSet
384 512 m 1,0,-1
 640 512 l 1,1,-1
 640 1024 l 1,2,-1
 896 1024 l 1,3,-1
 896 1152 l 1,4,-1
 1024 1152 l 1,5,-1
 1024 1024 l 1,6,-1
 1152 1024 l 1,7,-1
 1152 896 l 1,8,-1
 1024 896 l 1,9,-1
 1024 128 l 1,10,-1
 896 128 l 1,11,-1
 896 768 l 1,12,-1
 896 896 l 1,13,-1
 768 896 l 1,14,-1
 768 768 l 1,15,-1
 768 128 l 1,16,-1
 640 128 l 1,17,-1
 640 384 l 1,18,-1
 512 384 l 1,19,-1
 512 256 l 1,20,-1
 384 256 l 1,21,-1
 384 512 l 1,0,-1
256 896 m 1,22,-1
 128 896 l 1,23,-1
 128 1024 l 1,24,-1
 256 1024 l 1,25,-1
 384 1024 l 1,26,-1
 384 896 l 1,27,-1
 256 896 l 1,22,-1
256 256 m 1,28,-1
 384 256 l 1,29,-1
 384 128 l 1,30,-1
 256 128 l 1,31,-1
 128 128 l 1,32,-1
 128 256 l 1,33,-1
 256 256 l 1,28,-1
384 640 m 1,34,-1
 384 896 l 1,35,-1
 512 896 l 1,36,-1
 512 640 l 1,37,-1
 384 640 l 1,34,-1
0 768 m 1,38,-1
 0 896 l 1,39,-1
 128 896 l 1,40,-1
 128 768 l 1,41,-1
 0 768 l 1,38,-1
128 256 m 1,42,-1
 0 256 l 1,43,-1
 0 384 l 1,44,-1
 128 384 l 1,45,-1
 128 256 l 1,42,-1
256 640 m 1,46,-1
 384 640 l 1,47,-1
 384 512 l 1,48,-1
 256 512 l 1,49,-1
 256 640 l 1,46,-1
768 1408 m 1,50,-1
 768 1280 l 1,51,-1
 640 1280 l 1,52,-1
 640 1408 l 1,53,-1
 768 1408 l 1,50,-1
896 1280 m 1,54,-1
 896 1152 l 1,55,-1
 768 1152 l 1,56,-1
 768 1280 l 1,57,-1
 896 1280 l 1,54,-1
EndSplineSet
EndChar

StartChar: dv_vowel_au
Encoding: 22 2324 22
Width: 1152
GlyphClass: 1
Flags: W
LayerCount: 2
Fore
SplineSet
384 512 m 1,0,-1
 640 512 l 1,1,-1
 640 1024 l 1,2,-1
 896 1024 l 1,3,-1
 896 1152 l 1,4,-1
 1024 1152 l 1,5,-1
 1024 1024 l 1,6,-1
 1152 1024 l 1,7,-1
 1152 896 l 1,8,-1
 1024 896 l 1,9,-1
 1024 128 l 1,10,-1
 896 128 l 1,11,-1
 896 768 l 1,12,-1
 896 896 l 1,13,-1
 768 896 l 1,14,-1
 768 768 l 1,15,-1
 768 128 l 1,16,-1
 640 128 l 1,17,-1
 640 384 l 1,18,-1
 512 384 l 1,19,-1
 512 256 l 1,20,-1
 384 256 l 1,21,-1
 384 512 l 1,0,-1
256 896 m 1,22,-1
 128 896 l 1,23,-1
 128 1024 l 1,24,-1
 256 1024 l 1,25,-1
 384 1024 l 1,26,-1
 384 896 l 1,27,-1
 256 896 l 1,22,-1
256 256 m 1,28,-1
 384 256 l 1,29,-1
 384 128 l 1,30,-1
 256 128 l 1,31,-1
 128 128 l 1,32,-1
 128 256 l 1,33,-1
 256 256 l 1,28,-1
384 640 m 1,34,-1
 384 896 l 1,35,-1
 512 896 l 1,36,-1
 512 640 l 1,37,-1
 384 640 l 1,34,-1
1024 1408 m 1,38,-1
 1152 1408 l 1,39,-1
 1152 1280 l 1,40,-1
 1152 1152 l 1,41,-1
 1024 1152 l 1,42,-1
 1024 1280 l 1,43,-1
 1024 1408 l 1,38,-1
0 768 m 1,44,-1
 0 896 l 1,45,-1
 128 896 l 1,46,-1
 128 768 l 1,47,-1
 0 768 l 1,44,-1
128 256 m 1,48,-1
 0 256 l 1,49,-1
 0 384 l 1,50,-1
 128 384 l 1,51,-1
 128 256 l 1,48,-1
256 640 m 1,52,-1
 384 640 l 1,53,-1
 384 512 l 1,54,-1
 256 512 l 1,55,-1
 256 640 l 1,52,-1
768 1408 m 1,56,-1
 768 1280 l 1,57,-1
 640 1280 l 1,58,-1
 640 1408 l 1,59,-1
 768 1408 l 1,56,-1
896 1280 m 1,60,-1
 896 1152 l 1,61,-1
 768 1152 l 1,62,-1
 768 1280 l 1,63,-1
 896 1280 l 1,60,-1
1024 1408 m 1,64,-1
 896 1408 l 1,65,-1
 896 1536 l 1,66,-1
 1024 1536 l 1,67,-1
 1024 1408 l 1,64,-1
EndSplineSet
EndChar

StartChar: ka
Encoding: 23 2325 23
Width: 1024
GlyphClass: 1
Flags: W
AnchorPoint: "nukta" 128 128 basechar 0
AnchorPoint: "rakar" 384 256 basechar 0
AnchorPoint: "mark_down" 384 128 basechar 0
AnchorPoint: "mark_up" 384 1024 basechar 0
LayerCount: 2
Fore
SplineSet
384 384 m 1,0,-1
 384 640 l 1,1,-1
 128 640 l 1,2,-1
 128 768 l 1,3,-1
 384 768 l 1,4,-1
 384 896 l 1,5,-1
 -128 896 l 1,6,-1
 -128 1024 l 1,7,-1
 384 1024 l 5,8,-1
 1024 1024 l 1,9,-1
 1024 896 l 1,10,-1
 640 896 l 1,11,-1
 512 896 l 1,12,-1
 512 768 l 1,13,-1
 640 768 l 1,14,-1
 768 768 l 1,15,-1
 768 640 l 1,16,-1
 640 640 l 1,17,-1
 512 640 l 1,18,-1
 512 128 l 1,19,-1
 384 128 l 1,20,-1
 384 256 l 1,21,-1
 128 256 l 1,22,-1
 128 384 l 1,23,-1
 384 384 l 1,0,-1
0 384 m 1,24,-1
 0 640 l 1,25,-1
 128 640 l 1,26,-1
 128 384 l 1,27,-1
 0 384 l 1,24,-1
768 512 m 1,28,-1
 768 640 l 1,29,-1
 896 640 l 1,30,-1
 896 512 l 1,31,-1
 896 384 l 1,32,-1
 768 384 l 1,33,-1
 768 512 l 1,28,-1
640 384 m 1,34,-1
 768 384 l 1,35,-1
 768 256 l 1,36,-1
 640 256 l 1,37,-1
 640 384 l 1,34,-1
EndSplineSet
EndChar

StartChar: Ka
Encoding: 24 2326 24
Width: 1152
GlyphClass: 1
Flags: W
AnchorPoint: "nukta" 0 128 basechar 0
AnchorPoint: "rakar" 384 128 basechar 0
AnchorPoint: "mark_down" 768 0 basechar 0
AnchorPoint: "mark_up" 896 1024 basechar 0
LayerCount: 2
Fore
SplineSet
384 512 m 1,0,-1
 128 512 l 1,1,-1
 128 640 l 1,2,-1
 256 640 l 1,3,-1
 256 896 l 1,4,-1
 -128 896 l 5,5,-1
 -128 1024 l 1,6,-1
 1152 1024 l 1,7,-1
 1152 896 l 1,8,-1
 1024 896 l 1,9,-1
 1024 128 l 1,10,-1
 896 128 l 1,11,-1
 896 256 l 1,12,-1
 768 256 l 1,13,-1
 768 128 l 1,14,-1
 640 128 l 1,15,-1
 640 384 l 1,16,-1
 768 384 l 1,17,-1
 896 384 l 1,18,-1
 896 640 l 1,19,-1
 640 640 l 1,20,-1
 640 768 l 1,21,-1
 896 768 l 1,22,-1
 896 896 l 1,23,-1
 384 896 l 1,24,-1
 384 512 l 1,0,-1
640 0 m 1,25,-1
 384 0 l 1,26,-1
 384 128 l 1,27,-1
 640 128 l 1,28,-1
 640 0 l 1,25,-1
512 640 m 1,29,-1
 640 640 l 1,30,-1
 640 512 l 1,31,-1
 640 384 l 1,32,-1
 512 384 l 1,33,-1
 512 512 l 1,34,-1
 512 640 l 1,29,-1
128 512 m 1,35,-1
 128 384 l 1,36,-1
 0 384 l 1,37,-1
 0 512 l 1,38,-1
 128 512 l 1,35,-1
128 256 m 1,39,-1
 128 384 l 1,40,-1
 256 384 l 1,41,-1
 256 256 l 1,42,-1
 128 256 l 1,39,-1
256 256 m 1,43,-1
 384 256 l 1,44,-1
 384 128 l 1,45,-1
 256 128 l 1,46,-1
 256 256 l 1,43,-1
EndSplineSet
EndChar

StartChar: ga
Encoding: 25 2327 25
Width: 768
GlyphClass: 1
Flags: W
AnchorPoint: "nukta" 256 256 basechar 0
AnchorPoint: "rakar" 512 256 basechar 0
AnchorPoint: "mark_down" 512 128 basechar 0
AnchorPoint: "mark_up" 512 1024 basechar 0
LayerCount: 2
Fore
SplineSet
384 512 m 1,0,-1
 256 512 l 1,1,-1
 256 896 l 1,2,-1
 -128 896 l 1,3,-1
 -128 1024 l 1,4,-1
 768 1024 l 1,5,-1
 768 896 l 1,6,-1
 640 896 l 1,7,-1
 640 128 l 1,8,-1
 512 128 l 1,9,-1
 512 896 l 1,10,-1
 384 896 l 1,11,-1
 384 512 l 1,0,-1
128 640 m 1,12,-1
 128 512 l 1,13,-1
 0 512 l 1,14,-1
 0 640 l 1,15,-1
 128 640 l 1,12,-1
256 512 m 1,16,-1
 256 384 l 1,17,-1
 128 384 l 1,18,-1
 128 512 l 1,19,-1
 256 512 l 1,16,-1
EndSplineSet
EndChar

StartChar: Ga
Encoding: 26 2328 26
Width: 896
GlyphClass: 1
Flags: W
AnchorPoint: "nukta" 384 128 basechar 0
AnchorPoint: "rakar" 384 256 basechar 0
AnchorPoint: "mark_down" 640 128 basechar 0
AnchorPoint: "mark_up" 640 1024 basechar 0
LayerCount: 2
Fore
SplineSet
-128 1024 m 1,0,-1
 896 1024 l 1,1,-1
 896 896 l 1,2,-1
 768 896 l 1,3,-1
 768 128 l 1,4,-1
 640 128 l 1,5,-1
 640 384 l 1,6,-1
 512 384 l 1,7,-1
 512 512 l 1,8,-1
 640 512 l 1,9,-1
 640 896 l 1,10,-1
 384 896 l 1,11,-1
 256 896 l 1,12,-1
 256 768 l 1,13,-1
 128 768 l 1,14,-1
 128 896 l 1,15,-1
 -128 896 l 1,16,-1
 -128 1024 l 1,0,-1
0 512 m 1,17,-1
 0 768 l 1,18,-1
 128 768 l 1,19,-1
 128 512 l 1,20,-1
 0 512 l 1,17,-1
384 384 m 1,21,-1
 512 384 l 1,22,-1
 512 256 l 1,23,-1
 384 256 l 1,24,-1
 256 256 l 1,25,-1
 256 384 l 1,26,-1
 384 384 l 1,21,-1
256 512 m 1,27,-1
 256 384 l 1,28,-1
 128 384 l 1,29,-1
 128 512 l 1,30,-1
 256 512 l 1,27,-1
256 640 m 1,31,-1
 384 640 l 1,32,-1
 384 512 l 1,33,-1
 256 512 l 1,34,-1
 256 640 l 1,31,-1
EndSplineSet
EndChar

StartChar: nga
Encoding: 27 2329 27
Width: 896
GlyphClass: 1
Flags: W
AnchorPoint: "nukta" 128 0 basechar 0
AnchorPoint: "rakar" 256 128 basechar 0
AnchorPoint: "mark_down" 256 0 basechar 0
AnchorPoint: "mark_up" 256 1024 basechar 0
LayerCount: 2
Fore
SplineSet
384 640 m 1,0,-1
 128 640 l 1,1,-1
 128 768 l 1,2,-1
 256 768 l 1,3,-1
 256 896 l 1,4,-1
 -128 896 l 1,5,-1
 -128 1024 l 1,6,-1
 896 1024 l 1,7,-1
 896 896 l 1,8,-1
 768 896 l 1,9,-1
 384 896 l 1,10,-1
 384 640 l 1,0,-1
384 256 m 1,11,-1
 384 128 l 1,12,-1
 0 128 l 1,13,-1
 0 256 l 1,14,-1
 384 256 l 1,11,-1
256 512 m 1,15,-1
 384 512 l 1,16,-1
 384 384 l 1,17,-1
 256 384 l 1,18,-1
 128 384 l 1,19,-1
 128 512 l 1,20,-1
 256 512 l 1,15,-1
128 640 m 1,21,-1
 128 512 l 1,22,-1
 0 512 l 1,23,-1
 0 640 l 1,24,-1
 128 640 l 1,21,-1
512 384 m 1,25,-1
 512 256 l 1,26,-1
 384 256 l 1,27,-1
 384 384 l 1,28,-1
 512 384 l 1,25,-1
768 384 m 1,29,-1
 640 384 l 1,30,-1
 640 512 l 1,31,-1
 768 512 l 1,32,-1
 768 384 l 1,29,-1
EndSplineSet
EndChar

StartChar: xa
Encoding: 28 2330 28
Width: 896
GlyphClass: 1
Flags: W
AnchorPoint: "nukta" 256 128 basechar 0
AnchorPoint: "rakar" 512 256 basechar 0
AnchorPoint: "mark_down" 640 128 basechar 0
AnchorPoint: "mark_up" 640 1024 basechar 0
LayerCount: 2
Fore
SplineSet
-128 1024 m 1,0,-1
 896 1024 l 1,1,-1
 896 896 l 1,2,-1
 768 896 l 1,3,-1
 768 128 l 1,4,-1
 640 128 l 1,5,-1
 640 256 l 1,6,-1
 384 256 l 1,7,-1
 384 384 l 1,8,-1
 640 384 l 1,9,-1
 640 896 l 1,10,-1
 -128 896 l 1,11,-1
 -128 1024 l 1,0,-1
256 384 m 1,12,-1
 256 512 l 1,13,-1
 0 512 l 1,14,-1
 0 640 l 1,15,-1
 384 640 l 1,16,-1
 384 384 l 1,17,-1
 256 384 l 1,12,-1
EndSplineSet
EndChar

StartChar: Xa
Encoding: 29 2331 29
Width: 1024
GlyphClass: 1
Flags: W
AnchorPoint: "nukta" 384 0 basechar 0
AnchorPoint: "rakar" 384 128 basechar 0
AnchorPoint: "mark_down" 384 0 basechar 0
AnchorPoint: "mark_up" 640 1024 basechar 0
LayerCount: 2
Fore
SplineSet
-128 1024 m 1,0,-1
 1024 1024 l 1,1,-1
 1024 896 l 1,2,-1
 768 896 l 1,3,-1
 768 640 l 1,4,-1
 640 640 l 1,5,-1
 640 896 l 1,6,-1
 -128 896 l 1,7,-1
 -128 1024 l 1,0,-1
0 384 m 1,8,-1
 0 640 l 1,9,-1
 128 640 l 1,10,-1
 128 384 l 1,11,-1
 0 384 l 1,8,-1
384 128 m 1,12,-1
 256 128 l 1,13,-1
 256 256 l 1,14,-1
 384 256 l 1,15,-1
 512 256 l 1,16,-1
 512 128 l 1,17,-1
 384 128 l 1,12,-1
128 768 m 1,18,-1
 256 768 l 1,19,-1
 256 640 l 1,20,-1
 128 640 l 1,21,-1
 128 768 l 1,18,-1
128 256 m 1,22,-1
 128 384 l 1,23,-1
 256 384 l 1,24,-1
 256 256 l 1,25,-1
 128 256 l 1,22,-1
256 384 m 1,26,-1
 256 512 l 1,27,-1
 384 512 l 1,28,-1
 384 384 l 1,29,-1
 256 384 l 1,26,-1
512 512 m 1,30,-1
 512 640 l 1,31,-1
 640 640 l 1,32,-1
 640 512 l 1,33,-1
 512 512 l 1,30,-1
640 256 m 1,34,-1
 512 256 l 1,35,-1
 512 384 l 1,36,-1
 640 384 l 1,37,-1
 640 256 l 1,34,-1
768 384 m 1,38,-1
 640 384 l 1,39,-1
 640 512 l 1,40,-1
 768 512 l 1,41,-1
 768 384 l 1,38,-1
768 512 m 1,42,-1
 768 640 l 1,43,-1
 896 640 l 1,44,-1
 896 512 l 1,45,-1
 768 512 l 1,42,-1
EndSplineSet
EndChar

StartChar: ja
Encoding: 30 2332 30
Width: 896
GlyphClass: 1
Flags: W
AnchorPoint: "nukta" 256 128 basechar 0
AnchorPoint: "rakar" 768 128 basechar 0
AnchorPoint: "mark_down" 640 128 basechar 0
AnchorPoint: "mark_up" 640 1024 basechar 0
LayerCount: 2
Fore
SplineSet
384 384 m 1,0,-1
 384 640 l 1,1,-1
 640 640 l 1,2,-1
 640 896 l 1,3,-1
 -128 896 l 1,4,-1
 -128 1024 l 1,5,-1
 896 1024 l 1,6,-1
 896 896 l 1,7,-1
 768 896 l 1,8,-1
 768 512 l 1,9,-1
 768 128 l 1,10,-1
 640 128 l 1,11,-1
 640 512 l 1,12,-1
 512 512 l 1,13,-1
 512 384 l 1,14,-1
 384 384 l 1,0,-1
0 384 m 1,15,-1
 0 640 l 1,16,-1
 128 640 l 1,17,-1
 128 384 l 1,18,-1
 0 384 l 1,15,-1
256 256 m 1,19,-1
 128 256 l 1,20,-1
 128 384 l 1,21,-1
 256 384 l 1,22,-1
 384 384 l 1,23,-1
 384 256 l 1,24,-1
 256 256 l 1,19,-1
EndSplineSet
EndChar

StartChar: Ja
Encoding: 31 2333 31
Width: 896
GlyphClass: 1
Flags: W
AnchorPoint: "rakar" 768 128 basechar 0
AnchorPoint: "mark_down" 640 128 basechar 0
AnchorPoint: "mark_up" 640 1024 basechar 0
LayerCount: 2
Fore
SplineSet
384 640 m 1,0,-1
 128 640 l 1,1,-1
 128 768 l 1,2,-1
 256 768 l 1,3,-1
 256 896 l 1,4,-1
 -128 896 l 5,5,-1
 -128 1024 l 1,6,-1
 896 1024 l 1,7,-1
 896 896 l 1,8,-1
 768 896 l 1,9,-1
 768 128 l 1,10,-1
 640 128 l 1,11,-1
 640 256 l 1,12,-1
 384 256 l 1,13,-1
 384 384 l 1,14,-1
 640 384 l 1,15,-1
 640 896 l 1,16,-1
 384 896 l 1,17,-1
 384 640 l 1,0,-1
384 256 m 1,18,-1
 384 128 l 1,19,-1
 256 128 l 1,20,-1
 256 0 l 1,21,-1
 128 0 l 1,22,-1
 128 128 l 1,23,-1
 0 128 l 1,24,-1
 0 256 l 1,25,-1
 128 256 l 1,26,-1
 384 256 l 1,18,-1
256 512 m 1,27,-1
 384 512 l 1,28,-1
 384 384 l 1,29,-1
 256 384 l 1,30,-1
 128 384 l 1,31,-1
 128 512 l 1,32,-1
 256 512 l 1,27,-1
128 640 m 1,33,-1
 128 512 l 1,34,-1
 0 512 l 1,35,-1
 0 640 l 1,36,-1
 128 640 l 1,33,-1
EndSplineSet
EndChar

StartChar: nya
Encoding: 32 2334 32
Width: 896
GlyphClass: 1
Flags: W
AnchorPoint: "nukta" 384 128 basechar 0
AnchorPoint: "rakar" 768 128 basechar 0
AnchorPoint: "mark_down" 640 128 basechar 0
AnchorPoint: "mark_up" 640 1024 basechar 0
LayerCount: 2
Fore
SplineSet
384 384 m 1,0,-1
 384 640 l 1,1,-1
 640 640 l 1,2,-1
 640 896 l 1,3,-1
 -128 896 l 1,4,-1
 -128 1024 l 1,5,-1
 896 1024 l 1,6,-1
 896 896 l 1,7,-1
 768 896 l 1,8,-1
 768 512 l 1,9,-1
 768 128 l 1,10,-1
 640 128 l 1,11,-1
 640 512 l 1,12,-1
 512 512 l 1,13,-1
 512 384 l 1,14,-1
 384 384 l 1,0,-1
384 768 m 1,15,-1
 384 640 l 1,16,-1
 256 640 l 1,17,-1
 128 640 l 1,18,-1
 128 768 l 1,19,-1
 256 768 l 1,20,-1
 384 768 l 1,15,-1
256 256 m 1,21,-1
 128 256 l 1,22,-1
 128 384 l 1,23,-1
 256 384 l 1,24,-1
 384 384 l 1,25,-1
 384 256 l 1,26,-1
 256 256 l 1,21,-1
128 512 m 1,27,-1
 128 384 l 1,28,-1
 0 384 l 1,29,-1
 0 512 l 1,30,-1
 128 512 l 1,27,-1
EndSplineSet
EndChar

StartChar: ta
Encoding: 33 2335 33
Width: 768
GlyphClass: 1
Flags: W
AnchorPoint: "nukta" 256 0 basechar 0
AnchorPoint: "rakar" 384 128 basechar 0
AnchorPoint: "mark_up" 384 1024 basechar 0
AnchorPoint: "mark_down" 256 0 basechar 0
LayerCount: 2
Fore
SplineSet
-128 1024 m 1,0,-1
 768 1024 l 1,1,-1
 768 896 l 1,2,-1
 512 896 l 1,3,-1
 512 768 l 1,4,-1
 384 768 l 1,5,-1
 384 896 l 1,6,-1
 -128 896 l 1,7,-1
 -128 1024 l 1,0,-1
128 128 m 1,8,-1
 128 256 l 1,9,-1
 512 256 l 1,10,-1
 512 128 l 1,11,-1
 128 128 l 1,8,-1
128 256 m 1,12,-1
 0 256 l 1,13,-1
 0 640 l 1,14,-1
 128 640 l 1,15,-1
 128 256 l 1,12,-1
384 768 m 1,16,-1
 384 640 l 1,17,-1
 256 640 l 1,18,-1
 128 640 l 1,19,-1
 128 768 l 1,20,-1
 256 768 l 1,21,-1
 384 768 l 1,16,-1
512 256 m 1,22,-1
 512 384 l 1,23,-1
 640 384 l 1,24,-1
 640 256 l 1,25,-1
 512 256 l 1,22,-1
EndSplineSet
EndChar

StartChar: Ta
Encoding: 34 2336 34
Width: 768
GlyphClass: 1
Flags: W
AnchorPoint: "nukta" 256 0 basechar 0
AnchorPoint: "rakar" 384 128 basechar 0
AnchorPoint: "mark_down" 256 0 basechar 0
AnchorPoint: "mark_up" 256 1024 basechar 0
LayerCount: 2
Fore
SplineSet
128 768 m 1,0,-1
 256 768 l 1,1,-1
 256 896 l 1,2,-1
 -128 896 l 1,3,-1
 -128 1024 l 1,4,-1
 768 1024 l 1,5,-1
 768 896 l 1,6,-1
 384 896 l 1,7,-1
 384 768 l 1,8,-1
 512 768 l 1,9,-1
 512 640 l 1,10,-1
 128 640 l 1,11,-1
 128 768 l 1,0,-1
128 256 m 1,12,-1
 0 256 l 1,13,-1
 0 640 l 1,14,-1
 128 640 l 1,15,-1
 128 256 l 1,12,-1
128 128 m 1,16,-1
 128 256 l 1,17,-1
 512 256 l 1,18,-1
 512 128 l 1,19,-1
 128 128 l 1,16,-1
640 256 m 1,20,-1
 512 256 l 1,21,-1
 512 640 l 1,22,-1
 640 640 l 1,23,-1
 640 256 l 1,20,-1
EndSplineSet
EndChar

StartChar: da
Encoding: 35 2337 35
Width: 640
GlyphClass: 1
Flags: W
AnchorPoint: "nukta" 128 0 basechar 0
AnchorPoint: "mark_down" 256 0 basechar 0
AnchorPoint: "rakar" 256 128 basechar 0
AnchorPoint: "mark_up" 256 1024 basechar 0
LayerCount: 2
Fore
SplineSet
384 768 m 1,0,-1
 384 640 l 1,1,-1
 128 640 l 1,2,-1
 128 768 l 1,3,-1
 256 768 l 1,4,-1
 256 896 l 1,5,-1
 -128 896 l 1,6,-1
 -128 1024 l 1,7,-1
 256 1024 l 1,8,-1
 640 1024 l 1,9,-1
 640 896 l 1,10,-1
 384 896 l 1,11,-1
 384 768 l 1,0,-1
384 256 m 1,12,-1
 384 128 l 1,13,-1
 0 128 l 1,14,-1
 0 256 l 1,15,-1
 384 256 l 1,12,-1
256 512 m 1,16,-1
 384 512 l 1,17,-1
 384 384 l 1,18,-1
 256 384 l 1,19,-1
 128 384 l 1,20,-1
 128 512 l 1,21,-1
 256 512 l 1,16,-1
128 640 m 1,22,-1
 128 512 l 1,23,-1
 0 512 l 1,24,-1
 0 640 l 1,25,-1
 128 640 l 1,22,-1
512 384 m 1,26,-1
 512 256 l 1,27,-1
 384 256 l 1,28,-1
 384 384 l 1,29,-1
 512 384 l 1,26,-1
EndSplineSet
EndChar

StartChar: Da
Encoding: 36 2338 36
Width: 896
GlyphClass: 1
Flags: W
AnchorPoint: "nukta" 384 0 basechar 0
AnchorPoint: "rakar" 384 128 basechar 0
AnchorPoint: "mark_down" 384 0 basechar 0
AnchorPoint: "mark_up" 384 1024 basechar 0
LayerCount: 2
Fore
SplineSet
-128 1024 m 1,0,-1
 896 1024 l 1,1,-1
 896 896 l 1,2,-1
 512 896 l 1,3,-1
 512 768 l 1,4,-1
 384 768 l 1,5,-1
 384 896 l 1,6,-1
 -128 896 l 1,7,-1
 -128 1024 l 1,0,-1
128 128 m 1,8,-1
 128 256 l 1,9,-1
 384 256 l 1,10,-1
 384 384 l 1,11,-1
 512 384 l 1,12,-1
 512 256 l 1,13,-1
 640 256 l 1,14,-1
 640 128 l 1,15,-1
 128 128 l 1,8,-1
128 256 m 1,16,-1
 0 256 l 1,17,-1
 0 640 l 1,18,-1
 128 640 l 1,19,-1
 128 256 l 1,16,-1
384 768 m 1,20,-1
 384 640 l 1,21,-1
 256 640 l 1,22,-1
 128 640 l 1,23,-1
 128 768 l 1,24,-1
 256 768 l 1,25,-1
 384 768 l 1,20,-1
512 512 m 1,26,-1
 640 512 l 1,27,-1
 640 384 l 1,28,-1
 512 384 l 1,29,-1
 512 512 l 1,26,-1
640 384 m 1,30,-1
 768 384 l 1,31,-1
 768 256 l 1,32,-1
 640 256 l 1,33,-1
 640 384 l 1,30,-1
EndSplineSet
EndChar

StartChar: Na
Encoding: 37 2339 37
Width: 896
GlyphClass: 1
Flags: W
AnchorPoint: "nukta" 256 256 basechar 0
AnchorPoint: "rakar" 640 256 basechar 0
AnchorPoint: "mark_down" 640 128 basechar 0
AnchorPoint: "mark_up" 640 1024 basechar 0
LayerCount: 2
Fore
SplineSet
-128 896 m 1025,0,-1
0 896 m 1025,1,-1
-128 896 m 1,2,-1
 -128 1024 l 1,3,-1
 0 1024 l 1,4,-1
 0 896 l 1,5,-1
 -128 896 l 1,2,-1
0 1024 m 1,6,-1
 896 1024 l 1,7,-1
 896 896 l 1,8,-1
 768 896 l 1,9,-1
 768 128 l 1,10,-1
 640 128 l 1,11,-1
 640 896 l 1,12,-1
 512 896 l 1,13,-1
 512 512 l 1,14,-1
 384 512 l 1,15,-1
 384 896 l 1,16,-1
 128 896 l 1,17,-1
 128 512 l 1,18,-1
 0 512 l 1,19,-1
 0 896 l 1,20,-1
 0 1024 l 1,6,-1
256 512 m 1,21,-1
 384 512 l 1,22,-1
 384 384 l 1,23,-1
 256 384 l 1,24,-1
 128 384 l 1,25,-1
 128 512 l 1,26,-1
 256 512 l 1,21,-1
EndSplineSet
EndChar

StartChar: tha
Encoding: 38 2340 38
Width: 768
GlyphClass: 1
Flags: W
AnchorPoint: "rakar" 640 128 basechar 0
AnchorPoint: "mark_down" 512 128 basechar 0
AnchorPoint: "mark_up" 512 1024 basechar 0
LayerCount: 2
Fore
SplineSet
640 128 m 1,0,-1
 512 128 l 1,1,-1
 512 512 l 1,2,-1
 128 512 l 1,3,-1
 128 640 l 1,4,-1
 512 640 l 1,5,-1
 512 896 l 1,6,-1
 -128 896 l 5,7,-1
 -128 1024 l 1,8,-1
 768 1024 l 1,9,-1
 768 896 l 1,10,-1
 640 896 l 1,11,-1
 640 128 l 1,0,-1
0 384 m 1,12,-1
 0 512 l 1,13,-1
 128 512 l 1,14,-1
 128 384 l 1,15,-1
 128 256 l 1,16,-1
 0 256 l 1,17,-1
 0 384 l 1,12,-1
256 128 m 1,18,-1
 128 128 l 1,19,-1
 128 256 l 1,20,-1
 256 256 l 1,21,-1
 256 128 l 1,18,-1
EndSplineSet
EndChar

StartChar: Tha
Encoding: 39 2341 39
Width: 768
GlyphClass: 1
Flags: W
AnchorPoint: "nukta" 256 256 basechar 0
AnchorPoint: "rakar" 512 256 basechar 0
AnchorPoint: "mark_down" 512 128 basechar 0
AnchorPoint: "mark_up" 512 1024 basechar 0
LayerCount: 2
Fore
SplineSet
384 896 m 1025,0,-1
512 896 m 1025,1,-1
384 896 m 1,2,-1
 384 1024 l 1,3,-1
 512 1024 l 1,4,-1
 512 896 l 1,5,-1
 384 896 l 1,2,-1
640 128 m 1,6,-1
 512 128 l 1,7,-1
 512 512 l 1,8,-1
 384 512 l 1,9,-1
 384 640 l 1,10,-1
 512 640 l 1,11,-1
 512 768 l 1,12,-1
 512 1024 l 1,13,-1
 640 1024 l 1,14,-1
 768 1024 l 1,15,-1
 768 896 l 1,16,-1
 640 896 l 1,17,-1
 640 128 l 1,6,-1
256 512 m 1,18,-1
 384 512 l 1,19,-1
 384 384 l 1,20,-1
 256 384 l 1,21,-1
 128 384 l 1,22,-1
 128 512 l 1,23,-1
 256 512 l 1,18,-1
0 896 m 1,24,-1
 -128 896 l 1,25,-1
 -128 1024 l 1,26,-1
 0 1024 l 1,27,-1
 0 896 l 1,24,-1
128 640 m 1,28,-1
 128 512 l 1,29,-1
 0 512 l 1,30,-1
 0 640 l 1,31,-1
 128 640 l 1,28,-1
0 1024 m 1,32,-1
 0 1152 l 1,33,-1
 128 1152 l 1,34,-1
 128 1024 l 1,35,-1
 0 1024 l 1,32,-1
128 1024 m 1,36,-1
 256 1024 l 1,37,-1
 256 640 l 1,38,-1
 128 640 l 1,39,-1
 128 1024 l 1,36,-1
EndSplineSet
EndChar

StartChar: dha
Encoding: 40 2342 40
Width: 768
GlyphClass: 1
Flags: W
AnchorPoint: "nukta" 256 0 basechar 0
AnchorPoint: "rakar" 384 128 basechar 0
AnchorPoint: "mark_down" 256 0 basechar 0
AnchorPoint: "mark_up" 384 1024 basechar 0
LayerCount: 2
Fore
SplineSet
-128 1024 m 1,0,-1
 768 1024 l 1,1,-1
 768 896 l 1,2,-1
 512 896 l 1,3,-1
 512 768 l 1,4,-1
 384 768 l 1,5,-1
 384 896 l 1,6,-1
 -128 896 l 1,7,-1
 -128 1024 l 1,0,-1
128 256 m 1,8,-1
 0 256 l 1,9,-1
 0 640 l 1,10,-1
 128 640 l 1,11,-1
 128 256 l 1,8,-1
128 128 m 1,12,-1
 128 256 l 1,13,-1
 384 256 l 1,14,-1
 384 128 l 1,15,-1
 128 128 l 1,12,-1
384 768 m 1,16,-1
 384 640 l 1,17,-1
 256 640 l 1,18,-1
 128 640 l 1,19,-1
 128 768 l 1,20,-1
 256 768 l 1,21,-1
 384 768 l 1,16,-1
512 128 m 1,22,-1
 512 256 l 1,23,-1
 640 256 l 1,24,-1
 640 128 l 1,25,-1
 640 0 l 1,26,-1
 512 0 l 1,27,-1
 512 128 l 1,22,-1
512 256 m 1,28,-1
 384 256 l 1,29,-1
 384 384 l 1,30,-1
 512 384 l 1,31,-1
 512 256 l 1,28,-1
EndSplineSet
EndChar

StartChar: Dha
Encoding: 41 2343 41
Width: 896
GlyphClass: 1
Flags: W
AnchorPoint: "nukta" 384 128 basechar 0
AnchorPoint: "rakar" 384 256 basechar 0
AnchorPoint: "mark_up" 640 1024 basechar 0
AnchorPoint: "mark_down" 640 128 basechar 0
LayerCount: 2
Fore
SplineSet
640 512 m 1,0,-1
 640 896 l 1,1,-1
 384 896 l 1,2,-1
 384 1024 l 1,3,-1
 896 1024 l 1,4,-1
 896 896 l 1,5,-1
 768 896 l 1,6,-1
 768 128 l 1,7,-1
 640 128 l 1,8,-1
 640 384 l 1,9,-1
 512 384 l 1,10,-1
 512 512 l 1,11,-1
 640 512 l 1,0,-1
0 512 m 1,12,-1
 0 768 l 1,13,-1
 128 768 l 1,14,-1
 128 512 l 1,15,-1
 0 512 l 1,12,-1
384 384 m 1,16,-1
 512 384 l 1,17,-1
 512 256 l 1,18,-1
 384 256 l 1,19,-1
 256 256 l 1,20,-1
 256 384 l 1,21,-1
 384 384 l 1,16,-1
128 896 m 1,22,-1
 -128 896 l 1,23,-1
 -128 1024 l 1,24,-1
 128 1024 l 1,25,-1
 128 896 l 1,22,-1
256 896 m 1,26,-1
 256 768 l 1,27,-1
 128 768 l 1,28,-1
 128 896 l 1,29,-1
 256 896 l 1,26,-1
256 512 m 1,30,-1
 256 384 l 1,31,-1
 128 384 l 1,32,-1
 128 512 l 1,33,-1
 256 512 l 1,30,-1
256 640 m 1,34,-1
 384 640 l 1,35,-1
 384 512 l 1,36,-1
 256 512 l 1,37,-1
 256 640 l 1,34,-1
EndSplineSet
EndChar

StartChar: na
Encoding: 42 2344 42
Width: 640
GlyphClass: 1
Flags: W
AnchorPoint: "nukta" 128 256 basechar 0
AnchorPoint: "rakar" 512 128 basechar 0
AnchorPoint: "mark_down" 384 128 basechar 0
AnchorPoint: "mark_up" 384 1024 basechar 0
LayerCount: 2
Fore
SplineSet
128 384 m 1,0,-1
 0 384 l 1,1,-1
 0 640 l 1,2,-1
 384 640 l 1,3,-1
 384 896 l 1,4,-1
 -128 896 l 1,5,-1
 -128 1024 l 1,6,-1
 640 1024 l 1,7,-1
 640 896 l 1,8,-1
 512 896 l 1,9,-1
 512 128 l 1,10,-1
 384 128 l 1,11,-1
 384 512 l 1,12,-1
 128 512 l 1,13,-1
 128 384 l 1,0,-1
EndSplineSet
EndChar

StartChar: pa
Encoding: 44 2346 43
Width: 640
GlyphClass: 1
Flags: W
AnchorPoint: "nukta" 128 256 basechar 0
AnchorPoint: "rakar" 384 512 basechar 0
AnchorPoint: "mark_down" 384 128 basechar 0
AnchorPoint: "mark_up" 384 1024 basechar 0
LayerCount: 2
Fore
SplineSet
-128 896 m 1025,0,-1
0 896 m 1025,1,-1
-128 896 m 1,2,-1
 -128 1024 l 1,3,-1
 0 1024 l 1,4,-1
 0 896 l 1,5,-1
 -128 896 l 1,2,-1
384 384 m 1,6,-1
 384 512 l 1,7,-1
 128 512 l 1,8,-1
 128 640 l 1,9,-1
 0 640 l 1,10,-1
 0 1024 l 1,11,-1
 640 1024 l 1,12,-1
 640 896 l 1,13,-1
 512 896 l 1,14,-1
 512 512 l 1,15,-1
 512 128 l 1,16,-1
 384 128 l 1,17,-1
 384 384 l 1,6,-1
128 640 m 1,18,-1
 384 640 l 1,19,-1
 384 896 l 1,20,-1
 128 896 l 1,21,-1
 128 640 l 1,18,-1
EndSplineSet
EndChar

StartChar: Pa
Encoding: 45 2347 44
Width: 1024
GlyphClass: 1
Flags: W
AnchorPoint: "nukta" 128 256 basechar 0
AnchorPoint: "rakar" 384 512 basechar 0
AnchorPoint: "mark_down" 384 128 basechar 0
AnchorPoint: "mark_up" 384 1024 basechar 0
LayerCount: 2
Fore
SplineSet
-128 896 m 1025,0,-1
0 896 m 1025,1,-1
-128 896 m 1,2,-1
 -128 1024 l 1,3,-1
 0 1024 l 1,4,-1
 0 896 l 1,5,-1
 -128 896 l 1,2,-1
384 512 m 1,6,-1
 128 512 l 1,7,-1
 128 640 l 1,8,-1
 0 640 l 1,9,-1
 0 1024 l 1,10,-1
 1024 1024 l 1,11,-1
 1024 896 l 1,12,-1
 512 896 l 1,13,-1
 512 640 l 1,14,-1
 768 640 l 1,15,-1
 768 512 l 1,16,-1
 512 512 l 1,17,-1
 512 128 l 1,18,-1
 384 128 l 1,19,-1
 384 512 l 1,6,-1
128 640 m 1,20,-1
 384 640 l 1,21,-1
 384 896 l 1,22,-1
 128 896 l 1,23,-1
 128 640 l 1,20,-1
768 512 m 1,24,-1
 896 512 l 1,25,-1
 896 384 l 1,26,-1
 896 256 l 1,27,-1
 768 256 l 1,28,-1
 768 384 l 1,29,-1
 768 512 l 1,24,-1
640 128 m 1,30,-1
 640 256 l 1,31,-1
 768 256 l 1,32,-1
 768 128 l 1,33,-1
 640 128 l 1,30,-1
EndSplineSet
EndChar

StartChar: ba
Encoding: 46 2348 45
Width: 768
GlyphClass: 1
Flags: W
AnchorPoint: "nukta" 128 128 basechar 0
AnchorPoint: "rakar" 384 256 basechar 0
AnchorPoint: "mark_down" 512 128 basechar 0
AnchorPoint: "mark_up" 512 1024 basechar 0
LayerCount: 2
Fore
SplineSet
640 128 m 1,0,-1
 512 128 l 1,1,-1
 512 384 l 1,2,-1
 384 384 l 1,3,-1
 384 512 l 1,4,-1
 256 512 l 1,5,-1
 256 640 l 1,6,-1
 128 640 l 1,7,-1
 128 768 l 1,8,-1
 512 768 l 1,9,-1
 512 896 l 1,10,-1
 256 896 l 1,11,-1
 -128 896 l 1,12,-1
 -128 1024 l 1,13,-1
 256 1024 l 1,14,-1
 768 1024 l 1,15,-1
 768 896 l 1,16,-1
 640 896 l 1,17,-1
 640 128 l 1,0,-1
512 512 m 1,18,-1
 512 640 l 1,19,-1
 384 640 l 1,20,-1
 384 512 l 1,21,-1
 512 512 l 1,18,-1
0 384 m 1,22,-1
 0 640 l 1,23,-1
 128 640 l 1,24,-1
 128 384 l 1,25,-1
 0 384 l 1,22,-1
256 256 m 1,26,-1
 128 256 l 1,27,-1
 128 384 l 1,28,-1
 256 384 l 1,29,-1
 384 384 l 1,30,-1
 384 256 l 1,31,-1
 256 256 l 1,26,-1
EndSplineSet
EndChar

StartChar: Ba
Encoding: 47 2349 46
Width: 768
GlyphClass: 1
Flags: W
AnchorPoint: "nukta" 256 256 basechar 0
AnchorPoint: "rakar" 512 256 basechar 0
AnchorPoint: "mark_down" 512 128 basechar 0
AnchorPoint: "mark_up" 512 1024 basechar 0
LayerCount: 2
Fore
SplineSet
512 128 m 1,0,-1
 512 512 l 1,1,-1
 256 512 l 1,2,-1
 256 640 l 1,3,-1
 512 640 l 1,4,-1
 512 896 l 1,5,-1
 384 896 l 1,6,-1
 384 1024 l 1,7,-1
 768 1024 l 1,8,-1
 768 896 l 1,9,-1
 640 896 l 1,10,-1
 640 768 l 1,11,-1
 640 128 l 1,12,-1
 512 128 l 1,0,-1
256 640 m 1,13,-1
 128 640 l 1,14,-1
 128 1024 l 1,15,-1
 256 1024 l 1,16,-1
 256 640 l 1,13,-1
0 896 m 1,17,-1
 -128 896 l 1,18,-1
 -128 1024 l 1,19,-1
 0 1024 l 1,20,-1
 0 896 l 1,17,-1
0 1024 m 1,21,-1
 0 1152 l 1,22,-1
 128 1152 l 1,23,-1
 128 1024 l 1,24,-1
 0 1024 l 1,21,-1
128 512 m 1,25,-1
 0 512 l 1,26,-1
 0 640 l 1,27,-1
 128 640 l 1,28,-1
 128 512 l 1,25,-1
128 384 m 1,29,-1
 128 512 l 1,30,-1
 256 512 l 1,31,-1
 256 384 l 1,32,-1
 128 384 l 1,29,-1
EndSplineSet
EndChar

StartChar: ma
Encoding: 48 2350 47
Width: 768
GlyphClass: 1
Flags: W
AnchorPoint: "nukta" 256 256 basechar 0
AnchorPoint: "rakar" 512 256 basechar 0
AnchorPoint: "mark_down" 512 128 basechar 0
AnchorPoint: "mark_up" 512 1024 basechar 0
LayerCount: 2
Fore
SplineSet
640 128 m 1,0,-1
 512 128 l 1,1,-1
 512 512 l 1,2,-1
 256 512 l 1,3,-1
 256 640 l 1,4,-1
 128 640 l 1,5,-1
 128 896 l 1,6,-1
 -128 896 l 1,7,-1
 -128 1024 l 1,8,-1
 640 1024 l 1,9,-1
 768 1024 l 1,10,-1
 768 896 l 1,11,-1
 640 896 l 1,12,-1
 640 128 l 1,0,-1
256 640 m 1,13,-1
 512 640 l 1,14,-1
 512 896 l 1,15,-1
 256 896 l 1,16,-1
 256 640 l 1,13,-1
128 640 m 1,17,-1
 128 512 l 1,18,-1
 0 512 l 1,19,-1
 0 640 l 1,20,-1
 128 640 l 1,17,-1
256 512 m 1,21,-1
 256 384 l 1,22,-1
 128 384 l 1,23,-1
 128 512 l 1,24,-1
 256 512 l 1,21,-1
EndSplineSet
EndChar

StartChar: ya
Encoding: 49 2351 48
Width: 768
GlyphClass: 1
Flags: W
AnchorPoint: "nukta" 256 256 basechar 0
AnchorPoint: "rakar" 640 128 basechar 0
AnchorPoint: "mark_down" 512 128 basechar 0
AnchorPoint: "mark_up" 512 1024 basechar 0
LayerCount: 2
Fore
SplineSet
384 1024 m 1,0,-1
 768 1024 l 1,1,-1
 768 896 l 1,2,-1
 640 896 l 1,3,-1
 640 128 l 1,4,-1
 512 128 l 1,5,-1
 512 512 l 1,6,-1
 384 512 l 1,7,-1
 384 640 l 1,8,-1
 512 640 l 1,9,-1
 512 896 l 1,10,-1
 256 896 l 1,11,-1
 256 640 l 1,12,-1
 128 640 l 1,13,-1
 128 896 l 1,14,-1
 -128 896 l 1,15,-1
 -128 1024 l 1,16,-1
 128 1024 l 1,17,-1
 384 1024 l 1,0,-1
256 512 m 1,18,-1
 384 512 l 1,19,-1
 384 384 l 1,20,-1
 256 384 l 1,21,-1
 128 384 l 1,22,-1
 128 512 l 1,23,-1
 256 512 l 1,18,-1
128 512 m 1,24,-1
 0 512 l 1,25,-1
 0 640 l 1,26,-1
 128 640 l 1,27,-1
 128 512 l 1,24,-1
EndSplineSet
EndChar

StartChar: ra
Encoding: 50 2352 49
Width: 512
GlyphClass: 1
Flags: W
AnchorPoint: "nukta" 0 128 basechar 0
AnchorPoint: "mark_down" 128 128 basechar 0
AnchorPoint: "mark_up" 256 1024 basechar 0
LayerCount: 2
Fore
SplineSet
384 512 m 1,0,-1
 128 512 l 1,1,-1
 128 640 l 1,2,-1
 256 640 l 1,3,-1
 256 896 l 1,4,-1
 -128 896 l 1,5,-1
 -128 1024 l 1,6,-1
 512 1024 l 1,7,-1
 512 896 l 1,8,-1
 384 896 l 1,9,-1
 384 512 l 1,0,-1
128 512 m 1,10,-1
 128 384 l 1,11,-1
 0 384 l 1,12,-1
 0 512 l 1,13,-1
 128 512 l 1,10,-1
128 256 m 1,14,-1
 128 384 l 1,15,-1
 256 384 l 1,16,-1
 256 256 l 1,17,-1
 128 256 l 1,14,-1
256 256 m 1,18,-1
 384 256 l 1,19,-1
 384 128 l 1,20,-1
 256 128 l 1,21,-1
 256 256 l 1,18,-1
EndSplineSet
Substitution2: "Single Substitution lookup 22 subtable" dv_vowel_ll
Substitution2: "Single Substitution lookup 21 subtable" dv_vowel_l
Substitution2: "Single Substitution lookup 20 subtable" dv_vowel_rr
Substitution2: "Single Substitution lookup 19 subtable" dv_vowel_r
EndChar

StartChar: la
Encoding: 52 2354 50
Width: 1024
GlyphClass: 1
Flags: W
AnchorPoint: "rakar" 896 128 basechar 0
AnchorPoint: "mark_down" 768 128 basechar 0
AnchorPoint: "mark_up" 768 1024 basechar 0
LayerCount: 2
Fore
SplineSet
768 512 m 1,0,-1
 512 512 l 1,1,-1
 512 640 l 1,2,-1
 768 640 l 1,3,-1
 768 896 l 1,4,-1
 -128 896 l 5,5,-1
 -128 1024 l 1,6,-1
 1024 1024 l 1,7,-1
 1024 896 l 1,8,-1
 896 896 l 1,9,-1
 896 128 l 1,10,-1
 768 128 l 1,11,-1
 768 512 l 1,0,-1
0 384 m 1,12,-1
 0 512 l 1,13,-1
 128 512 l 1,14,-1
 128 384 l 1,15,-1
 128 256 l 1,16,-1
 0 256 l 1,17,-1
 0 384 l 1,12,-1
256 512 m 1,18,-1
 128 512 l 1,19,-1
 128 640 l 1,20,-1
 256 640 l 1,21,-1
 384 640 l 1,22,-1
 384 512 l 1,23,-1
 256 512 l 1,18,-1
256 128 m 1,24,-1
 128 128 l 1,25,-1
 128 256 l 1,26,-1
 256 256 l 1,27,-1
 256 128 l 1,24,-1
512 384 m 1,28,-1
 384 384 l 1,29,-1
 384 512 l 1,30,-1
 512 512 l 1,31,-1
 512 384 l 1,28,-1
EndSplineSet
EndChar

StartChar: La
Encoding: 53 2355 51
Width: 1024
GlyphClass: 1
Flags: W
AnchorPoint: "nukta" 384 128 basechar 0
AnchorPoint: "rakar" 640 256 basechar 0
AnchorPoint: "mark_down" 640 128 basechar 0
AnchorPoint: "mark_up" 640 1024 basechar 0
LayerCount: 2
Fore
SplineSet
512 640 m 1,0,-1
 512 768 l 1,1,-1
 640 768 l 1,2,-1
 640 896 l 1,3,-1
 -128 896 l 1,4,-1
 -128 1024 l 1,5,-1
 1024 1024 l 1,6,-1
 1024 896 l 1,7,-1
 768 896 l 1,8,-1
 768 640 l 1,9,-1
 512 640 l 1,0,-1
0 384 m 1,10,-1
 0 640 l 1,11,-1
 128 640 l 1,12,-1
 128 384 l 1,13,-1
 0 384 l 1,10,-1
384 768 m 1,14,-1
 384 640 l 1,15,-1
 256 640 l 1,16,-1
 128 640 l 1,17,-1
 128 768 l 1,18,-1
 256 768 l 1,19,-1
 384 768 l 1,14,-1
256 256 m 1,20,-1
 128 256 l 1,21,-1
 128 384 l 1,22,-1
 256 384 l 1,23,-1
 384 384 l 1,24,-1
 384 256 l 1,25,-1
 256 256 l 1,20,-1
384 512 m 1,26,-1
 384 640 l 1,27,-1
 512 640 l 1,28,-1
 512 512 l 1,29,-1
 512 384 l 1,30,-1
 384 384 l 1,31,-1
 384 512 l 1,26,-1
768 384 m 1,32,-1
 768 256 l 1,33,-1
 640 256 l 1,34,-1
 512 256 l 1,35,-1
 512 384 l 1,36,-1
 640 384 l 1,37,-1
 768 384 l 1,32,-1
768 512 m 1,38,-1
 768 640 l 1,39,-1
 896 640 l 1,40,-1
 896 512 l 1,41,-1
 896 384 l 1,42,-1
 768 384 l 1,43,-1
 768 512 l 1,38,-1
EndSplineSet
EndChar

StartChar: wa
Encoding: 55 2357 52
Width: 640
GlyphClass: 1
Flags: W
AnchorPoint: "nukta" 128 128 basechar 0
AnchorPoint: "rakar" 384 256 basechar 0
AnchorPoint: "mark_down" 384 128 basechar 0
AnchorPoint: "mark_up" 384 1024 basechar 0
LayerCount: 2
Fore
SplineSet
384 384 m 1,0,-1
 384 640 l 1,1,-1
 128 640 l 1,2,-1
 128 768 l 1,3,-1
 384 768 l 1,4,-1
 384 896 l 1,5,-1
 -128 896 l 1,6,-1
 -128 1024 l 1,7,-1
 256 1024 l 1,8,-1
 384 1024 l 1,9,-1
 640 1024 l 1,10,-1
 640 896 l 1,11,-1
 512 896 l 1,12,-1
 512 128 l 1,13,-1
 384 128 l 1,14,-1
 384 256 l 1,15,-1
 128 256 l 1,16,-1
 128 384 l 1,17,-1
 384 384 l 1,0,-1
0 384 m 1,18,-1
 0 640 l 1,19,-1
 128 640 l 1,20,-1
 128 384 l 1,21,-1
 0 384 l 1,18,-1
EndSplineSet
EndChar

StartChar: Sa
Encoding: 56 2358 53
Width: 768
GlyphClass: 1
Flags: W
AnchorPoint: "nukta" 0 128 basechar 0
AnchorPoint: "mark_down" 512 128 basechar 0
AnchorPoint: "mark_up" 512 1024 basechar 0
LayerCount: 2
Fore
SplineSet
512 896 m 1,0,-1
 384 896 l 1,1,-1
 384 1024 l 1,2,-1
 768 1024 l 1,3,-1
 768 896 l 1,4,-1
 640 896 l 1,5,-1
 640 640 l 1,6,-1
 640 128 l 1,7,-1
 512 128 l 1,8,-1
 512 896 l 1,0,-1
256 640 m 1,9,-1
 256 896 l 1,10,-1
 384 896 l 1,11,-1
 384 640 l 1,12,-1
 256 640 l 1,9,-1
0 896 m 1,13,-1
 -128 896 l 1,14,-1
 -128 1024 l 1,15,-1
 0 1024 l 1,16,-1
 0 896 l 1,13,-1
0 1024 m 1,17,-1
 0 1152 l 1,18,-1
 128 1152 l 1,19,-1
 128 1024 l 1,20,-1
 0 1024 l 1,17,-1
128 896 m 1,21,-1
 128 768 l 1,22,-1
 0 768 l 1,23,-1
 0 896 l 1,24,-1
 128 896 l 1,21,-1
128 512 m 1,25,-1
 128 384 l 1,26,-1
 0 384 l 1,27,-1
 0 512 l 1,28,-1
 128 512 l 1,25,-1
256 896 m 1,29,-1
 128 896 l 1,30,-1
 128 1024 l 1,31,-1
 256 1024 l 1,32,-1
 256 896 l 1,29,-1
128 640 m 1,33,-1
 256 640 l 1,34,-1
 256 512 l 1,35,-1
 128 512 l 1,36,-1
 128 640 l 1,33,-1
128 384 m 1,37,-1
 256 384 l 1,38,-1
 256 256 l 1,39,-1
 128 256 l 1,40,-1
 128 384 l 1,37,-1
256 128 m 1,41,-1
 256 256 l 1,42,-1
 384 256 l 1,43,-1
 384 128 l 1,44,-1
 256 128 l 1,41,-1
EndSplineSet
EndChar

StartChar: za
Encoding: 57 2359 54
Width: 768
GlyphClass: 1
Flags: W
AnchorPoint: "nukta" 256 256 basechar 0
AnchorPoint: "rakar" 512 384 basechar 0
AnchorPoint: "mark_down" 512 128 basechar 0
AnchorPoint: "mark_up" 512 1024 basechar 0
LayerCount: 2
Fore
SplineSet
-128 896 m 1025,0,-1
0 896 m 1025,1,-1
-128 896 m 1,2,-1
 -128 1024 l 1,3,-1
 0 1024 l 1,4,-1
 0 896 l 1,5,-1
 -128 896 l 1,2,-1
640 128 m 1,6,-1
 512 128 l 1,7,-1
 512 640 l 1,8,-1
 384 640 l 1,9,-1
 384 768 l 1,10,-1
 512 768 l 1,11,-1
 512 896 l 1,12,-1
 384 896 l 1,13,-1
 384 768 l 1,14,-1
 256 768 l 1,15,-1
 256 896 l 1,16,-1
 128 896 l 1,17,-1
 128 768 l 1,18,-1
 128 640 l 1,19,-1
 0 640 l 1,20,-1
 0 768 l 1,21,-1
 0 1024 l 1,22,-1
 512 1024 l 1,23,-1
 768 1024 l 1,24,-1
 768 896 l 1,25,-1
 640 896 l 1,26,-1
 640 640 l 1,27,-1
 640 128 l 1,6,-1
256 512 m 1,28,-1
 128 512 l 1,29,-1
 128 640 l 1,30,-1
 256 640 l 1,31,-1
 384 640 l 1,32,-1
 384 512 l 1,33,-1
 256 512 l 1,28,-1
EndSplineSet
EndChar

StartChar: sa
Encoding: 58 2360 55
Width: 896
GlyphClass: 1
Flags: W
AnchorPoint: "nukta" 0 128 basechar 0
AnchorPoint: "rakar" 768 128 basechar 0
AnchorPoint: "mark_down" 512 128 basechar 0
AnchorPoint: "mark_up" 640 1024 basechar 0
LayerCount: 2
Fore
SplineSet
384 512 m 1,0,-1
 128 512 l 1,1,-1
 128 640 l 1,2,-1
 256 640 l 1,3,-1
 256 896 l 1,4,-1
 -128 896 l 5,5,-1
 -128 1024 l 1,6,-1
 896 1024 l 1,7,-1
 896 896 l 1,8,-1
 768 896 l 1,9,-1
 768 128 l 1,10,-1
 640 128 l 1,11,-1
 640 384 l 1,12,-1
 384 384 l 1,13,-1
 384 512 l 1,14,-1
 640 512 l 1,15,-1
 640 896 l 1,16,-1
 384 896 l 1,17,-1
 384 512 l 1,0,-1
128 512 m 1,18,-1
 128 384 l 1,19,-1
 0 384 l 1,20,-1
 0 512 l 1,21,-1
 128 512 l 1,18,-1
128 256 m 1,22,-1
 128 384 l 1,23,-1
 256 384 l 1,24,-1
 256 256 l 1,25,-1
 128 256 l 1,22,-1
256 256 m 1,26,-1
 384 256 l 1,27,-1
 384 128 l 1,28,-1
 256 128 l 1,29,-1
 256 256 l 1,26,-1
EndSplineSet
EndChar

StartChar: ha
Encoding: 59 2361 56
Width: 640
GlyphClass: 1
Flags: W
AnchorPoint: "nukta" 256 -128 basechar 0
AnchorPoint: "rakar" 384 0 basechar 0
AnchorPoint: "mark_down" 384 0 basechar 0
AnchorPoint: "mark_up" 256 1024 basechar 0
LayerCount: 2
Fore
SplineSet
384 768 m 5,0,-1
 384 640 l 5,1,-1
 128 640 l 5,2,-1
 128 768 l 5,3,-1
 256 768 l 5,4,-1
 256 896 l 5,5,-1
 -128 896 l 5,6,-1
 -128 1024 l 5,7,-1
 256 1024 l 5,8,-1
 640 1024 l 5,9,-1
 640 896 l 5,10,-1
 384 896 l 5,11,-1
 384 768 l 5,0,-1
128 128 m 5,12,-1
 0 128 l 5,13,-1
 0 256 l 5,14,-1
 0 384 l 5,15,-1
 128 384 l 5,16,-1
 128 256 l 5,17,-1
 128 128 l 5,12,-1
256 512 m 5,18,-1
 384 512 l 5,19,-1
 384 384 l 5,20,-1
 256 384 l 5,21,-1
 128 384 l 5,22,-1
 128 512 l 5,23,-1
 256 512 l 5,18,-1
384 128 m 5,24,-1
 384 0 l 5,25,-1
 256 0 l 5,26,-1
 128 0 l 5,27,-1
 128 128 l 5,28,-1
 256 128 l 5,29,-1
 384 128 l 5,24,-1
128 640 m 5,30,-1
 128 512 l 5,31,-1
 0 512 l 5,32,-1
 0 640 l 5,33,-1
 128 640 l 5,30,-1
512 384 m 5,34,-1
 512 256 l 5,35,-1
 384 256 l 5,36,-1
 384 384 l 5,37,-1
 512 384 l 5,34,-1
EndSplineSet
EndChar

StartChar: nukta
Encoding: 60 2364 57
Width: 0
GlyphClass: 1
Flags: W
AnchorPoint: "nukta" -256 0 mark 0
LayerCount: 2
Fore
SplineSet
-256 -128 m 1024,0,-1
-128 -128 m 1024,1,-1
-256 -128 m 1,2,-1
 -256 0 l 1,3,-1
 -128 0 l 1,4,-1
 -128 -128 l 1,5,-1
 -256 -128 l 1,2,-1
EndSplineSet
EndChar

StartChar: avagraha
Encoding: 61 2365 58
Width: 640
GlyphClass: 1
Flags: W
LayerCount: 2
Fore
SplineSet
128 896 m 1,0,-1
 128 1024 l 1,1,-1
 512 1024 l 1,2,-1
 512 896 l 1,3,-1
 128 896 l 1,0,-1
256 256 m 1,4,-1
 384 256 l 1,5,-1
 384 128 l 1,6,-1
 256 128 l 1,7,-1
 128 128 l 1,8,-1
 128 256 l 1,9,-1
 256 256 l 1,4,-1
384 384 m 1,10,-1
 384 512 l 1,11,-1
 512 512 l 1,12,-1
 512 384 l 1,13,-1
 512 256 l 1,14,-1
 384 256 l 1,15,-1
 384 384 l 1,10,-1
0 768 m 1,16,-1
 0 896 l 1,17,-1
 128 896 l 1,18,-1
 128 768 l 1,19,-1
 0 768 l 1,16,-1
128 256 m 1,20,-1
 0 256 l 1,21,-1
 0 384 l 1,22,-1
 128 384 l 1,23,-1
 128 256 l 1,20,-1
128 768 m 1,24,-1
 256 768 l 1,25,-1
 256 640 l 1,26,-1
 128 640 l 1,27,-1
 128 768 l 1,24,-1
256 640 m 1,28,-1
 384 640 l 1,29,-1
 384 512 l 1,30,-1
 256 512 l 1,31,-1
 256 640 l 1,28,-1
EndSplineSet
EndChar

StartChar: dv_aa
Encoding: 62 2366 59
Width: 256
GlyphClass: 1
Flags: W
AnchorPoint: "mark_up" 0 1024 basechar 0
LayerCount: 2
Fore
SplineSet
128 896 m 1025,0,-1
256 896 m 1025,1,-1
128 896 m 1,2,-1
 128 1024 l 1,3,-1
 256 1024 l 1,4,-1
 256 896 l 1,5,-1
 128 896 l 1,2,-1
-128 896 m 1,6,-1
 -128 1024 l 1,7,-1
 0 1024 l 1,8,-1
 128 1024 l 1,9,-1
 128 896 l 1,10,-1
 128 768 l 1,11,-1
 128 640 l 1,12,-1
 128 512 l 1,13,-1
 128 384 l 1,14,-1
 128 256 l 1,15,-1
 128 128 l 1,16,-1
 0 128 l 1,17,-1
 0 256 l 1,18,-1
 0 384 l 1,19,-1
 0 512 l 1,20,-1
 0 640 l 1,21,-1
 0 768 l 1,22,-1
 0 896 l 1,23,-1
 -128 896 l 1,6,-1
EndSplineSet
EndChar

StartChar: short_i
Encoding: 63 2367 60
Width: 256
GlyphClass: 1
Flags: W
LayerCount: 2
Fore
SplineSet
128 512 m 5,0,-1
 128 128 l 5,1,-1
 0 128 l 5,2,-1
 0 384 l 5,3,-1
 0 896 l 5,4,-1
 -128 896 l 5,5,-1
 -128 1024 l 5,6,-1
 0 1024 l 5,7,-1
 0 1280 l 5,8,-1
 128 1280 l 5,9,-1
 128 1024 l 5,10,-1
 256 1024 l 5,11,-1
 256 896 l 5,12,-1
 128 896 l 5,13,-1
 128 512 l 5,0,-1
640 1280 m 5,14,-1
 128 1280 l 5,15,-1
 128 1408 l 5,16,-1
 640 1408 l 5,17,-1
 640 1280 l 5,14,-1
640 1280 m 5,18,-1
 768 1280 l 5,19,-1
 768 1152 l 5,20,-1
 640 1152 l 5,21,-1
 640 1280 l 5,18,-1
896 1152 m 5,22,-1
 896 1024 l 5,23,-1
 768 1024 l 5,24,-1
 768 1152 l 5,25,-1
 896 1152 l 5,22,-1
EndSplineSet
Substitution2: "Single Substitution lookup 17 subtable" short_i_ten
Substitution2: "Single Substitution lookup 16 subtable" short_i_nine
Substitution2: "Single Substitution lookup 15 subtable" short_i_eight
Substitution2: "Single Substitution lookup 14 subtable" short_i_seven
Substitution2: "Single Substitution lookup 13 subtable" short_i_six
Substitution2: "Single Substitution lookup 12 subtable" short_i_five
Substitution2: "Single Substitution lookup 11 subtable" short_i_four
Substitution2: "Single Substitution lookup 10 subtable" short_i_three
EndChar

StartChar: long_i
Encoding: 64 2368 61
Width: 256
GlyphClass: 1
Flags: W
LayerCount: 2
Fore
SplineSet
0 640 m 1,0,-1
 0 896 l 1,1,-1
 -256 896 l 5,2,-1
 -256 1152 l 1,3,-1
 -128 1152 l 1,4,-1
 -128 1024 l 1,5,-1
 0 1024 l 1,6,-1
 0 1280 l 1,7,-1
 128 1280 l 1,8,-1
 128 1152 l 1,9,-1
 128 1024 l 1,10,-1
 256 1024 l 1,11,-1
 256 896 l 1,12,-1
 128 896 l 1,13,-1
 128 640 l 1,14,-1
 128 384 l 1,15,-1
 128 128 l 1,16,-1
 0 128 l 1,17,-1
 0 640 l 1,0,-1
0 1408 m 1,18,-1
 0 1280 l 1,19,-1
 -128 1280 l 1,20,-1
 -256 1280 l 1,21,-1
 -256 1408 l 1,22,-1
 -128 1408 l 1,23,-1
 0 1408 l 1,18,-1
-256 1152 m 1,24,-1
 -384 1152 l 1,25,-1
 -384 1280 l 1,26,-1
 -256 1280 l 1,27,-1
 -256 1152 l 1,24,-1
EndSplineSet
Substitution2: "Single Substitution lookup 29 subtable" long_i_five
Substitution2: "Single Substitution lookup 28 subtable" long_i_four
Substitution2: "Single Substitution lookup 27 subtable" long_i_three
EndChar

StartChar: dv_u
Encoding: 65 2369 62
Width: 0
GlyphClass: 1
Flags: W
AnchorPoint: "mark_down" -384 128 mark 0
LayerCount: 2
Fore
SplineSet
-640 0 m 1,0,-1
 -640 128 l 1,1,-1
 -512 128 l 1,2,-1
 -512 0 l 1,3,-1
 -640 0 l 1,0,-1
-512 -128 m 1,4,-1
 -512 0 l 1,5,-1
 -384 0 l 1,6,-1
 -384 -128 l 1,7,-1
 -512 -128 l 1,4,-1
-384 -256 m 1,8,-1
 -384 -128 l 1,9,-1
 -256 -128 l 1,10,-1
 -128 -128 l 1,11,-1
 -128 -256 l 1,12,-1
 -256 -256 l 1,13,-1
 -384 -256 l 1,8,-1
-256 0 m 1,14,-1
 -256 128 l 1,15,-1
 -128 128 l 1,16,-1
 -128 0 l 1,17,-1
 -256 0 l 1,14,-1
-128 -128 m 1,18,-1
 -128 0 l 1,19,-1
 0 0 l 1,20,-1
 0 -128 l 1,21,-1
 -128 -128 l 1,18,-1
EndSplineSet
EndChar

StartChar: dv_uu
Encoding: 66 2370 63
Width: 0
GlyphClass: 1
Flags: W
AnchorPoint: "mark_down" -384 128 mark 0
LayerCount: 2
Fore
SplineSet
-640 -128 m 1,0,-1
 -640 0 l 1,1,-1
 -512 0 l 1,2,-1
 -512 -128 l 1,3,-1
 -640 -128 l 1,0,-1
-512 -256 m 1,4,-1
 -512 -128 l 1,5,-1
 -384 -128 l 1,6,-1
 -384 -256 l 1,7,-1
 -512 -256 l 1,4,-1
-512 0 m 1,8,-1
 -512 128 l 1,9,-1
 -384 128 l 1,10,-1
 -256 128 l 1,11,-1
 -256 0 l 1,12,-1
 -384 0 l 1,13,-1
 -512 0 l 1,8,-1
-256 -128 m 1,14,-1
 -256 0 l 1,15,-1
 -128 0 l 1,16,-1
 -128 -128 l 1,17,-1
 -256 -128 l 1,14,-1
-128 -256 m 1,18,-1
 -128 -128 l 1,19,-1
 0 -128 l 1,20,-1
 0 -256 l 1,21,-1
 -128 -256 l 1,18,-1
EndSplineSet
EndChar

StartChar: dv_r
Encoding: 67 2371 64
Width: 0
GlyphClass: 1
Flags: W
AnchorPoint: "mark_down" -128 256 mark 0
LayerCount: 2
Fore
SplineSet
-256 0 m 1,0,-1
 -256 128 l 1,1,-1
 -128 128 l 1,2,-1
 -128 0 l 1,3,-1
 -256 0 l 1,0,-1
-128 -128 m 1,4,-1
 -128 0 l 1,5,-1
 0 0 l 1,6,-1
 0 -128 l 1,7,-1
 -128 -128 l 1,4,-1
-128 128 m 1,8,-1
 -128 256 l 1,9,-1
 0 256 l 1,10,-1
 0 128 l 1,11,-1
 -128 128 l 1,8,-1
EndSplineSet
Substitution2: "CONTEXTUAL_matra_vocalic_liquid_to_reph subtable" reph
EndChar

StartChar: dv_rr
Encoding: 68 2372 65
Width: 0
GlyphClass: 1
Flags: W
AnchorPoint: "mark_down" -256 256 mark 0
LayerCount: 2
Fore
SplineSet
-384 -256 m 1,0,-1
 -384 -128 l 1,1,-1
 -256 -128 l 1,2,-1
 -256 -256 l 1,3,-1
 -384 -256 l 1,0,-1
-384 0 m 1,4,-1
 -384 128 l 1,5,-1
 -256 128 l 1,6,-1
 -256 0 l 1,7,-1
 -384 0 l 1,4,-1
-256 -384 m 1,8,-1
 -256 -256 l 1,9,-1
 -128 -256 l 1,10,-1
 0 -256 l 1,11,-1
 0 -384 l 1,12,-1
 -128 -384 l 1,13,-1
 -256 -384 l 1,8,-1
-256 -128 m 1,14,-1
 -256 0 l 1,15,-1
 -128 0 l 1,16,-1
 -128 -128 l 1,17,-1
 -256 -128 l 1,14,-1
-256 128 m 1,18,-1
 -256 256 l 1,19,-1
 -128 256 l 1,20,-1
 -128 128 l 1,21,-1
 -256 128 l 1,18,-1
EndSplineSet
Substitution2: "CONTEXTUAL_matra_vocalic_liquid_to_reph subtable" reph
EndChar

StartChar: dv_e_candra
Encoding: 69 2373 66
Width: 0
GlyphClass: 1
Flags: W
AnchorPoint: "mark_up" -256 1024 mark 0
LayerCount: 2
Fore
SplineSet
-512 1408 m 1,0,-1
 -384 1408 l 1,1,-1
 -384 1280 l 1,2,-1
 -512 1280 l 1,3,-1
 -512 1408 l 1,0,-1
-128 1408 m 1,4,-1
 0 1408 l 1,5,-1
 0 1280 l 1,6,-1
 -128 1280 l 1,7,-1
 -128 1408 l 1,4,-1
-384 1280 m 1,8,-1
 -128 1280 l 1,9,-1
 -128 1152 l 1,10,-1
 -384 1152 l 1,11,-1
 -384 1280 l 1,8,-1
EndSplineSet
EndChar

StartChar: dv_e_short
Encoding: 70 2374 67
Width: 0
GlyphClass: 1
Flags: W
AnchorPoint: "mark_up" -256 1024 mark 0
LayerCount: 2
Fore
SplineSet
-512 1408 m 1,0,-1
 -512 1536 l 1,1,-1
 -384 1536 l 1,2,-1
 -384 1408 l 1,3,-1
 -512 1408 l 1,0,-1
-384 1280 m 1,4,-1
 -384 1408 l 1,5,-1
 -256 1408 l 1,6,-1
 -128 1408 l 1,7,-1
 -128 1280 l 1,8,-1
 -256 1280 l 1,9,-1
 -384 1280 l 1,4,-1
-256 1024 m 1,10,-1
 -256 1152 l 1,11,-1
 -128 1152 l 1,12,-1
 -128 1024 l 1,13,-1
 -256 1024 l 1,10,-1
-128 1152 m 1,14,-1
 -128 1280 l 1,15,-1
 0 1280 l 1,16,-1
 0 1152 l 1,17,-1
 -128 1152 l 1,14,-1
EndSplineSet
EndChar

StartChar: dv_e
Encoding: 71 2375 68
Width: 0
GlyphClass: 1
Flags: W
AnchorPoint: "mark_up" -128 1024 mark 0
LayerCount: 2
Fore
SplineSet
-384 1280 m 5,0,-1
 -384 1408 l 5,1,-1
 -256 1408 l 5,2,-1
 -256 1280 l 5,3,-1
 -384 1280 l 5,0,-1
-256 1152 m 5,4,-1
 -256 1280 l 5,5,-1
 -128 1280 l 5,6,-1
 -128 1152 l 5,7,-1
 -256 1152 l 5,4,-1
-128 1024 m 5,8,-1
 -128 1152 l 5,9,-1
 0 1152 l 5,10,-1
 0 1024 l 5,11,-1
 -128 1024 l 5,8,-1
EndSplineSet
EndChar

StartChar: dv_ai
Encoding: 72 2376 69
Width: 0
GlyphClass: 1
Flags: W
AnchorPoint: "mark_up" -256 1024 mark 0
LayerCount: 2
Fore
SplineSet
-512 1280 m 1,0,-1
 -512 1408 l 1,1,-1
 -384 1408 l 1,2,-1
 -384 1280 l 1,3,-1
 -512 1280 l 1,0,-1
-384 1152 m 1,4,-1
 -384 1280 l 1,5,-1
 -256 1280 l 1,6,-1
 -256 1152 l 1,7,-1
 -384 1152 l 1,4,-1
-256 1024 m 1,8,-1
 -256 1152 l 1,9,-1
 -128 1152 l 1,10,-1
 -128 1024 l 1,11,-1
 -256 1024 l 1,8,-1
-256 1408 m 1,12,-1
 -256 1536 l 1,13,-1
 -128 1536 l 1,14,-1
 -128 1408 l 1,15,-1
 -256 1408 l 1,12,-1
-128 1152 m 1,16,-1
 -128 1280 l 1,17,-1
 -128 1408 l 1,18,-1
 0 1408 l 1,19,-1
 0 1280 l 1,20,-1
 0 1152 l 1,21,-1
 -128 1152 l 1,16,-1
EndSplineSet
EndChar

StartChar: dv_o_candra
Encoding: 73 2377 70
Width: 256
GlyphClass: 1
Flags: W
LayerCount: 2
Fore
SplineSet
128 896 m 1025,0,-1
256 896 m 1025,1,-1
128 896 m 1,2,-1
 128 1024 l 1,3,-1
 256 1024 l 1,4,-1
 256 896 l 1,5,-1
 128 896 l 1,2,-1
-256 1408 m 1,6,-1
 -128 1408 l 1,7,-1
 -128 1280 l 1,8,-1
 -256 1280 l 1,9,-1
 -256 1408 l 1,6,-1
128 1408 m 1,10,-1
 256 1408 l 1,11,-1
 256 1280 l 1,12,-1
 128 1280 l 1,13,-1
 128 1408 l 1,10,-1
-128 1280 m 1,14,-1
 128 1280 l 1,15,-1
 128 1152 l 1,16,-1
 -128 1152 l 1,17,-1
 -128 1280 l 1,14,-1
-128 896 m 1,18,-1
 -128 1024 l 1,19,-1
 0 1024 l 1,20,-1
 128 1024 l 1,21,-1
 128 896 l 1,22,-1
 128 768 l 1,23,-1
 128 640 l 1,24,-1
 128 512 l 1,25,-1
 128 384 l 1,26,-1
 128 256 l 1,27,-1
 128 128 l 1,28,-1
 0 128 l 1,29,-1
 0 256 l 1,30,-1
 0 384 l 1,31,-1
 0 512 l 1,32,-1
 0 640 l 1,33,-1
 0 768 l 1,34,-1
 0 896 l 1,35,-1
 -128 896 l 1,18,-1
EndSplineSet
EndChar

StartChar: dv_o_short
Encoding: 74 2378 71
Width: 256
GlyphClass: 1
Flags: W
LayerCount: 2
Fore
SplineSet
128 896 m 1029,0,-1
256 896 m 1029,1,-1
128 896 m 5,2,-1
 128 1024 l 5,3,-1
 256 1024 l 5,4,-1
 256 896 l 5,5,-1
 128 896 l 5,2,-1
-256 1408 m 1,6,-1
 -256 1536 l 1,7,-1
 -128 1536 l 1,8,-1
 -128 1408 l 1,9,-1
 -256 1408 l 1,6,-1
-128 1280 m 1,10,-1
 -128 1408 l 1,11,-1
 0 1408 l 1,12,-1
 128 1408 l 1,13,-1
 128 1280 l 1,14,-1
 0 1280 l 1,15,-1
 -128 1280 l 1,10,-1
0 1024 m 1,16,-1
 0 1152 l 1,17,-1
 128 1152 l 1,18,-1
 128 1024 l 1,19,-1
 0 1024 l 1,16,-1
128 1152 m 1,20,-1
 128 1280 l 1,21,-1
 256 1280 l 1,22,-1
 256 1152 l 1,23,-1
 128 1152 l 1,20,-1
-128 896 m 1,24,-1
 -128 1024 l 1,25,-1
 0 1024 l 1,26,-1
 128 1024 l 1,27,-1
 128 896 l 1,28,-1
 128 768 l 1,29,-1
 128 640 l 1,30,-1
 128 512 l 1,31,-1
 128 384 l 1,32,-1
 128 256 l 1,33,-1
 128 128 l 1,34,-1
 0 128 l 1,35,-1
 0 256 l 1,36,-1
 0 384 l 1,37,-1
 0 512 l 1,38,-1
 0 640 l 1,39,-1
 0 768 l 1,40,-1
 0 896 l 1,41,-1
 -128 896 l 1,24,-1
EndSplineSet
EndChar

StartChar: dv_o
Encoding: 75 2379 72
Width: 256
GlyphClass: 1
Flags: W
LayerCount: 2
Fore
SplineSet
128 896 m 1029,0,-1
256 896 m 1029,1,-1
128 896 m 5,2,-1
 128 1024 l 5,3,-1
 256 1024 l 5,4,-1
 256 896 l 5,5,-1
 128 896 l 5,2,-1
-256 1280 m 1,6,-1
 -256 1408 l 1,7,-1
 -128 1408 l 1,8,-1
 -128 1280 l 1,9,-1
 -256 1280 l 1,6,-1
-128 1152 m 1,10,-1
 -128 1280 l 1,11,-1
 0 1280 l 1,12,-1
 0 1152 l 1,13,-1
 -128 1152 l 1,10,-1
0 1024 m 1,14,-1
 0 1152 l 1,15,-1
 128 1152 l 1,16,-1
 128 1024 l 1,17,-1
 0 1024 l 1,14,-1
-128 896 m 1,18,-1
 -128 1024 l 1,19,-1
 0 1024 l 1,20,-1
 128 1024 l 1,21,-1
 128 896 l 1,22,-1
 128 768 l 1,23,-1
 128 640 l 1,24,-1
 128 512 l 1,25,-1
 128 384 l 1,26,-1
 128 256 l 1,27,-1
 128 128 l 1,28,-1
 0 128 l 1,29,-1
 0 256 l 1,30,-1
 0 384 l 1,31,-1
 0 512 l 1,32,-1
 0 640 l 1,33,-1
 0 768 l 1,34,-1
 0 896 l 1,35,-1
 -128 896 l 1,18,-1
EndSplineSet
EndChar

StartChar: dv_au
Encoding: 76 2380 73
Width: 256
GlyphClass: 1
Flags: W
LayerCount: 2
Fore
SplineSet
128 896 m 1029,0,-1
256 896 m 1029,1,-1
128 896 m 5,2,-1
 128 1024 l 5,3,-1
 256 1024 l 5,4,-1
 256 896 l 5,5,-1
 128 896 l 5,2,-1
-256 1280 m 1,6,-1
 -256 1408 l 1,7,-1
 -128 1408 l 1,8,-1
 -128 1280 l 1,9,-1
 -256 1280 l 1,6,-1
-128 1152 m 1,10,-1
 -128 1280 l 1,11,-1
 0 1280 l 1,12,-1
 0 1152 l 1,13,-1
 -128 1152 l 1,10,-1
0 1024 m 1,14,-1
 0 1152 l 1,15,-1
 128 1152 l 1,16,-1
 128 1024 l 1,17,-1
 0 1024 l 1,14,-1
0 1408 m 1,18,-1
 0 1536 l 1,19,-1
 128 1536 l 1,20,-1
 128 1408 l 1,21,-1
 0 1408 l 1,18,-1
128 1152 m 1,22,-1
 128 1280 l 1,23,-1
 128 1408 l 1,24,-1
 256 1408 l 1,25,-1
 256 1280 l 1,26,-1
 256 1152 l 1,27,-1
 128 1152 l 1,22,-1
-128 896 m 1,28,-1
 -128 1024 l 1,29,-1
 0 1024 l 1,30,-1
 128 1024 l 1,31,-1
 128 896 l 1,32,-1
 128 768 l 1,33,-1
 128 640 l 1,34,-1
 128 512 l 1,35,-1
 128 384 l 1,36,-1
 128 256 l 1,37,-1
 128 128 l 1,38,-1
 0 128 l 1,39,-1
 0 256 l 1,40,-1
 0 384 l 1,41,-1
 0 512 l 1,42,-1
 0 640 l 1,43,-1
 0 768 l 1,44,-1
 0 896 l 1,45,-1
 -128 896 l 1,28,-1
EndSplineSet
EndChar

StartChar: virama
Encoding: 77 2381 74
Width: 0
GlyphClass: 1
Flags: W
AnchorPoint: "mark_down" -384 128 mark 0
LayerCount: 2
Fore
SplineSet
-256 0 m 1,0,-1
 -256 128 l 1,1,-1
 -128 128 l 1,2,-1
 -128 0 l 1,3,-1
 -256 0 l 1,0,-1
-128 -128 m 1,4,-1
 -128 0 l 1,5,-1
 0 0 l 1,6,-1
 0 -128 l 1,7,-1
 -128 -128 l 1,4,-1
EndSplineSet
EndChar

StartChar: uni0951
Encoding: -1 2384 75
Width: 1152
GlyphClass: 1
Flags: W
LayerCount: 2
Fore
SplineSet
0 128 m 1,0,-1
 0 256 l 1,1,-1
 128 256 l 1,2,-1
 128 128 l 1,3,-1
 0 128 l 1,0,-1
0 640 m 1,4,-1
 0 768 l 1,5,-1
 128 768 l 1,6,-1
 128 640 l 1,7,-1
 0 640 l 1,4,-1
128 0 m 1,8,-1
 128 128 l 1,9,-1
 256 128 l 1,10,-1
 384 128 l 1,11,-1
 384 0 l 1,12,-1
 256 0 l 1,13,-1
 128 0 l 1,8,-1
128 768 m 1,14,-1
 128 896 l 1,15,-1
 256 896 l 1,16,-1
 384 896 l 1,17,-1
 384 768 l 1,18,-1
 256 768 l 1,19,-1
 128 768 l 1,14,-1
256 384 m 1,20,-1
 256 512 l 1,21,-1
 384 512 l 1,22,-1
 384 384 l 1,23,-1
 256 384 l 1,20,-1
384 128 m 1,24,-1
 384 256 l 1,25,-1
 384 384 l 1,26,-1
 512 384 l 1,27,-1
 640 384 l 1,28,-1
 640 256 l 1,29,-1
 512 256 l 1,30,-1
 512 128 l 1,31,-1
 384 128 l 1,24,-1
384 512 m 1,32,-1
 384 640 l 1,33,-1
 384 768 l 1,34,-1
 512 768 l 1,35,-1
 512 640 l 1,36,-1
 512 512 l 1,37,-1
 384 512 l 1,32,-1
640 0 m 1,38,-1
 640 128 l 1,39,-1
 768 128 l 1,40,-1
 768 0 l 1,41,-1
 640 0 l 1,38,-1
640 384 m 1,42,-1
 640 512 l 1,43,-1
 768 512 l 1,44,-1
 768 384 l 1,45,-1
 640 384 l 1,42,-1
640 768 m 1,46,-1
 640 896 l 1,47,-1
 768 896 l 1,48,-1
 768 768 l 1,49,-1
 640 768 l 1,46,-1
768 128 m 1,50,-1
 768 256 l 1,51,-1
 768 384 l 1,52,-1
 896 384 l 1,53,-1
 896 256 l 1,54,-1
 896 128 l 1,55,-1
 768 128 l 1,50,-1
768 640 m 1,56,-1
 768 768 l 1,57,-1
 896 768 l 1,58,-1
 896 640 l 1,59,-1
 768 640 l 1,56,-1
768 1024 m 1,60,-1
 768 1152 l 1,61,-1
 896 1152 l 1,62,-1
 896 1024 l 1,63,-1
 768 1024 l 1,60,-1
896 768 m 1,64,-1
 896 896 l 1,65,-1
 1024 896 l 1,66,-1
 1024 768 l 1,67,-1
 896 768 l 1,64,-1
EndSplineSet
Validated: 5
EndChar

StartChar: dv_om
Encoding: 78 2384 76
Width: 1152
GlyphClass: 1
Flags: W
LayerCount: 2
Fore
SplineSet
640 512 m 1,0,-1
 640 384 l 1,1,-1
 512 384 l 1,2,-1
 512 256 l 1,3,-1
 384 256 l 1,4,-1
 384 512 l 1,5,-1
 640 512 l 1,0,-1
256 896 m 1,6,-1
 128 896 l 1,7,-1
 128 1024 l 1,8,-1
 256 1024 l 1,9,-1
 384 1024 l 1,10,-1
 384 896 l 1,11,-1
 256 896 l 1,6,-1
256 256 m 1,12,-1
 384 256 l 1,13,-1
 384 128 l 1,14,-1
 256 128 l 1,15,-1
 128 128 l 1,16,-1
 128 256 l 1,17,-1
 256 256 l 1,12,-1
384 640 m 1,18,-1
 384 896 l 1,19,-1
 512 896 l 1,20,-1
 512 640 l 1,21,-1
 384 640 l 1,18,-1
640 512 m 1,22,-1
 640 640 l 1,23,-1
 768 640 l 1,24,-1
 896 640 l 1,25,-1
 896 512 l 1,26,-1
 768 512 l 1,27,-1
 640 512 l 1,22,-1
896 256 m 1,28,-1
 896 128 l 1,29,-1
 768 128 l 1,30,-1
 640 128 l 1,31,-1
 640 256 l 1,32,-1
 768 256 l 1,33,-1
 896 256 l 1,28,-1
1024 384 m 1,34,-1
 1024 256 l 1,35,-1
 896 256 l 1,36,-1
 896 384 l 1,37,-1
 896 512 l 1,38,-1
 1024 512 l 1,39,-1
 1024 384 l 1,34,-1
0 768 m 1,40,-1
 0 896 l 1,41,-1
 128 896 l 1,42,-1
 128 768 l 1,43,-1
 0 768 l 1,40,-1
128 256 m 1,44,-1
 0 256 l 1,45,-1
 0 384 l 1,46,-1
 128 384 l 1,47,-1
 128 256 l 1,44,-1
256 640 m 1,48,-1
 384 640 l 1,49,-1
 384 512 l 1,50,-1
 256 512 l 1,51,-1
 256 640 l 1,48,-1
512 1152 m 1,52,-1
 640 1152 l 1,53,-1
 640 1024 l 1,54,-1
 512 1024 l 1,55,-1
 512 1152 l 1,52,-1
896 1024 m 1,56,-1
 896 896 l 1,57,-1
 640 896 l 1,58,-1
 640 1024 l 1,59,-1
 896 1024 l 1,56,-1
1024 1152 m 1,60,-1
 1024 1024 l 1,61,-1
 896 1024 l 1,62,-1
 896 1152 l 1,63,-1
 1024 1152 l 1,60,-1
EndSplineSet
EndChar

StartChar: dv_vowel_rr
Encoding: 88 2400 77
Width: 1152
GlyphClass: 1
Flags: W
AnchorPoint: "mark_up" 384 1024 basechar 0
LayerCount: 2
Fore
SplineSet
1024 896 m 1025,0,-1
1152 896 m 1025,1,-1
1024 896 m 1,2,-1
 1024 1024 l 1,3,-1
 1152 1024 l 1,4,-1
 1152 896 l 1,5,-1
 1024 896 l 1,2,-1
0 256 m 1,6,-1
 0 384 l 1,7,-1
 128 384 l 1,8,-1
 128 256 l 1,9,-1
 0 256 l 1,6,-1
0 640 m 1,10,-1
 0 768 l 1,11,-1
 128 768 l 1,12,-1
 256 768 l 1,13,-1
 256 640 l 1,14,-1
 128 640 l 1,15,-1
 0 640 l 1,10,-1
-128 896 m 5,16,-1
 -128 1024 l 1,17,-1
 128 1024 l 1,18,-1
 256 1024 l 1,19,-1
 384 1024 l 1,20,-1
 512 1024 l 1,21,-1
 640 1024 l 1,22,-1
 768 1024 l 1,23,-1
 896 1024 l 1,24,-1
 1024 1024 l 1,25,-1
 1024 896 l 1,26,-1
 896 896 l 1,27,-1
 768 896 l 1,28,-1
 640 896 l 1,29,-1
 512 896 l 1,30,-1
 512 768 l 1,31,-1
 512 640 l 1,32,-1
 640 640 l 1,33,-1
 640 512 l 1,34,-1
 512 512 l 1,35,-1
 512 384 l 1,36,-1
 512 256 l 1,37,-1
 512 128 l 1,38,-1
 384 128 l 1,39,-1
 384 256 l 1,40,-1
 384 384 l 1,41,-1
 384 512 l 1,42,-1
 256 512 l 1,43,-1
 256 640 l 1,44,-1
 384 640 l 1,45,-1
 384 768 l 1,46,-1
 384 896 l 1,47,-1
 256 896 l 1,48,-1
 128 896 l 1,49,-1
 -128 896 l 5,16,-1
128 384 m 1,50,-1
 128 512 l 1,51,-1
 256 512 l 1,52,-1
 256 384 l 1,53,-1
 128 384 l 1,50,-1
640 0 m 1,54,-1
 640 128 l 1,55,-1
 768 128 l 1,56,-1
 768 0 l 1,57,-1
 640 0 l 1,54,-1
640 256 m 1,58,-1
 640 384 l 1,59,-1
 768 384 l 1,60,-1
 768 256 l 1,61,-1
 640 256 l 1,58,-1
640 640 m 1,62,-1
 640 768 l 1,63,-1
 768 768 l 1,64,-1
 768 640 l 1,65,-1
 640 640 l 1,62,-1
768 -128 m 1,66,-1
 768 0 l 1,67,-1
 896 0 l 1,68,-1
 1024 0 l 1,69,-1
 1024 -128 l 1,70,-1
 896 -128 l 1,71,-1
 768 -128 l 1,66,-1
768 128 m 1,72,-1
 768 256 l 1,73,-1
 896 256 l 1,74,-1
 896 128 l 1,75,-1
 768 128 l 1,72,-1
768 384 m 1,76,-1
 768 512 l 1,77,-1
 768 640 l 1,78,-1
 896 640 l 1,79,-1
 896 512 l 1,80,-1
 896 384 l 1,81,-1
 768 384 l 1,76,-1
EndSplineSet
EndChar

StartChar: dv_vowel_ll
Encoding: 89 2401 78
Width: 1152
GlyphClass: 1
Flags: W
AnchorPoint: "mark_up" 640 1024 basechar 0
LayerCount: 2
Fore
SplineSet
1024 896 m 1025,0,-1
1152 896 m 1025,1,-1
1024 896 m 1,2,-1
 1024 1024 l 1,3,-1
 1152 1024 l 1,4,-1
 1152 896 l 1,5,-1
 1024 896 l 1,2,-1
0 384 m 1,6,-1
 0 512 l 1,7,8
 0 512 0 512 0 640 c 1,9,-1
 128 640 l 1,10,-1
 128 512 l 1,11,-1
 128 384 l 1,12,-1
 0 384 l 1,6,-1
-128 896 m 5,13,-1
 -128 1024 l 1,14,-1
 128 1024 l 1,15,-1
 256 1024 l 1,16,-1
 384 1024 l 1,17,-1
 512 1024 l 1,18,-1
 640 1024 l 1,19,-1
 768 1024 l 1,20,-1
 896 1024 l 1,21,-1
 1024 1024 l 1,22,-1
 1024 896 l 1,23,-1
 896 896 l 1,24,-1
 768 896 l 1,25,-1
 768 768 l 1,26,-1
 768 640 l 1,27,-1
 640 640 l 1,28,-1
 512 640 l 1,29,-1
 512 768 l 1,30,-1
 640 768 l 1,31,-1
 640 896 l 1,32,-1
 512 896 l 1,33,-1
 384 896 l 1,34,-1
 256 896 l 1,35,-1
 128 896 l 1,36,-1
 -128 896 l 5,13,-1
128 256 m 1,37,-1
 128 384 l 1,38,-1
 256 384 l 1,39,-1
 256 256 l 1,40,-1
 128 256 l 1,37,-1
128 640 m 1,41,-1
 128 768 l 1,42,-1
 256 768 l 1,43,-1
 384 768 l 1,44,-1
 384 640 l 1,45,-1
 256 640 l 1,46,-1
 128 640 l 1,41,-1
384 512 m 1,47,48
 384 512 384 512 384 640 c 1,49,-1
 512 640 l 1,50,-1
 512 512 l 1,51,-1
 384 512 l 1,47,48
640 128 m 1,52,53
 640 128 640 128 640 256 c 1,54,-1
 768 256 l 1,55,-1
 768 128 l 1,56,-1
 640 128 l 1,52,53
640 384 m 1,57,-1
 640 512 l 1,58,-1
 768 512 l 1,59,-1
 768 384 l 1,60,-1
 640 384 l 1,57,-1
768 0 m 1,61,-1
 768 128 l 1,62,-1
 896 128 l 1,63,-1
 1024 128 l 1,64,-1
 1024 0 l 1,65,-1
 896 0 l 1,66,-1
 768 0 l 1,61,-1
768 256 m 1,67,-1
 768 384 l 1,68,-1
 896 384 l 1,69,-1
 896 256 l 1,70,-1
 768 256 l 1,67,-1
768 512 m 1,71,72
 768 512 768 512 768 640 c 1,73,-1
 896 640 l 1,74,-1
 896 512 l 1,75,-1
 768 512 l 1,71,72
EndSplineSet
EndChar

StartChar: dv_l
Encoding: 90 2402 79
Width: 0
GlyphClass: 1
Flags: W
AnchorPoint: "mark_down" -256 128 mark 0
LayerCount: 2
Fore
SplineSet
-768 -256 m 1,0,-1
 -768 -128 l 1,1,-1
 -640 -128 l 1,2,-1
 -640 -256 l 1,3,-1
 -768 -256 l 1,0,-1
-640 -384 m 1,4,-1
 -640 -256 l 1,5,-1
 -512 -256 l 1,6,-1
 -512 -384 l 1,7,-1
 -640 -384 l 1,4,-1
-640 -128 m 1,8,-1
 -640 0 l 1,9,-1
 -512 0 l 1,10,-1
 -384 0 l 1,11,-1
 -384 -128 l 1,12,-1
 -512 -128 l 1,13,-1
 -640 -128 l 1,8,-1
-384 0 m 1,14,-1
 -384 128 l 1,15,-1
 -256 128 l 1,16,-1
 -128 128 l 1,17,-1
 -128 0 l 1,18,-1
 -256 0 l 1,19,-1
 -384 0 l 1,14,-1
-256 -256 m 1,20,-1
 -256 -128 l 1,21,-1
 -128 -128 l 1,22,-1
 -128 -256 l 1,23,-1
 -256 -256 l 1,20,-1
-128 -384 m 1,24,-1
 -128 -256 l 1,25,-1
 0 -256 l 1,26,-1
 0 -384 l 1,27,-1
 -128 -384 l 1,24,-1
-128 -128 m 1,28,-1
 -128 0 l 1,29,-1
 0 0 l 1,30,-1
 0 -128 l 1,31,-1
 -128 -128 l 1,28,-1
EndSplineSet
Substitution2: "CONTEXTUAL_matra_vocalic_liquid_to_reph subtable" reph
EndChar

StartChar: dv_ll
Encoding: 91 2403 80
Width: 0
GlyphClass: 1
Flags: W
AnchorPoint: "mark_down" -384 128 mark 0
LayerCount: 2
Fore
SplineSet
-896 -256 m 1,0,-1
 -896 -128 l 1,1,-1
 -768 -128 l 1,2,-1
 -768 -256 l 1,3,-1
 -896 -256 l 1,0,-1
-768 -384 m 1,4,-1
 -768 -256 l 1,5,-1
 -640 -256 l 1,6,-1
 -640 -384 l 1,7,-1
 -768 -384 l 1,4,-1
-768 -128 m 1,8,-1
 -768 0 l 1,9,-1
 -640 0 l 1,10,-1
 -512 0 l 1,11,-1
 -512 -128 l 1,12,-1
 -640 -128 l 1,13,-1
 -768 -128 l 1,8,-1
-512 0 m 1,14,-1
 -512 128 l 1,15,-1
 -384 128 l 1,16,-1
 -256 128 l 1,17,-1
 -256 0 l 1,18,-1
 -384 0 l 1,19,-1
 -512 0 l 1,14,-1
-384 -512 m 1,20,-1
 -384 -384 l 1,21,-1
 -256 -384 l 1,22,-1
 -256 -512 l 1,23,-1
 -384 -512 l 1,20,-1
-384 -256 m 1,24,-1
 -384 -128 l 1,25,-1
 -256 -128 l 1,26,-1
 -256 -256 l 1,27,-1
 -384 -256 l 1,24,-1
-256 -640 m 1,28,-1
 -256 -512 l 1,29,-1
 -128 -512 l 1,30,-1
 0 -512 l 1,31,-1
 0 -640 l 1,32,-1
 -128 -640 l 1,33,-1
 -256 -640 l 1,28,-1
-256 -384 m 1,34,-1
 -256 -256 l 1,35,-1
 -128 -256 l 1,36,-1
 -128 -384 l 1,37,-1
 -256 -384 l 1,34,-1
-256 -128 m 1,38,-1
 -256 0 l 1,39,-1
 -128 0 l 1,40,-1
 -128 -128 l 1,41,-1
 -256 -128 l 1,38,-1
EndSplineSet
Substitution2: "CONTEXTUAL_matra_vocalic_liquid_to_reph subtable" reph
EndChar

StartChar: danda
Encoding: 92 2404 81
Width: 256
GlyphClass: 1
Flags: W
LayerCount: 2
Fore
SplineSet
0 128 m 1,0,-1
 0 896 l 1,1,-1
 128 896 l 1,2,-1
 128 128 l 1,3,-1
 0 128 l 1,0,-1
EndSplineSet
EndChar

StartChar: danda_double
Encoding: 93 2405 82
Width: 512
GlyphClass: 1
Flags: W
LayerCount: 2
Fore
SplineSet
256 128 m 1,0,-1
 256 896 l 1,1,-1
 384 896 l 1,2,-1
 384 128 l 1,3,-1
 256 128 l 1,0,-1
0 128 m 1,4,-1
 0 896 l 1,5,-1
 128 896 l 1,6,-1
 128 128 l 1,7,-1
 0 128 l 1,4,-1
EndSplineSet
EndChar

StartChar: dv_zero
Encoding: 94 2406 83
Width: 768
GlyphClass: 1
Flags: W
LayerCount: 2
Fore
SplineSet
0 256 m 1,0,-1
 0 384 l 1,1,-1
 0 512 l 1,2,-1
 0 640 l 1,3,-1
 0 768 l 1,4,-1
 128 768 l 1,5,-1
 128 640 l 1,6,-1
 128 512 l 1,7,-1
 128 384 l 1,8,-1
 128 256 l 1,9,-1
 0 256 l 1,0,-1
128 128 m 1,10,-1
 128 256 l 1,11,-1
 256 256 l 1,12,-1
 384 256 l 1,13,-1
 512 256 l 1,14,-1
 512 128 l 1,15,-1
 384 128 l 1,16,-1
 256 128 l 1,17,-1
 128 128 l 1,10,-1
128 768 m 1,18,-1
 128 896 l 1,19,-1
 256 896 l 1,20,-1
 384 896 l 1,21,-1
 512 896 l 1,22,-1
 512 768 l 1,23,-1
 384 768 l 1,24,-1
 256 768 l 1,25,-1
 128 768 l 1,18,-1
512 256 m 1,26,-1
 512 384 l 1,27,-1
 512 512 l 1,28,-1
 512 640 l 1,29,-1
 512 768 l 1,30,-1
 640 768 l 1,31,-1
 640 640 l 1,32,-1
 640 512 l 1,33,-1
 640 384 l 1,34,-1
 640 256 l 1,35,-1
 512 256 l 1,26,-1
EndSplineSet
EndChar

StartChar: dv_one
Encoding: 95 2407 84
Width: 640
GlyphClass: 1
Flags: W
LayerCount: 2
Fore
SplineSet
0 768 m 1,0,-1
 0 896 l 1,1,-1
 128 896 l 1,2,-1
 128 768 l 1,3,-1
 0 768 l 1,0,-1
128 256 m 1,4,-1
 128 384 l 1,5,-1
 256 384 l 1,6,-1
 256 256 l 1,7,-1
 128 256 l 1,4,-1
128 640 m 1,8,-1
 128 768 l 1,9,-1
 256 768 l 1,10,-1
 256 640 l 1,11,-1
 128 640 l 1,8,-1
128 896 m 1,12,-1
 128 1024 l 1,13,-1
 256 1024 l 1,14,-1
 256 896 l 1,15,-1
 128 896 l 1,12,-1
256 128 m 1,16,-1
 256 256 l 1,17,-1
 384 256 l 1,18,-1
 384 128 l 1,19,-1
 256 128 l 1,16,-1
256 384 m 1,20,-1
 256 512 l 1,21,-1
 384 512 l 1,22,-1
 384 384 l 1,23,-1
 256 384 l 1,20,-1
256 768 m 1,24,-1
 256 896 l 1,25,-1
 384 896 l 1,26,-1
 384 768 l 1,27,-1
 256 768 l 1,24,-1
384 0 m 1,28,-1
 384 128 l 1,29,-1
 512 128 l 1,30,-1
 512 0 l 1,31,-1
 384 0 l 1,28,-1
384 512 m 1,32,-1
 384 640 l 1,33,-1
 384 768 l 1,34,-1
 512 768 l 1,35,-1
 512 640 l 1,36,-1
 512 512 l 1,37,-1
 384 512 l 1,32,-1
EndSplineSet
EndChar

StartChar: dv_two
Encoding: 96 2408 85
Width: 640
GlyphClass: 1
Flags: W
LayerCount: 2
Fore
SplineSet
0 640 m 1,0,-1
 0 768 l 1,1,-1
 128 768 l 1,2,-1
 128 640 l 1,3,-1
 0 640 l 1,0,-1
128 256 m 1,4,-1
 128 384 l 1,5,-1
 256 384 l 1,6,-1
 256 256 l 1,7,-1
 128 256 l 1,4,-1
128 768 m 1,8,-1
 128 896 l 1,9,-1
 256 896 l 1,10,-1
 384 896 l 1,11,-1
 384 768 l 1,12,-1
 256 768 l 1,13,-1
 128 768 l 1,8,-1
256 128 m 1,14,-1
 256 256 l 1,15,-1
 384 256 l 1,16,-1
 384 128 l 1,17,-1
 256 128 l 1,14,-1
256 384 m 1,18,-1
 256 512 l 1,19,-1
 384 512 l 1,20,-1
 384 384 l 1,21,-1
 256 384 l 1,18,-1
384 0 m 1,22,-1
 384 128 l 1,23,-1
 512 128 l 1,24,-1
 512 0 l 1,25,-1
 384 0 l 1,22,-1
384 512 m 1,26,-1
 384 640 l 1,27,-1
 384 768 l 1,28,-1
 512 768 l 1,29,-1
 512 640 l 1,30,-1
 512 512 l 1,31,-1
 384 512 l 1,26,-1
EndSplineSet
EndChar

StartChar: dv_three
Encoding: 97 2409 86
Width: 640
GlyphClass: 1
Flags: W
LayerCount: 2
Fore
SplineSet
0 128 m 1,0,-1
 0 256 l 1,1,-1
 128 256 l 1,2,-1
 128 128 l 1,3,-1
 0 128 l 1,0,-1
0 640 m 1,4,-1
 0 768 l 1,5,-1
 128 768 l 1,6,-1
 128 640 l 1,7,-1
 0 640 l 1,4,-1
128 0 m 1,8,-1
 128 128 l 1,9,-1
 256 128 l 1,10,-1
 384 128 l 1,11,-1
 384 0 l 1,12,-1
 512 0 l 1,13,-1
 512 -128 l 1,14,-1
 384 -128 l 1,15,-1
 256 -128 l 1,16,-1
 256 0 l 1,17,-1
 128 0 l 1,8,-1
128 768 m 1,18,-1
 128 896 l 1,19,-1
 256 896 l 1,20,-1
 384 896 l 1,21,-1
 384 768 l 1,22,-1
 256 768 l 1,23,-1
 128 768 l 1,18,-1
256 384 m 1,24,-1
 256 512 l 1,25,-1
 384 512 l 1,26,-1
 384 384 l 1,27,-1
 256 384 l 1,24,-1
384 128 m 1,28,-1
 384 256 l 1,29,-1
 384 384 l 1,30,-1
 512 384 l 1,31,-1
 512 256 l 1,32,-1
 512 128 l 1,33,-1
 384 128 l 1,28,-1
384 512 m 1,34,-1
 384 640 l 1,35,-1
 384 768 l 1,36,-1
 512 768 l 1,37,-1
 512 640 l 1,38,-1
 512 512 l 1,39,-1
 384 512 l 1,34,-1
EndSplineSet
EndChar

StartChar: dv_four
Encoding: 98 2410 87
Width: 768
GlyphClass: 1
Flags: W
LayerCount: 2
Fore
SplineSet
0 512 m 1,0,-1
 0 640 l 1,1,-1
 0 768 l 1,2,-1
 0 896 l 1,3,-1
 128 896 l 1,4,-1
 128 768 l 1,5,-1
 128 640 l 1,6,-1
 128 512 l 1,7,-1
 0 512 l 1,0,-1
128 128 m 1,8,-1
 128 256 l 1,9,-1
 256 256 l 1,10,-1
 256 128 l 1,11,-1
 128 128 l 1,8,-1
128 384 m 1,12,-1
 128 512 l 1,13,-1
 256 512 l 1,14,-1
 256 384 l 1,15,-1
 128 384 l 1,12,-1
256 0 m 1,16,-1
 256 128 l 1,17,-1
 384 128 l 1,18,-1
 384 0 l 1,19,-1
 256 0 l 1,16,-1
256 256 m 1,20,-1
 256 384 l 1,21,-1
 384 384 l 1,22,-1
 384 256 l 1,23,-1
 256 256 l 1,20,-1
384 128 m 1,24,-1
 384 256 l 1,25,-1
 512 256 l 1,26,-1
 512 128 l 1,27,-1
 384 128 l 1,24,-1
384 384 m 1,28,-1
 384 512 l 1,29,-1
 512 512 l 1,30,-1
 512 384 l 1,31,-1
 384 384 l 1,28,-1
512 512 m 1,32,-1
 512 640 l 1,33,-1
 512 768 l 1,34,-1
 512 896 l 1,35,-1
 640 896 l 1,36,-1
 640 768 l 1,37,-1
 640 640 l 1,38,-1
 640 512 l 1,39,-1
 512 512 l 1,32,-1
EndSplineSet
EndChar

StartChar: dv_five
Encoding: 99 2411 88
Width: 768
GlyphClass: 1
Flags: W
LayerCount: 2
Fore
SplineSet
0 512 m 1,0,-1
 0 640 l 1,1,-1
 0 768 l 1,2,-1
 0 896 l 1,3,-1
 128 896 l 1,4,-1
 128 768 l 1,5,-1
 128 640 l 1,6,-1
 128 512 l 1,7,-1
 0 512 l 1,0,-1
128 384 m 1,8,-1
 128 512 l 1,9,-1
 256 512 l 1,10,-1
 384 512 l 1,11,-1
 384 640 l 1,12,-1
 384 768 l 1,13,-1
 512 768 l 1,14,-1
 512 640 l 1,15,-1
 512 512 l 1,16,-1
 512 384 l 1,17,-1
 384 384 l 1,18,-1
 256 384 l 1,19,-1
 128 384 l 1,8,-1
512 128 m 1,20,-1
 512 256 l 1,21,-1
 512 384 l 1,22,-1
 640 384 l 1,23,-1
 640 256 l 1,24,-1
 640 128 l 1,25,-1
 512 128 l 1,20,-1
EndSplineSet
EndChar

StartChar: dv_six
Encoding: 100 2412 89
Width: 640
GlyphClass: 1
Flags: W
LayerCount: 2
Fore
SplineSet
0 128 m 1,0,-1
 0 256 l 1,1,-1
 0 384 l 1,2,-1
 128 384 l 1,3,-1
 128 256 l 1,4,-1
 128 128 l 1,5,-1
 0 128 l 1,0,-1
0 512 m 1,6,-1
 0 640 l 1,7,-1
 0 768 l 1,8,-1
 128 768 l 1,9,-1
 128 640 l 1,10,-1
 128 512 l 1,11,-1
 0 512 l 1,6,-1
128 0 m 1,12,-1
 128 128 l 1,13,-1
 256 128 l 1,14,-1
 384 128 l 1,15,-1
 384 256 l 1,16,-1
 512 256 l 1,17,-1
 512 128 l 1,18,-1
 512 0 l 1,19,-1
 512 -128 l 1,20,-1
 384 -128 l 1,21,-1
 384 0 l 1,22,-1
 256 0 l 1,23,-1
 128 0 l 1,12,-1
128 384 m 1,24,-1
 128 512 l 1,25,-1
 256 512 l 1,26,-1
 256 384 l 1,27,-1
 128 384 l 1,24,-1
128 768 m 1,28,-1
 128 896 l 1,29,-1
 256 896 l 1,30,-1
 384 896 l 1,31,-1
 384 768 l 1,32,-1
 256 768 l 1,33,-1
 128 768 l 1,28,-1
384 640 m 1,34,-1
 384 768 l 1,35,-1
 512 768 l 1,36,-1
 512 640 l 1,37,-1
 384 640 l 1,34,-1
EndSplineSet
EndChar

StartChar: dv_seven
Encoding: 101 2413 90
Width: 768
GlyphClass: 1
Flags: W
LayerCount: 2
Fore
SplineSet
0 256 m 1,0,-1
 0 384 l 1,1,-1
 0 512 l 1,2,-1
 0 640 l 1,3,-1
 0 768 l 1,4,-1
 128 768 l 1,5,-1
 128 640 l 1,6,-1
 128 512 l 1,7,-1
 128 384 l 1,8,-1
 128 256 l 1,9,-1
 0 256 l 1,0,-1
128 128 m 1,10,-1
 128 256 l 1,11,-1
 256 256 l 1,12,-1
 384 256 l 1,13,-1
 384 128 l 1,14,-1
 256 128 l 1,15,-1
 128 128 l 1,10,-1
128 768 m 1,16,-1
 128 896 l 1,17,-1
 256 896 l 1,18,-1
 256 768 l 1,19,-1
 128 768 l 1,16,-1
256 512 m 1,20,-1
 256 640 l 1,21,-1
 384 640 l 1,22,-1
 384 512 l 1,23,-1
 256 512 l 1,20,-1
384 256 m 1,24,-1
 384 384 l 1,25,-1
 512 384 l 1,26,-1
 512 256 l 1,27,-1
 384 256 l 1,24,-1
384 640 m 1,28,-1
 384 768 l 1,29,-1
 512 768 l 1,30,-1
 512 640 l 1,31,-1
 384 640 l 1,28,-1
512 384 m 1,32,-1
 512 512 l 1,33,-1
 512 640 l 1,34,-1
 640 640 l 1,35,-1
 640 512 l 1,36,-1
 640 384 l 1,37,-1
 512 384 l 1,32,-1
EndSplineSet
EndChar

StartChar: dv_eight
Encoding: 102 2414 91
Width: 640
GlyphClass: 1
Flags: W
LayerCount: 2
Fore
SplineSet
0 256 m 1,0,-1
 0 384 l 1,1,-1
 0 512 l 1,2,-1
 128 512 l 1,3,-1
 128 384 l 1,4,-1
 128 256 l 1,5,-1
 0 256 l 1,0,-1
128 128 m 1,6,-1
 128 256 l 1,7,-1
 256 256 l 1,8,-1
 384 256 l 1,9,-1
 384 128 l 1,10,-1
 256 128 l 1,11,-1
 128 128 l 1,6,-1
128 512 m 1,12,-1
 128 640 l 1,13,-1
 256 640 l 1,14,-1
 256 512 l 1,15,-1
 128 512 l 1,12,-1
256 640 m 1,16,-1
 256 768 l 1,17,-1
 384 768 l 1,18,-1
 384 640 l 1,19,-1
 256 640 l 1,16,-1
384 256 m 1,20,-1
 384 384 l 1,21,-1
 512 384 l 1,22,-1
 512 256 l 1,23,-1
 384 256 l 1,20,-1
384 768 m 1,24,-1
 384 896 l 1,25,-1
 512 896 l 1,26,-1
 512 768 l 1,27,-1
 384 768 l 1,24,-1
EndSplineSet
EndChar

StartChar: dv_nine
Encoding: 103 2415 92
Width: 640
GlyphClass: 1
Flags: W
LayerCount: 2
Fore
SplineSet
0 512 m 1,0,-1
 0 640 l 1,1,-1
 0 768 l 1,2,-1
 128 768 l 1,3,-1
 128 640 l 1,4,-1
 128 512 l 1,5,-1
 0 512 l 1,0,-1
128 384 m 1,6,-1
 128 512 l 1,7,-1
 256 512 l 1,8,-1
 256 384 l 1,9,-1
 128 384 l 1,6,-1
128 768 m 1,10,-1
 128 896 l 1,11,-1
 256 896 l 1,12,-1
 256 768 l 1,13,-1
 128 768 l 1,10,-1
256 0 m 1,14,-1
 256 128 l 1,15,-1
 384 128 l 1,16,-1
 384 0 l 1,17,-1
 256 0 l 1,14,-1
256 256 m 1,18,-1
 256 384 l 1,19,-1
 384 384 l 1,20,-1
 384 256 l 1,21,-1
 256 256 l 1,18,-1
256 640 m 1,22,-1
 256 768 l 1,23,-1
 384 768 l 1,24,-1
 384 640 l 1,25,-1
 256 640 l 1,22,-1
256 896 m 1,26,-1
 256 1024 l 1,27,-1
 384 1024 l 1,28,-1
 384 896 l 1,29,-1
 256 896 l 1,26,-1
384 128 m 1,30,-1
 384 256 l 1,31,-1
 512 256 l 1,32,-1
 512 128 l 1,33,-1
 384 128 l 1,30,-1
384 768 m 1,34,-1
 384 896 l 1,35,-1
 512 896 l 1,36,-1
 512 768 l 1,37,-1
 384 768 l 1,34,-1
EndSplineSet
EndChar

StartChar: bar_extend_one
Encoding: 112 -1 93
Width: 128
Flags: W
LayerCount: 2
Fore
SplineSet
0 896 m 1029,0,-1
128 896 m 1029,1,-1
0 896 m 5,2,-1
 0 1024 l 5,3,-1
 128 1024 l 5,4,-1
 128 896 l 5,5,-1
 0 896 l 5,2,-1
EndSplineSet
EndChar

StartChar: thra
Encoding: 113 -1 94
Width: 640
Flags: W
AnchorPoint: "nukta" 128 128 basechar 0
AnchorPoint: "mark_down" 384 128 basechar 0
AnchorPoint: "mark_up" 384 1024 basechar 0
LayerCount: 2
Fore
SplineSet
512 896 m 1025,0,-1
640 896 m 1025,1,-1
512 896 m 1,2,-1
 512 1024 l 1,3,-1
 640 1024 l 1,4,-1
 640 896 l 1,5,-1
 512 896 l 1,2,-1
0 256 m 1,6,-1
 0 384 l 1,7,-1
 128 384 l 1,8,-1
 128 256 l 1,9,-1
 0 256 l 1,6,-1
0 640 m 1,10,-1
 0 768 l 1,11,-1
 128 768 l 1,12,-1
 256 768 l 1,13,-1
 256 640 l 1,14,-1
 128 640 l 1,15,-1
 0 640 l 1,10,-1
-128 896 m 5,16,-1
 -128 1024 l 1,17,-1
 128 1024 l 1,18,-1
 256 1024 l 1,19,-1
 384 1024 l 1,20,-1
 512 1024 l 1,21,-1
 512 896 l 1,22,-1
 512 768 l 1,23,-1
 512 640 l 1,24,-1
 512 512 l 1,25,-1
 512 384 l 1,26,-1
 512 256 l 1,27,-1
 512 128 l 1,28,-1
 384 128 l 1,29,-1
 384 256 l 1,30,-1
 384 384 l 1,31,-1
 384 512 l 1,32,-1
 256 512 l 1,33,-1
 256 640 l 1,34,-1
 384 640 l 1,35,-1
 384 768 l 1,36,-1
 384 896 l 1,37,-1
 256 896 l 1,38,-1
 128 896 l 1,39,-1
 -128 896 l 5,16,-1
128 384 m 1,40,-1
 128 512 l 1,41,-1
 256 512 l 1,42,-1
 256 384 l 1,43,-1
 128 384 l 1,40,-1
EndSplineSet
Ligature2: "vatu subtable" tha rakar
Ligature2: "rkrf subtable" tha virama ra
LCarets2: 2 0 0
EndChar

StartChar: bar_fill_gap
Encoding: 114 -1 95
Width: 0
Flags: W
LayerCount: 2
Fore
SplineSet
-128 896 m 1029,0,-1
0 896 m 1029,1,-1
-128 896 m 5,2,-1
 -128 1024 l 5,3,-1
 0 1024 l 5,4,-1
 0 896 l 5,5,-1
 -128 896 l 5,2,-1
EndSplineSet
EndChar

StartChar: la_variant
Encoding: 115 -1 96
Width: 1024
Flags: W
AnchorPoint: "rakar" 768 256 basechar 0
AnchorPoint: "mark_down" 640 128 basechar 0
AnchorPoint: "mark_up" 640 1024 basechar 0
AnchorPoint: "nukta" 384 256 basechar 0
LayerCount: 2
Fore
SplineSet
896 896 m 1025,0,-1
1024 896 m 1025,1,-1
896 896 m 1,2,-1
 896 1024 l 1,3,-1
 1024 1024 l 1,4,-1
 1024 896 l 1,5,-1
 896 896 l 1,2,-1
0 384 m 1,6,-1
 0 512 l 1,7,-1
 0 640 l 1,8,-1
 128 640 l 1,9,-1
 128 512 l 1,10,-1
 128 384 l 1,11,-1
 0 384 l 1,6,-1
-128 896 m 1,12,-1
 -128 1024 l 1,13,-1
 128 1024 l 1,14,-1
 256 1024 l 1,15,-1
 384 1024 l 1,16,-1
 512 1024 l 1,17,-1
 640 1024 l 1,18,-1
 768 1024 l 1,19,-1
 896 1024 l 1,20,-1
 896 896 l 1,21,-1
 768 896 l 1,22,-1
 768 768 l 1,23,-1
 768 640 l 1,24,-1
 640 640 l 1,25,-1
 512 640 l 1,26,-1
 512 768 l 1,27,-1
 640 768 l 1,28,-1
 640 896 l 1,29,-1
 512 896 l 1,30,-1
 384 896 l 1,31,-1
 256 896 l 1,32,-1
 128 896 l 1,33,-1
 -128 896 l 1,12,-1
128 256 m 1,34,-1
 128 384 l 1,35,-1
 256 384 l 1,36,-1
 256 256 l 1,37,-1
 128 256 l 1,34,-1
128 640 m 1,38,-1
 128 768 l 1,39,-1
 256 768 l 1,40,-1
 384 768 l 1,41,-1
 384 640 l 1,42,-1
 256 640 l 1,43,-1
 128 640 l 1,38,-1
384 512 m 1,44,-1
 384 640 l 1,45,-1
 512 640 l 1,46,-1
 512 512 l 1,47,-1
 384 512 l 1,44,-1
640 256 m 1,48,-1
 640 384 l 1,49,-1
 768 384 l 1,50,-1
 768 256 l 1,51,-1
 640 256 l 1,48,-1
768 384 m 1,52,-1
 768 512 l 1,53,-1
 768 640 l 1,54,-1
 896 640 l 1,55,-1
 896 512 l 1,56,-1
 896 384 l 1,57,-1
 768 384 l 1,52,-1
EndSplineSet
EndChar

StartChar: ka_half
Encoding: 116 -1 97
Width: 768
Flags: W
LayerCount: 2
Fore
SplineSet
0 384 m 1,0,-1
 0 640 l 1,1,-1
 128 640 l 1,2,-1
 128 384 l 1,3,-1
 0 384 l 1,0,-1
384 384 m 1,4,-1
 384 640 l 1,5,-1
 128 640 l 1,6,-1
 128 768 l 1,7,-1
 384 768 l 1,8,-1
 384 896 l 1,9,-1
 -128 896 l 1,10,-1
 -128 1024 l 1,11,-1
 384 1024 l 1,12,-1
 768 1024 l 1,13,-1
 768 896 l 1,14,-1
 512 896 l 1,15,-1
 512 768 l 1,16,-1
 640 768 l 1,17,-1
 768 768 l 1,18,-1
 768 640 l 1,19,-1
 640 640 l 1,20,-1
 512 640 l 1,21,-1
 512 128 l 1,22,-1
 384 128 l 1,23,-1
 384 256 l 1,24,-1
 128 256 l 1,25,-1
 128 384 l 1,26,-1
 384 384 l 1,4,-1
EndSplineSet
Ligature2: "half subtable" ka virama
LCarets2: 1 0
EndChar

StartChar: Ka_half
Encoding: 117 -1 98
Width: 896
Flags: W
LayerCount: 2
Fore
SplineSet
-128 1024 m 1,0,-1
 896 1024 l 1,1,-1
 896 896 l 1,2,-1
 384 896 l 1,3,-1
 384 512 l 1,4,-1
 128 512 l 1,5,-1
 128 640 l 1,6,-1
 256 640 l 1,7,-1
 256 896 l 1,8,-1
 -128 896 l 1,9,-1
 -128 1024 l 1,0,-1
128 512 m 1,10,-1
 128 384 l 1,11,-1
 0 384 l 1,12,-1
 0 512 l 1,13,-1
 128 512 l 1,10,-1
128 384 m 1,14,-1
 256 384 l 1,15,-1
 256 256 l 1,16,-1
 128 256 l 1,17,-1
 128 384 l 1,14,-1
256 256 m 1,18,-1
 384 256 l 1,19,-1
 384 128 l 1,20,-1
 256 128 l 1,21,-1
 256 256 l 1,18,-1
384 128 m 1,22,-1
 640 128 l 1,23,-1
 640 0 l 1,24,-1
 384 0 l 1,25,-1
 384 128 l 1,22,-1
640 128 m 1,26,-1
 640 384 l 1,27,-1
 768 384 l 1,28,-1
 896 384 l 1,29,-1
 896 256 l 1,30,-1
 768 256 l 1,31,-1
 768 128 l 1,32,-1
 640 128 l 1,26,-1
640 384 m 1,33,-1
 512 384 l 1,34,-1
 512 512 l 1,35,-1
 512 640 l 1,36,-1
 640 640 l 1,37,-1
 640 512 l 1,38,-1
 640 384 l 1,33,-1
640 640 m 1,39,-1
 640 768 l 1,40,-1
 896 768 l 1,41,-1
 896 640 l 1,42,-1
 640 640 l 1,39,-1
EndSplineSet
Ligature2: "half subtable" Ka virama
LCarets2: 1 0
EndChar

StartChar: ga_half
Encoding: 118 -1 99
Width: 512
Flags: W
LayerCount: 2
Fore
SplineSet
0 512 m 1,0,-1
 0 640 l 1,1,-1
 128 640 l 1,2,-1
 128 512 l 1,3,-1
 0 512 l 1,0,-1
-128 896 m 5,4,-1
 -128 1024 l 1,5,-1
 128 1024 l 1,6,-1
 256 1024 l 1,7,-1
 384 1024 l 1,8,-1
 512 1024 l 1,9,-1
 512 896 l 1,10,-1
 384 896 l 1,11,-1
 384 768 l 1,12,-1
 384 640 l 1,13,-1
 384 512 l 1,14,-1
 256 512 l 1,15,-1
 256 640 l 1,16,-1
 256 768 l 1,17,-1
 256 896 l 1,18,-1
 128 896 l 1,19,-1
 -128 896 l 5,4,-1
128 384 m 1,20,-1
 128 512 l 1,21,-1
 256 512 l 1,22,-1
 256 384 l 1,23,-1
 128 384 l 1,20,-1
EndSplineSet
Ligature2: "half subtable" ga virama
LCarets2: 1 0
EndChar

StartChar: Ga_half
Encoding: 119 -1 100
Width: 640
Flags: W
LayerCount: 2
Fore
SplineSet
-128 1024 m 1,0,-1
 640 1024 l 1,1,-1
 640 896 l 1,2,-1
 384 896 l 1,3,-1
 256 896 l 1,4,-1
 256 768 l 1,5,-1
 128 768 l 1,6,-1
 128 896 l 1,7,-1
 -128 896 l 1,8,-1
 -128 1024 l 1,0,-1
128 768 m 1,9,-1
 128 512 l 1,10,-1
 0 512 l 1,11,-1
 0 768 l 1,12,-1
 128 768 l 1,9,-1
128 512 m 1,13,-1
 256 512 l 1,14,-1
 256 384 l 1,15,-1
 128 384 l 1,16,-1
 128 512 l 1,13,-1
256 512 m 1,17,-1
 256 640 l 1,18,-1
 384 640 l 1,19,-1
 384 512 l 1,20,-1
 256 512 l 1,17,-1
256 384 m 1,21,-1
 384 384 l 1,22,-1
 512 384 l 1,23,-1
 512 256 l 1,24,-1
 384 256 l 1,25,-1
 256 256 l 1,26,-1
 256 384 l 1,21,-1
512 384 m 1,27,-1
 512 512 l 1,28,-1
 640 512 l 1,29,-1
 640 384 l 1,30,-1
 512 384 l 1,27,-1
EndSplineSet
Ligature2: "half subtable" Ga virama
LCarets2: 1 0
EndChar

StartChar: xa_half
Encoding: 120 -1 101
Width: 640
Flags: W
LayerCount: 2
Fore
SplineSet
-128 1024 m 1,0,-1
 640 1024 l 1,1,-1
 640 896 l 1,2,-1
 -128 896 l 1,3,-1
 -128 1024 l 1,0,-1
0 640 m 1,4,-1
 384 640 l 1,5,-1
 384 384 l 1,6,-1
 256 384 l 1,7,-1
 256 512 l 1,8,-1
 0 512 l 1,9,-1
 0 640 l 1,4,-1
384 384 m 1,10,-1
 640 384 l 1,11,-1
 640 256 l 1,12,-1
 384 256 l 1,13,-1
 384 384 l 1,10,-1
EndSplineSet
Ligature2: "half subtable" xa virama
LCarets2: 1 0
EndChar

StartChar: ja_half
Encoding: 121 -1 102
Width: 640
Flags: W
LayerCount: 2
Fore
SplineSet
-128 1024 m 1,0,-1
 640 1024 l 1,1,-1
 640 896 l 1,2,-1
 -128 896 l 1,3,-1
 -128 1024 l 1,0,-1
0 640 m 1,4,-1
 128 640 l 1,5,-1
 128 384 l 1,6,-1
 0 384 l 1,7,-1
 0 640 l 1,4,-1
128 384 m 1,8,-1
 256 384 l 1,9,-1
 384 384 l 1,10,-1
 384 256 l 1,11,-1
 256 256 l 1,12,-1
 128 256 l 1,13,-1
 128 384 l 1,8,-1
384 384 m 1,14,-1
 384 640 l 1,15,-1
 640 640 l 1,16,-1
 640 512 l 1,17,-1
 512 512 l 1,18,-1
 512 384 l 1,19,-1
 384 384 l 1,14,-1
EndSplineSet
Ligature2: "half subtable" ja virama
LCarets2: 1 0
EndChar

StartChar: nya_half
Encoding: 122 -1 103
Width: 640
Flags: W
LayerCount: 2
Fore
SplineSet
-128 1024 m 1,0,-1
 640 1024 l 1,1,-1
 640 896 l 1,2,-1
 -128 896 l 1,3,-1
 -128 1024 l 1,0,-1
128 768 m 1,4,-1
 256 768 l 1,5,-1
 384 768 l 1,6,-1
 384 640 l 1,7,-1
 256 640 l 1,8,-1
 128 640 l 1,9,-1
 128 768 l 1,4,-1
384 640 m 1,10,-1
 640 640 l 1,11,-1
 640 512 l 1,12,-1
 512 512 l 1,13,-1
 512 384 l 1,14,-1
 384 384 l 1,15,-1
 384 640 l 1,10,-1
384 384 m 1,16,-1
 384 256 l 1,17,-1
 256 256 l 1,18,-1
 128 256 l 1,19,-1
 128 384 l 1,20,-1
 256 384 l 1,21,-1
 384 384 l 1,16,-1
128 384 m 1,22,-1
 0 384 l 1,23,-1
 0 512 l 1,24,-1
 128 512 l 1,25,-1
 128 384 l 1,22,-1
EndSplineSet
Ligature2: "half subtable" nya virama
LCarets2: 1 0
EndChar

StartChar: Ja_half
Encoding: 123 -1 104
Width: 640
Flags: W
LayerCount: 2
Fore
SplineSet
-128 1024 m 1,0,-1
 640 1024 l 1,1,-1
 640 896 l 1,2,-1
 384 896 l 1,3,-1
 384 640 l 1,4,-1
 128 640 l 1,5,-1
 128 768 l 1,6,-1
 256 768 l 1,7,-1
 256 896 l 1,8,-1
 -128 896 l 1,9,-1
 -128 1024 l 1,0,-1
128 640 m 1,10,-1
 128 512 l 1,11,-1
 0 512 l 1,12,-1
 0 640 l 1,13,-1
 128 640 l 1,10,-1
128 512 m 1,14,-1
 256 512 l 1,15,-1
 384 512 l 1,16,-1
 384 384 l 1,17,-1
 256 384 l 1,18,-1
 128 384 l 1,19,-1
 128 512 l 1,14,-1
384 384 m 1,20,-1
 640 384 l 1,21,-1
 640 256 l 1,22,-1
 384 256 l 1,23,-1
 384 384 l 1,20,-1
384 256 m 1,24,-1
 384 128 l 1,25,-1
 256 128 l 1,26,-1
 256 0 l 1,27,-1
 128 0 l 1,28,-1
 128 128 l 1,29,-1
 0 128 l 1,30,-1
 0 256 l 1,31,-1
 128 256 l 1,32,-1
 384 256 l 1,24,-1
EndSplineSet
Ligature2: "half subtable" Ja virama
LCarets2: 1 0
EndChar

StartChar: Na_half
Encoding: 124 -1 105
Width: 640
Flags: W
LayerCount: 2
Fore
SplineSet
-128 896 m 1029,0,-1
0 896 m 1029,1,-1
-128 896 m 5,2,-1
 -128 1024 l 5,3,-1
 0 1024 l 5,4,-1
 0 896 l 5,5,-1
 -128 896 l 5,2,-1
0 512 m 1,6,-1
 0 640 l 1,7,-1
 0 768 l 1,8,-1
 0 896 l 1,9,-1
 0 1024 l 1,10,-1
 128 1024 l 1,11,-1
 256 1024 l 1,12,-1
 384 1024 l 1,13,-1
 512 1024 l 1,14,-1
 640 1024 l 1,15,-1
 640 896 l 1,16,-1
 512 896 l 1,17,-1
 512 768 l 1,18,-1
 512 640 l 1,19,-1
 512 512 l 1,20,-1
 384 512 l 1,21,-1
 384 640 l 1,22,-1
 384 768 l 1,23,-1
 384 896 l 1,24,-1
 256 896 l 1,25,-1
 128 896 l 1,26,-1
 128 768 l 1,27,-1
 128 640 l 1,28,-1
 128 512 l 1,29,-1
 0 512 l 1,6,-1
128 384 m 1,30,-1
 128 512 l 1,31,-1
 256 512 l 1,32,-1
 384 512 l 1,33,-1
 384 384 l 1,34,-1
 256 384 l 1,35,-1
 128 384 l 1,30,-1
EndSplineSet
Ligature2: "half subtable" Na virama
LCarets2: 1 0
EndChar

StartChar: tha_half
Encoding: 125 -1 106
Width: 512
Flags: W
LayerCount: 2
Fore
SplineSet
-128 1024 m 1,0,-1
 512 1024 l 1,1,-1
 512 896 l 1,2,-1
 -128 896 l 1,3,-1
 -128 1024 l 1,0,-1
128 640 m 1,4,-1
 512 640 l 1,5,-1
 512 512 l 1,6,-1
 128 512 l 1,7,-1
 128 640 l 1,4,-1
128 512 m 1,8,-1
 128 384 l 1,9,-1
 128 256 l 1,10,-1
 0 256 l 1,11,-1
 0 384 l 1,12,-1
 0 512 l 1,13,-1
 128 512 l 1,8,-1
128 256 m 1,14,-1
 256 256 l 1,15,-1
 256 128 l 1,16,-1
 128 128 l 1,17,-1
 128 256 l 1,14,-1
EndSplineSet
Ligature2: "half subtable" tha virama
LCarets2: 1 0
EndChar

StartChar: Tha_half
Encoding: 126 -1 107
Width: 512
Flags: W
LayerCount: 2
Fore
SplineSet
384 896 m 1025,0,-1
512 896 m 1025,1,-1
384 896 m 1,2,-1
 384 1024 l 1,3,-1
 512 1024 l 1,4,-1
 512 896 l 1,5,-1
 384 896 l 1,2,-1
0 512 m 1,6,-1
 0 640 l 1,7,-1
 128 640 l 1,8,-1
 128 512 l 1,9,-1
 0 512 l 1,6,-1
-128 896 m 1,10,-1
 -128 1024 l 1,11,-1
 0 1024 l 1,12,-1
 0 896 l 1,13,-1
 -128 896 l 1,10,-1
128 384 m 1,14,-1
 128 512 l 1,15,-1
 256 512 l 1,16,-1
 384 512 l 1,17,-1
 384 384 l 1,18,-1
 256 384 l 1,19,-1
 128 384 l 1,14,-1
128 640 m 1,20,-1
 128 1024 l 1,21,-1
 256 1024 l 1,22,-1
 256 640 l 1,23,-1
 128 640 l 1,20,-1
0 1024 m 1,24,-1
 0 1152 l 1,25,-1
 128 1152 l 1,26,-1
 128 1024 l 1,27,-1
 0 1024 l 1,24,-1
384 512 m 1,28,-1
 384 640 l 1,29,-1
 512 640 l 1,30,-1
 512 512 l 1,31,-1
 384 512 l 1,28,-1
EndSplineSet
Ligature2: "half subtable" Tha virama
LCarets2: 1 0
EndChar

StartChar: Dha_half
Encoding: 127 -1 108
Width: 640
Flags: W
LayerCount: 2
Fore
SplineSet
256 640 m 1,0,-1
 384 640 l 1,1,-1
 384 512 l 1,2,-1
 256 512 l 1,3,-1
 256 640 l 1,0,-1
256 512 m 1,4,-1
 256 384 l 1,5,-1
 128 384 l 1,6,-1
 128 512 l 1,7,-1
 256 512 l 1,4,-1
256 896 m 1,8,-1
 256 768 l 1,9,-1
 128 768 l 1,10,-1
 128 896 l 1,11,-1
 256 896 l 1,8,-1
128 896 m 1,12,-1
 -128 896 l 1,13,-1
 -128 1024 l 1,14,-1
 128 1024 l 1,15,-1
 128 896 l 1,12,-1
384 384 m 1,16,-1
 512 384 l 1,17,-1
 512 256 l 1,18,-1
 384 256 l 1,19,-1
 256 256 l 1,20,-1
 256 384 l 1,21,-1
 384 384 l 1,16,-1
0 512 m 1,22,-1
 0 768 l 1,23,-1
 128 768 l 1,24,-1
 128 512 l 1,25,-1
 0 512 l 1,22,-1
640 896 m 1,26,-1
 384 896 l 1,27,-1
 384 1024 l 1,28,-1
 640 1024 l 1,29,-1
 640 896 l 1,26,-1
640 512 m 1,30,-1
 640 384 l 1,31,-1
 512 384 l 1,32,-1
 512 512 l 1,33,-1
 640 512 l 1,30,-1
EndSplineSet
Ligature2: "half subtable" Dha virama
LCarets2: 1 0
EndChar

StartChar: na_half
Encoding: 128 -1 109
Width: 384
Flags: W
LayerCount: 2
Fore
SplineSet
-128 1024 m 5,0,-1
 384 1024 l 5,1,-1
 384 896 l 5,2,-1
 -128 896 l 5,3,-1
 -128 1024 l 5,0,-1
0 640 m 1,4,-1
 384 640 l 1,5,-1
 384 512 l 1,6,-1
 128 512 l 1,7,-1
 128 384 l 1,8,-1
 0 384 l 1,9,-1
 0 640 l 1,4,-1
EndSplineSet
Ligature2: "half subtable" na virama
LCarets2: 1 0
EndChar

StartChar: pa_half
Encoding: 129 -1 110
Width: 384
Flags: W
LayerCount: 2
Fore
SplineSet
-128 1024 m 1,0,-1
 0 1024 l 1,1,-1
 384 1024 l 1,2,-1
 384 896 l 1,3,-1
 128 896 l 1,4,-1
 128 640 l 1,5,-1
 0 640 l 1,6,-1
 0 896 l 1,7,-1
 -128 896 l 1,8,-1
 -128 1024 l 1,0,-1
128 640 m 1,9,-1
 384 640 l 1,10,-1
 384 512 l 1,11,-1
 128 512 l 1,12,-1
 128 640 l 1,9,-1
EndSplineSet
Ligature2: "half subtable" pa virama
LCarets2: 1 0
EndChar

StartChar: ba_half
Encoding: 130 -1 111
Width: 512
Flags: W
LayerCount: 2
Fore
SplineSet
0 384 m 1,0,-1
 0 512 l 1,1,-1
 0 640 l 1,2,-1
 128 640 l 1,3,-1
 128 512 l 1,4,-1
 128 384 l 1,5,-1
 0 384 l 1,0,-1
-128 896 m 5,6,-1
 -128 1024 l 1,7,-1
 128 1024 l 1,8,-1
 256 1024 l 1,9,-1
 384 1024 l 1,10,-1
 512 1024 l 1,11,-1
 512 896 l 1,12,-1
 384 896 l 1,13,-1
 256 896 l 1,14,-1
 128 896 l 1,15,-1
 -128 896 l 5,6,-1
128 256 m 1,16,-1
 128 384 l 1,17,-1
 256 384 l 1,18,-1
 384 384 l 1,19,-1
 384 256 l 1,20,-1
 256 256 l 1,21,-1
 128 256 l 1,16,-1
128 640 m 1,22,-1
 128 768 l 1,23,-1
 256 768 l 1,24,-1
 384 768 l 1,25,-1
 512 768 l 1,26,-1
 512 640 l 1,27,-1
 384 640 l 1,28,-1
 384 512 l 1,29,-1
 256 512 l 1,30,-1
 256 640 l 1,31,-1
 128 640 l 1,22,-1
384 384 m 1,32,-1
 384 512 l 1,33,-1
 512 512 l 1,34,-1
 512 384 l 1,35,-1
 384 384 l 1,32,-1
EndSplineSet
Ligature2: "half subtable" ba virama
LCarets2: 1 0
EndChar

StartChar: Ba_half
Encoding: 131 -1 112
Width: 512
Flags: W
LayerCount: 2
Fore
SplineSet
0 1152 m 1,0,-1
 128 1152 l 1,1,-1
 128 1024 l 1,2,-1
 0 1024 l 1,3,-1
 0 1152 l 1,0,-1
128 1024 m 1,4,-1
 256 1024 l 1,5,-1
 256 640 l 1,6,-1
 128 640 l 1,7,-1
 128 1024 l 1,4,-1
256 640 m 1,8,-1
 512 640 l 1,9,-1
 512 512 l 1,10,-1
 256 512 l 1,11,-1
 256 640 l 1,8,-1
256 512 m 1,12,-1
 256 384 l 1,13,-1
 128 384 l 1,14,-1
 128 512 l 1,15,-1
 256 512 l 1,12,-1
128 512 m 1,16,-1
 0 512 l 1,17,-1
 0 640 l 1,18,-1
 128 640 l 1,19,-1
 128 512 l 1,16,-1
0 1024 m 1,20,-1
 0 896 l 1,21,-1
 -128 896 l 1,22,-1
 -128 1024 l 1,23,-1
 0 1024 l 1,20,-1
384 1024 m 1,24,-1
 512 1024 l 1,25,-1
 512 896 l 1,26,-1
 384 896 l 1,27,-1
 384 1024 l 1,24,-1
896 256 m 1,28,-1
 896 256 l 1,29,-1
 896 256 l 1,30,-1
 896 256 l 1,31,-1
 896 256 l 1,28,-1
EndSplineSet
Ligature2: "half subtable" Ba virama
LCarets2: 1 0
EndChar

StartChar: ma_half
Encoding: 132 -1 113
Width: 512
Flags: W
LayerCount: 2
Fore
SplineSet
-128 1024 m 1,0,-1
 512 1024 l 1,1,-1
 512 896 l 1,2,-1
 256 896 l 1,3,-1
 256 640 l 1,4,-1
 128 640 l 1,5,-1
 128 896 l 1,6,-1
 -128 896 l 1,7,-1
 -128 1024 l 1,0,-1
256 640 m 1,8,-1
 512 640 l 1,9,-1
 512 512 l 1,10,-1
 256 512 l 1,11,-1
 256 640 l 1,8,-1
256 512 m 1,12,-1
 256 384 l 1,13,-1
 128 384 l 1,14,-1
 128 512 l 1,15,-1
 256 512 l 1,12,-1
128 512 m 1,16,-1
 0 512 l 1,17,-1
 0 640 l 1,18,-1
 128 640 l 1,19,-1
 128 512 l 1,16,-1
EndSplineSet
Ligature2: "half subtable" ma virama
LCarets2: 1 0
EndChar

StartChar: ya_half
Encoding: 133 -1 114
Width: 512
Flags: W
LayerCount: 2
Fore
SplineSet
-128 1024 m 1,0,-1
 128 1024 l 1,1,-1
 512 1024 l 1,2,-1
 512 896 l 1,3,-1
 256 896 l 1,4,-1
 256 640 l 1,5,-1
 128 640 l 1,6,-1
 128 896 l 1,7,-1
 -128 896 l 1,8,-1
 -128 1024 l 1,0,-1
128 640 m 1,9,-1
 128 512 l 1,10,-1
 0 512 l 1,11,-1
 0 640 l 1,12,-1
 128 640 l 1,9,-1
128 512 m 1,13,-1
 256 512 l 1,14,-1
 384 512 l 1,15,-1
 384 384 l 1,16,-1
 256 384 l 1,17,-1
 128 384 l 1,18,-1
 128 512 l 1,13,-1
384 512 m 1,19,-1
 384 640 l 1,20,-1
 512 640 l 1,21,-1
 512 512 l 1,22,-1
 384 512 l 1,19,-1
EndSplineSet
Ligature2: "half subtable" ya virama
LCarets2: 1 -2432
EndChar

StartChar: la_half
Encoding: 134 -1 115
Width: 768
Flags: W
LayerCount: 2
Fore
SplineSet
0 256 m 1,0,-1
 0 384 l 1,1,-1
 0 512 l 1,2,-1
 128 512 l 1,3,-1
 128 384 l 1,4,-1
 128 256 l 1,5,-1
 0 256 l 1,0,-1
-128 896 m 5,6,-1
 -128 1024 l 1,7,-1
 128 1024 l 1,8,-1
 256 1024 l 1,9,-1
 384 1024 l 1,10,-1
 512 1024 l 1,11,-1
 768 1024 l 1,12,-1
 768 512 l 1,13,-1
 512 512 l 1,14,-1
 512 640 l 1,15,-1
 768 640 l 1,16,-1
 768 896 l 1,17,-1
 512 896 l 1,18,-1
 384 896 l 1,19,-1
 256 896 l 1,20,-1
 128 896 l 1,21,-1
 -128 896 l 5,6,-1
128 128 m 1,22,-1
 128 256 l 1,23,-1
 256 256 l 1,24,-1
 256 128 l 1,25,-1
 128 128 l 1,22,-1
128 512 m 1,26,-1
 128 640 l 1,27,-1
 256 640 l 1,28,-1
 384 640 l 1,29,-1
 384 512 l 1,30,-1
 256 512 l 1,31,-1
 128 512 l 1,26,-1
384 384 m 1,32,-1
 384 512 l 1,33,-1
 512 512 l 1,34,-1
 512 384 l 1,35,-1
 384 384 l 1,32,-1
EndSplineSet
Ligature2: "half subtable" la virama
LCarets2: 1 0
EndChar

StartChar: wa_half
Encoding: 135 -1 116
Width: 384
Flags: W
LayerCount: 2
Fore
SplineSet
-128 1024 m 1,0,-1
 384 1024 l 1,1,-1
 384 896 l 1,2,-1
 -128 896 l 1,3,-1
 -128 1024 l 1,0,-1
128 768 m 1,4,-1
 384 768 l 1,5,-1
 384 640 l 1,6,-1
 128 640 l 1,7,-1
 128 768 l 1,4,-1
128 640 m 1,8,-1
 128 384 l 1,9,-1
 0 384 l 1,10,-1
 0 640 l 1,11,-1
 128 640 l 1,8,-1
128 384 m 1,12,-1
 384 384 l 1,13,-1
 384 256 l 1,14,-1
 128 256 l 1,15,-1
 128 384 l 1,12,-1
EndSplineSet
Ligature2: "half subtable" wa virama
LCarets2: 1 0
EndChar

StartChar: Sa_half
Encoding: 136 -1 117
Width: 512
Flags: W
LayerCount: 2
Fore
SplineSet
-128 896 m 1,0,-1
 -128 1024 l 1,1,-1
 0 1024 l 1,2,-1
 0 896 l 1,3,-1
 -128 896 l 1,0,-1
0 384 m 1,4,-1
 0 512 l 1,5,-1
 128 512 l 1,6,-1
 128 384 l 1,7,-1
 0 384 l 1,4,-1
0 768 m 1,8,-1
 0 896 l 1,9,-1
 128 896 l 1,10,-1
 128 768 l 1,11,-1
 0 768 l 1,8,-1
0 1024 m 1,12,-1
 0 1152 l 1,13,-1
 128 1152 l 1,14,-1
 128 1024 l 1,15,-1
 0 1024 l 1,12,-1
128 256 m 1,16,-1
 128 384 l 1,17,-1
 256 384 l 1,18,-1
 256 256 l 1,19,-1
 128 256 l 1,16,-1
128 512 m 1,20,-1
 128 640 l 1,21,-1
 256 640 l 1,22,-1
 256 512 l 1,23,-1
 128 512 l 1,20,-1
128 896 m 1,24,-1
 128 1024 l 1,25,-1
 256 1024 l 1,26,-1
 256 896 l 1,27,-1
 128 896 l 1,24,-1
256 128 m 1,28,-1
 256 256 l 1,29,-1
 384 256 l 1,30,-1
 384 128 l 1,31,-1
 256 128 l 1,28,-1
256 640 m 1,32,-1
 256 768 l 1,33,-1
 256 896 l 1,34,-1
 384 896 l 1,35,-1
 384 768 l 1,36,-1
 384 640 l 1,37,-1
 256 640 l 1,32,-1
384 896 m 1,38,-1
 384 1024 l 1,39,-1
 512 1024 l 1,40,-1
 512 896 l 1,41,-1
 384 896 l 1,38,-1
EndSplineSet
Ligature2: "half subtable" Sa virama
LCarets2: 1 0
EndChar

StartChar: za_half
Encoding: 137 -1 118
Width: 512
Flags: W
LayerCount: 2
Fore
SplineSet
-128 896 m 1029,0,-1
0 896 m 1029,1,-1
-128 896 m 5,2,-1
 -128 1024 l 5,3,-1
 0 1024 l 5,4,-1
 0 896 l 5,5,-1
 -128 896 l 5,2,-1
0 640 m 1,6,-1
 0 768 l 1,7,-1
 0 896 l 1,8,-1
 0 1024 l 1,9,-1
 128 1024 l 1,10,-1
 256 1024 l 1,11,-1
 384 1024 l 1,12,-1
 512 1024 l 1,13,-1
 512 896 l 1,14,-1
 384 896 l 1,15,-1
 384 768 l 1,16,-1
 256 768 l 1,17,-1
 256 896 l 1,18,-1
 128 896 l 1,19,-1
 128 768 l 1,20,-1
 128 640 l 1,21,-1
 0 640 l 1,6,-1
128 512 m 1,22,-1
 128 640 l 1,23,-1
 256 640 l 1,24,-1
 384 640 l 1,25,-1
 384 512 l 1,26,-1
 256 512 l 1,27,-1
 128 512 l 1,22,-1
384 640 m 1,28,-1
 384 768 l 1,29,-1
 512 768 l 1,30,-1
 512 640 l 1,31,-1
 384 640 l 1,28,-1
EndSplineSet
Ligature2: "half subtable" za virama
LCarets2: 1 0
EndChar

StartChar: sa_half
Encoding: 138 -1 119
Width: 640
Flags: W
LayerCount: 2
Fore
SplineSet
0 384 m 1,0,-1
 0 512 l 1,1,-1
 128 512 l 1,2,-1
 128 384 l 1,3,-1
 0 384 l 1,0,-1
-128 896 m 5,4,-1
 -128 1024 l 1,5,-1
 128 1024 l 1,6,-1
 256 1024 l 1,7,-1
 384 1024 l 1,8,-1
 512 1024 l 1,9,-1
 640 1024 l 1,10,-1
 640 384 l 1,11,-1
 512 384 l 1,12,-1
 384 384 l 1,13,-1
 384 512 l 1,14,-1
 512 512 l 1,15,-1
 640 512 l 1,16,-1
 640 896 l 1,17,-1
 512 896 l 1,18,-1
 384 896 l 1,19,-1
 384 768 l 1,20,-1
 384 640 l 1,21,-1
 384 512 l 1,22,-1
 256 512 l 1,23,-1
 128 512 l 1,24,-1
 128 640 l 1,25,-1
 256 640 l 1,26,-1
 256 768 l 1,27,-1
 256 896 l 1,28,-1
 128 896 l 1,29,-1
 -128 896 l 5,4,-1
128 256 m 1,30,-1
 128 384 l 1,31,-1
 256 384 l 1,32,-1
 256 256 l 1,33,-1
 128 256 l 1,30,-1
256 128 m 1,34,-1
 256 256 l 1,35,-1
 384 256 l 1,36,-1
 384 128 l 1,37,-1
 256 128 l 1,34,-1
EndSplineSet
Ligature2: "half subtable" sa virama
LCarets2: 1 0
EndChar

StartChar: thra_half
Encoding: 139 -1 120
Width: 384
Flags: W
LayerCount: 2
Fore
SplineSet
-128 1024 m 1,0,-1
 384 1024 l 1,1,-1
 384 896 l 1,2,-1
 -128 896 l 1,3,-1
 -128 1024 l 1,0,-1
0 768 m 1,4,-1
 256 768 l 1,5,-1
 256 640 l 1,6,-1
 0 640 l 1,7,-1
 0 768 l 1,4,-1
256 640 m 1,8,-1
 384 640 l 1,9,-1
 384 512 l 1,10,-1
 256 512 l 1,11,-1
 256 640 l 1,8,-1
256 512 m 1,12,-1
 256 384 l 1,13,-1
 128 384 l 1,14,-1
 128 512 l 1,15,-1
 256 512 l 1,12,-1
128 384 m 1,16,-1
 128 256 l 1,17,-1
 0 256 l 1,18,-1
 0 384 l 1,19,-1
 128 384 l 1,16,-1
EndSplineSet
Ligature2: "half subtable" thra virama
LCarets2: 1 0
EndChar

StartChar: Pa_half
Encoding: 140 -1 121
Width: 768
Flags: W
LayerCount: 2
Fore
SplineSet
-128 896 m 1025,0,-1
0 896 m 1025,1,-1
-128 896 m 1,2,-1
 -128 1024 l 1,3,-1
 0 1024 l 1,4,-1
 0 896 l 1,5,-1
 -128 896 l 1,2,-1
0 640 m 1,6,-1
 0 768 l 1,7,-1
 0 896 l 1,8,-1
 0 1024 l 1,9,-1
 128 1024 l 1,10,-1
 256 1024 l 1,11,-1
 384 1024 l 1,12,-1
 512 1024 l 1,13,-1
 640 1024 l 1,14,-1
 768 1024 l 1,15,-1
 768 896 l 1,16,-1
 640 896 l 1,17,-1
 512 896 l 1,18,-1
 512 768 l 1,19,-1
 512 640 l 1,20,-1
 640 640 l 1,21,-1
 768 640 l 1,22,-1
 768 512 l 1,23,-1
 640 512 l 1,24,-1
 512 512 l 1,25,-1
 512 384 l 1,26,-1
 512 256 l 1,27,-1
 512 128 l 1,28,-1
 384 128 l 1,29,-1
 384 256 l 1,30,-1
 384 384 l 1,31,-1
 384 512 l 1,32,-1
 256 512 l 1,33,-1
 128 512 l 1,34,-1
 128 640 l 1,35,-1
 256 640 l 1,36,-1
 384 640 l 1,37,-1
 384 768 l 1,38,-1
 384 896 l 1,39,-1
 256 896 l 1,40,-1
 128 896 l 1,41,-1
 128 768 l 1,42,-1
 128 640 l 1,43,-1
 0 640 l 1,6,-1
EndSplineSet
Ligature2: "half subtable" Pa virama
LCarets2: 1 0
EndChar

StartChar: gnya
Encoding: 141 -1 122
Width: 1024
Flags: W
AnchorPoint: "mark_down" 768 128 basechar 0
AnchorPoint: "mark_up" 768 1024 basechar 0
LayerCount: 2
Fore
SplineSet
896 896 m 1025,0,-1
1024 896 m 1025,1,-1
896 896 m 1,2,-1
 896 1024 l 1,3,-1
 1024 1024 l 1,4,-1
 1024 896 l 1,5,-1
 896 896 l 1,2,-1
0 128 m 1,6,-1
 0 384 l 1,7,-1
 128 384 l 1,8,-1
 128 128 l 1,9,-1
 0 128 l 1,6,-1
128 384 m 1,10,-1
 128 512 l 1,11,-1
 256 512 l 1,12,-1
 256 384 l 1,13,-1
 128 384 l 1,10,-1
-128 896 m 1,14,-1
 -128 1024 l 1,15,-1
 256 1024 l 1,16,-1
 384 1024 l 1,17,-1
 512 1024 l 1,18,-1
 640 1024 l 1,19,-1
 768 1024 l 1,20,-1
 896 1024 l 1,21,-1
 896 896 l 1,22,-1
 896 768 l 1,23,-1
 896 640 l 1,24,-1
 896 512 l 1,25,-1
 896 384 l 1,26,-1
 896 256 l 1,27,-1
 896 128 l 1,28,-1
 768 128 l 1,29,-1
 768 256 l 1,30,-1
 768 384 l 1,31,-1
 768 512 l 1,32,-1
 640 512 l 1,33,-1
 640 384 l 1,34,-1
 512 384 l 1,35,-1
 512 512 l 1,36,-1
 512 640 l 1,37,-1
 640 640 l 1,38,-1
 768 640 l 1,39,-1
 768 768 l 1,40,-1
 768 896 l 1,41,-1
 640 896 l 1,42,-1
 512 896 l 1,43,-1
 384 896 l 1,44,-1
 256 896 l 1,45,-1
 -128 896 l 1,14,-1
256 256 m 1,46,-1
 256 384 l 1,47,-1
 384 384 l 1,48,-1
 512 384 l 1,49,-1
 512 256 l 1,50,-1
 384 256 l 1,51,-1
 256 256 l 1,46,-1
384 768 m 1,52,-1
 512 768 l 1,53,-1
 512 640 l 1,54,-1
 384 640 l 1,55,-1
 384 768 l 1,52,-1
EndSplineSet
Ligature2: "akhn subtable" ja virama nya
LCarets2: 2 0 0
EndChar

StartChar: gnya_half
Encoding: 142 -1 123
Width: 768
Flags: W
LayerCount: 2
Fore
SplineSet
-128 1024 m 1,0,-1
 768 1024 l 1,1,-1
 768 896 l 1,2,-1
 -128 896 l 1,3,-1
 -128 1024 l 1,0,-1
384 768 m 1,4,-1
 512 768 l 1,5,-1
 512 640 l 1,6,-1
 384 640 l 1,7,-1
 384 768 l 1,4,-1
512 640 m 1,8,-1
 640 640 l 1,9,-1
 768 640 l 1,10,-1
 768 512 l 1,11,-1
 640 512 l 1,12,-1
 640 384 l 1,13,-1
 512 384 l 1,14,-1
 512 512 l 1,15,-1
 512 640 l 1,8,-1
512 384 m 1,16,-1
 512 256 l 1,17,-1
 384 256 l 1,18,-1
 256 256 l 1,19,-1
 256 384 l 1,20,-1
 384 384 l 1,21,-1
 512 384 l 1,16,-1
256 384 m 1,22,-1
 128 384 l 1,23,-1
 128 512 l 1,24,-1
 256 512 l 1,25,-1
 256 384 l 1,22,-1
128 384 m 1,26,-1
 128 128 l 1,27,-1
 0 128 l 1,28,-1
 0 384 l 1,29,-1
 128 384 l 1,26,-1
EndSplineSet
Ligature2: "half subtable" gnya virama
LCarets2: 1 0
EndChar

StartChar: Xa_half
Encoding: 143 -1 124
Width: 768
Flags: W
LayerCount: 2
Fore
SplineSet
-128 1024 m 1,0,-1
 768 1024 l 5,1,-1
 768 896 l 5,2,-1
 -128 896 l 1,3,-1
 -128 1024 l 1,0,-1
128 768 m 1,4,-1
 256 768 l 1,5,-1
 256 640 l 1,6,-1
 128 640 l 1,7,-1
 128 768 l 1,4,-1
128 640 m 1,8,-1
 128 384 l 1,9,-1
 0 384 l 1,10,-1
 0 640 l 1,11,-1
 128 640 l 1,8,-1
128 384 m 1,12,-1
 256 384 l 1,13,-1
 256 256 l 1,14,-1
 128 256 l 1,15,-1
 128 384 l 1,12,-1
256 384 m 1,16,-1
 256 512 l 1,17,-1
 384 512 l 1,18,-1
 384 384 l 1,19,-1
 256 384 l 1,16,-1
256 256 m 1,20,-1
 384 256 l 1,21,-1
 512 256 l 1,22,-1
 512 128 l 1,23,-1
 384 128 l 1,24,-1
 256 128 l 1,25,-1
 256 256 l 1,20,-1
512 256 m 1,26,-1
 512 384 l 1,27,-1
 640 384 l 1,28,-1
 640 256 l 1,29,-1
 512 256 l 1,26,-1
640 384 m 1,30,-1
 640 512 l 1,31,-1
 768 512 l 1,32,-1
 768 384 l 1,33,-1
 640 384 l 1,30,-1
640 512 m 1,34,-1
 512 512 l 1,35,-1
 512 640 l 1,36,-1
 640 640 l 1,37,-1
 640 512 l 1,34,-1
640 640 m 1,38,-1
 640 768 l 1,39,-1
 768 768 l 1,40,-1
 768 640 l 1,41,-1
 640 640 l 1,38,-1
768 640 m 1,42,-1
 896 640 l 1,43,-1
 896 512 l 1,44,-1
 768 512 l 1,45,-1
 768 640 l 1,42,-1
EndSplineSet
Ligature2: "half subtable" Xa virama
LCarets2: 1 0
EndChar

StartChar: La_half
Encoding: 144 -1 125
Width: 768
Flags: W
LayerCount: 2
Fore
SplineSet
0 384 m 1,0,-1
 0 512 l 1,1,-1
 0 640 l 1,2,-1
 128 640 l 1,3,-1
 128 512 l 1,4,-1
 128 384 l 1,5,-1
 0 384 l 1,0,-1
-128 896 m 5,6,-1
 -128 1024 l 1,7,-1
 128 1024 l 1,8,-1
 256 1024 l 1,9,-1
 384 1024 l 1,10,-1
 512 1024 l 1,11,-1
 768 1024 l 1,12,-1
 768 896 l 1,13,-1
 512 896 l 1,14,-1
 384 896 l 1,15,-1
 256 896 l 1,16,-1
 128 896 l 1,17,-1
 -128 896 l 5,6,-1
128 256 m 1,18,-1
 128 384 l 1,19,-1
 256 384 l 1,20,-1
 384 384 l 1,21,-1
 384 256 l 1,22,-1
 256 256 l 1,23,-1
 128 256 l 1,18,-1
128 640 m 1,24,-1
 128 768 l 1,25,-1
 256 768 l 1,26,-1
 384 768 l 1,27,-1
 384 640 l 1,28,-1
 256 640 l 1,29,-1
 128 640 l 1,24,-1
384 384 m 1,30,-1
 384 512 l 1,31,-1
 384 640 l 1,32,-1
 512 640 l 1,33,-1
 512 512 l 1,34,-1
 512 384 l 1,35,-1
 384 384 l 1,30,-1
512 256 m 1,36,-1
 512 384 l 1,37,-1
 640 384 l 1,38,-1
 768 384 l 1,39,-1
 768 256 l 1,40,-1
 640 256 l 1,41,-1
 512 256 l 1,36,-1
512 640 m 1,42,-1
 512 768 l 1,43,-1
 640 768 l 1,44,-1
 768 768 l 1,45,-1
 768 640 l 1,46,-1
 640 640 l 1,47,-1
 512 640 l 1,42,-1
EndSplineSet
Ligature2: "half subtable" La virama
LCarets2: 1 0
EndChar

StartChar: kza
Encoding: 145 -1 126
Width: 896
Flags: W
AnchorPoint: "mark_down" 640 128 basechar 0
AnchorPoint: "mark_up" 640 1024 basechar 0
LayerCount: 2
Fore
SplineSet
768 896 m 1025,0,-1
896 896 m 1025,1,-1
768 896 m 1,2,-1
 768 1024 l 1,3,-1
 896 1024 l 1,4,-1
 896 896 l 1,5,-1
 768 896 l 1,2,-1
0 512 m 1,6,-1
 0 640 l 1,7,-1
 0 768 l 1,8,-1
 128 768 l 1,9,-1
 128 640 l 1,10,-1
 128 512 l 1,11,-1
 0 512 l 1,6,-1
0 896 m 1,12,-1
 0 1024 l 1,13,-1
 128 1024 l 1,14,-1
 128 896 l 1,15,-1
 0 896 l 1,12,-1
128 384 m 1,16,-1
 128 512 l 1,17,-1
 256 512 l 1,18,-1
 384 512 l 1,19,-1
 384 384 l 1,20,-1
 256 384 l 1,21,-1
 128 384 l 1,16,-1
128 768 m 1,22,-1
 128 896 l 1,23,-1
 256 896 l 1,24,-1
 256 768 l 1,25,-1
 128 768 l 1,22,-1
128 1024 m 1,26,-1
 128 1152 l 1,27,-1
 256 1152 l 1,28,-1
 256 1024 l 1,29,-1
 128 1024 l 1,26,-1
256 128 m 1,30,-1
 256 256 l 1,31,-1
 384 256 l 1,32,-1
 384 128 l 1,33,-1
 256 128 l 1,30,-1
256 640 m 1,34,-1
 256 768 l 1,35,-1
 384 768 l 1,36,-1
 512 768 l 1,37,-1
 512 640 l 1,38,-1
 384 640 l 1,39,-1
 256 640 l 1,34,-1
256 896 m 1,40,-1
 256 1024 l 1,41,-1
 384 1024 l 1,42,-1
 384 896 l 1,43,-1
 256 896 l 1,40,-1
384 256 m 1,44,-1
 384 384 l 1,45,-1
 512 384 l 1,46,-1
 512 256 l 1,47,-1
 384 256 l 1,44,-1
512 512 m 1,48,-1
 512 640 l 1,49,-1
 640 640 l 1,50,-1
 640 768 l 1,51,-1
 640 896 l 1,52,-1
 512 896 l 1,53,-1
 512 1024 l 1,54,-1
 640 1024 l 1,55,-1
 768 1024 l 1,56,-1
 768 896 l 1,57,-1
 768 768 l 1,58,-1
 768 640 l 1,59,-1
 768 512 l 1,60,-1
 768 384 l 1,61,-1
 768 256 l 1,62,-1
 768 128 l 1,63,-1
 640 128 l 1,64,-1
 640 256 l 1,65,-1
 640 384 l 1,66,-1
 640 512 l 1,67,-1
 512 512 l 1,48,-1
EndSplineSet
Ligature2: "akhn subtable" ka virama za
LCarets2: 2 0 0
EndChar

StartChar: kza_half
Encoding: 146 -1 127
Width: 640
Flags: W
LayerCount: 2
Fore
SplineSet
512 896 m 1025,0,-1
640 896 m 1025,1,-1
512 896 m 1,2,-1
 512 1024 l 1,3,-1
 640 1024 l 1,4,-1
 640 896 l 1,5,-1
 512 896 l 1,2,-1
0 512 m 1,6,-1
 0 640 l 1,7,-1
 0 768 l 1,8,-1
 128 768 l 1,9,-1
 128 640 l 1,10,-1
 128 512 l 1,11,-1
 0 512 l 1,6,-1
0 896 m 1,12,-1
 0 1024 l 1,13,-1
 128 1024 l 1,14,-1
 128 896 l 1,15,-1
 0 896 l 1,12,-1
128 384 m 1,16,-1
 128 512 l 1,17,-1
 256 512 l 1,18,-1
 384 512 l 1,19,-1
 384 384 l 1,20,-1
 256 384 l 1,21,-1
 128 384 l 1,16,-1
128 768 m 1,22,-1
 128 896 l 1,23,-1
 256 896 l 1,24,-1
 256 768 l 1,25,-1
 128 768 l 1,22,-1
128 1024 m 1,26,-1
 128 1152 l 1,27,-1
 256 1152 l 1,28,-1
 256 1024 l 1,29,-1
 128 1024 l 1,26,-1
256 128 m 1,30,-1
 256 256 l 1,31,-1
 384 256 l 1,32,-1
 384 128 l 1,33,-1
 256 128 l 1,30,-1
256 640 m 1,34,-1
 256 768 l 1,35,-1
 384 768 l 1,36,-1
 512 768 l 1,37,-1
 512 640 l 1,38,-1
 384 640 l 1,39,-1
 256 640 l 1,34,-1
256 896 m 1,40,-1
 256 1024 l 1,41,-1
 384 1024 l 1,42,-1
 384 896 l 1,43,-1
 256 896 l 1,40,-1
384 256 m 1,44,-1
 384 384 l 1,45,-1
 512 384 l 1,46,-1
 512 256 l 1,47,-1
 384 256 l 1,44,-1
512 512 m 1,48,-1
 512 640 l 1,49,-1
 640 640 l 1,50,-1
 640 512 l 1,51,-1
 512 512 l 1,48,-1
EndSplineSet
Ligature2: "half subtable" kza virama
LCarets2: 1 0
EndChar

StartChar: short_i_six
Encoding: 147 -1 128
Width: 256
Flags: W
LayerCount: 2
Fore
SplineSet
128 512 m 5,0,-1
 128 128 l 5,1,-1
 0 128 l 5,2,-1
 0 384 l 5,3,-1
 0 896 l 5,4,-1
 -128 896 l 5,5,-1
 -128 1024 l 5,6,-1
 0 1024 l 5,7,-1
 0 1280 l 5,8,-1
 128 1280 l 5,9,-1
 128 1024 l 5,10,-1
 256 1024 l 5,11,-1
 256 896 l 5,12,-1
 128 896 l 5,13,-1
 128 512 l 5,0,-1
640 1280 m 5,14,-1
 128 1280 l 5,15,-1
 128 1408 l 5,16,-1
 640 1408 l 5,17,-1
 640 1280 l 5,14,-1
640 1280 m 5,18,-1
 768 1280 l 5,19,-1
 768 1152 l 5,20,-1
 640 1152 l 5,21,-1
 640 1280 l 5,18,-1
896 1152 m 5,22,-1
 896 1024 l 5,23,-1
 768 1024 l 5,24,-1
 768 1152 l 5,25,-1
 896 1152 l 5,22,-1
EndSplineSet
EndChar

StartChar: long_i_five
Encoding: 148 -1 129
Width: 256
Flags: W
LayerCount: 2
Fore
SplineSet
0 640 m 1,0,-1
 0 896 l 1,1,-1
 -640 896 l 1,2,-1
 -640 1152 l 1,3,-1
 -512 1152 l 1,4,-1
 -512 1024 l 1,5,-1
 0 1024 l 1,6,-1
 0 1280 l 1,7,-1
 128 1280 l 1,8,-1
 128 1152 l 1,9,-1
 128 1024 l 1,10,-1
 256 1024 l 1,11,-1
 256 896 l 1,12,-1
 128 896 l 1,13,-1
 128 640 l 1,14,-1
 128 384 l 1,15,-1
 128 128 l 1,16,-1
 0 128 l 1,17,-1
 0 640 l 1,0,-1
0 1408 m 1,18,-1
 0 1280 l 1,19,-1
 -512 1280 l 1,20,-1
 -640 1280 l 1,21,-1
 -640 1408 l 1,22,-1
 -512 1408 l 1,23,-1
 0 1408 l 1,18,-1
-640 1152 m 1,24,-1
 -768 1152 l 1,25,-1
 -768 1280 l 1,26,-1
 -640 1280 l 1,27,-1
 -640 1152 l 1,24,-1
EndSplineSet
EndChar

StartChar: ru_short
Encoding: 149 -1 130
Width: 896
Flags: W
LayerCount: 2
Fore
SplineSet
768 896 m 1025,0,-1
896 896 m 1025,1,-1
768 896 m 1,2,-1
 768 1024 l 1,3,-1
 896 1024 l 1,4,-1
 896 896 l 1,5,-1
 768 896 l 1,2,-1
512 128 m 1024,6,-1
640 128 m 1024,7,-1
512 128 m 1,8,-1
 512 256 l 1,9,-1
 640 256 l 1,10,-1
 640 128 l 1,11,-1
 512 128 l 1,8,-1
384 896 m 1,12,-1
 384 1024 l 1,13,-1
 768 1024 l 1,14,-1
 768 896 l 1,15,-1
 384 896 l 1,12,-1
384 384 m 1,16,-1
 384 512 l 1,17,-1
 512 512 l 1,18,-1
 512 384 l 1,19,-1
 384 384 l 1,16,-1
512 512 m 1,20,-1
 512 640 l 1,21,-1
 640 640 l 1,22,-1
 640 512 l 1,23,-1
 512 512 l 1,20,-1
640 256 m 1,24,-1
 640 512 l 1,25,-1
 768 512 l 1,26,-1
 768 256 l 1,27,-1
 640 256 l 1,24,-1
0 384 m 1,28,-1
 0 512 l 1,29,-1
 128 512 l 1,30,-1
 128 384 l 1,31,-1
 0 384 l 1,28,-1
-128 896 m 5,32,-1
 -128 1024 l 1,33,-1
 128 1024 l 1,34,-1
 256 1024 l 1,35,-1
 384 1024 l 1,36,-1
 384 896 l 1,37,-1
 384 768 l 1,38,-1
 384 640 l 1,39,-1
 384 512 l 1,40,-1
 256 512 l 1,41,-1
 128 512 l 1,42,-1
 128 640 l 1,43,-1
 256 640 l 1,44,-1
 256 768 l 1,45,-1
 256 896 l 1,46,-1
 128 896 l 1,47,-1
 -128 896 l 5,32,-1
128 256 m 1,48,-1
 128 384 l 1,49,-1
 256 384 l 1,50,-1
 256 256 l 1,51,-1
 128 256 l 1,48,-1
256 128 m 1,52,-1
 256 256 l 1,53,-1
 384 256 l 1,54,-1
 384 128 l 1,55,-1
 256 128 l 1,52,-1
EndSplineSet
Ligature2: "blws subtable" ra dv_u
LCarets2: 1 0
EndChar

StartChar: ru_long
Encoding: 150 -1 131
Width: 1152
Flags: W
LayerCount: 2
Fore
SplineSet
1024 896 m 1025,0,-1
1152 896 m 1025,1,-1
1024 896 m 1,2,-1
 1024 1024 l 1,3,-1
 1152 1024 l 1,4,-1
 1152 896 l 1,5,-1
 1024 896 l 1,2,-1
384 896 m 1025,6,-1
384 896 m 1,7,-1
 384 1024 l 1,8,-1
 1024 1024 l 1,9,-1
 1024 896 l 1,10,-1
 384 896 l 1,7,-1
384 384 m 1,11,-1
 384 512 l 1,12,-1
 512 512 l 1,13,-1
 512 384 l 1,14,-1
 384 384 l 1,11,-1
512 256 m 1,15,-1
 512 384 l 1,16,-1
 640 384 l 1,17,-1
 640 256 l 1,18,-1
 512 256 l 1,15,-1
512 512 m 1,19,-1
 512 640 l 1,20,-1
 640 640 l 1,21,-1
 768 640 l 1,22,-1
 768 512 l 1,23,-1
 640 512 l 1,24,-1
 512 512 l 1,19,-1
768 384 m 1,25,-1
 768 512 l 1,26,-1
 896 512 l 1,27,-1
 896 384 l 1,28,-1
 768 384 l 1,25,-1
896 256 m 1,29,-1
 896 384 l 1,30,-1
 1024 384 l 1,31,-1
 1024 256 l 1,32,-1
 896 256 l 1,29,-1
0 384 m 1,33,-1
 0 512 l 1,34,-1
 128 512 l 1,35,-1
 128 384 l 1,36,-1
 0 384 l 1,33,-1
-128 896 m 5,37,-1
 -128 1024 l 1,38,-1
 128 1024 l 1,39,-1
 256 1024 l 1,40,-1
 384 1024 l 1,41,-1
 384 896 l 1,42,-1
 384 768 l 1,43,-1
 384 640 l 1,44,-1
 384 512 l 1,45,-1
 256 512 l 1,46,-1
 128 512 l 1,47,-1
 128 640 l 1,48,-1
 256 640 l 1,49,-1
 256 768 l 1,50,-1
 256 896 l 1,51,-1
 128 896 l 1,52,-1
 -128 896 l 5,37,-1
128 256 m 1,53,-1
 128 384 l 1,54,-1
 256 384 l 1,55,-1
 256 256 l 1,56,-1
 128 256 l 1,53,-1
256 128 m 1,57,-1
 256 256 l 1,58,-1
 384 256 l 1,59,-1
 384 128 l 1,60,-1
 256 128 l 1,57,-1
EndSplineSet
Ligature2: "blws subtable" ra dv_uu
LCarets2: 1 0
EndChar

StartChar: rakar_double
Encoding: 151 -1 132
Width: 0
Flags: W
AnchorPoint: "rakar" -128 256 mark 0
LayerCount: 2
Fore
SplineSet
-384 0 m 1,0,-1
 -384 128 l 1,1,-1
 -256 128 l 1,2,-1
 -256 0 l 1,3,-1
 -384 0 l 1,0,-1
-128 0 m 1,4,-1
 -128 128 l 1,5,-1
 0 128 l 1,6,-1
 0 0 l 1,7,-1
 -128 0 l 1,4,-1
-256 128 m 1,8,-1
 -256 256 l 1,9,-1
 -128 256 l 1,10,-1
 -128 128 l 1,11,-1
 -256 128 l 1,8,-1
EndSplineSet
EndChar

StartChar: udatta
Encoding: 79 2385 133
Width: 0
Flags: W
AnchorPoint: "mark_up" -128 1024 mark 0
LayerCount: 2
Fore
SplineSet
-128 1152 m 1024,0,-1
0 1152 m 1024,1,-1
-128 1152 m 1,2,-1
 -128 1408 l 1,3,-1
 0 1408 l 1,4,-1
 0 1152 l 1,5,-1
 -128 1152 l 1,2,-1
EndSplineSet
EndChar

StartChar: dhya
Encoding: 152 -1 134
Width: 896
Flags: W
AnchorPoint: "rakar" 384 128 basechar 0
AnchorPoint: "mark_down" 640 128 basechar 0
AnchorPoint: "mark_up" 640 1024 basechar 0
LayerCount: 2
Fore
SplineSet
768 128 m 1,0,-1
 640 128 l 1,1,-1
 640 384 l 1,2,-1
 512 384 l 1,3,-1
 512 512 l 1,4,-1
 640 512 l 1,5,-1
 640 896 l 1,6,-1
 512 896 l 1,7,-1
 512 768 l 1,8,-1
 384 768 l 1,9,-1
 384 896 l 1,10,-1
 -128 896 l 1,11,-1
 -128 1024 l 1,12,-1
 896 1024 l 1,13,-1
 896 896 l 1,14,-1
 768 896 l 1,15,-1
 768 128 l 1,0,-1
256 640 m 1,16,-1
 128 640 l 1,17,-1
 128 768 l 1,18,-1
 256 768 l 1,19,-1
 384 768 l 1,20,-1
 384 640 l 1,21,-1
 256 640 l 1,16,-1
384 128 m 1,22,-1
 128 128 l 1,23,-1
 128 256 l 1,24,-1
 384 256 l 1,25,-1
 384 128 l 1,22,-1
128 512 m 1,26,-1
 0 512 l 1,27,-1
 0 640 l 1,28,-1
 128 640 l 1,29,-1
 128 512 l 1,26,-1
0 256 m 1,30,-1
 0 384 l 1,31,-1
 128 384 l 1,32,-1
 128 256 l 1,33,-1
 0 256 l 1,30,-1
256 512 m 1,34,-1
 256 384 l 1,35,-1
 128 384 l 1,36,-1
 128 512 l 1,37,-1
 256 512 l 1,34,-1
384 384 m 1,38,-1
 512 384 l 1,39,-1
 512 256 l 1,40,-1
 384 256 l 1,41,-1
 384 384 l 1,38,-1
EndSplineSet
Ligature2: "akhn subtable" dha virama ya
LCarets2: 2 0 0
EndChar

StartChar: rakar
Encoding: 153 -1 135
Width: 0
Flags: W
AnchorPoint: "rakar" 0 256 mark 0
LayerCount: 2
Fore
SplineSet
-384 128 m 1,0,-1
 -256 128 l 1,1,-1
 -256 0 l 1,2,-1
 -384 0 l 1,3,-1
 -384 128 l 1,0,-1
-256 256 m 1,4,-1
 -128 256 l 1,5,-1
 -128 128 l 1,6,-1
 -256 128 l 1,7,-1
 -256 256 l 1,4,-1
-128 384 m 1,8,-1
 0 384 l 1,9,-1
 0 256 l 1,10,-1
 -128 256 l 1,11,-1
 -128 384 l 1,8,-1
EndSplineSet
Substitution2: "Single Substitution lookup 8 subtable" rakar_double
Ligature2: "blwf subtable" virama ra
LCarets2: 1 0
EndChar

StartChar: reph
Encoding: 154 -1 136
Width: 0
Flags: W
AnchorPoint: "mark_up" -256 1024 mark 0
LayerCount: 2
Fore
SplineSet
-128 1280 m 1025,0,-1
128 1280 m 1025,1,-1
-128 1280 m 1,2,-1
 -128 1408 l 1,3,-1
 128 1408 l 1,4,-1
 128 1280 l 1,5,-1
 -128 1280 l 1,2,-1
-256 1024 m 1024,6,-1
-128 1024 m 1024,7,-1
-256 1024 m 1,8,-1
 -256 1280 l 1,9,-1
 -128 1280 l 1,10,-1
 -128 1024 l 1,11,-1
 -256 1024 l 1,8,-1
EndSplineSet
Ligature2: "rphf subtable" ra virama
LCarets2: 1 0
EndChar

StartChar: Sra
Encoding: 155 -1 137
Width: 768
Flags: W
AnchorPoint: "mark_down" 512 128 basechar 0
AnchorPoint: "mark_up" 512 1024 basechar 0
LayerCount: 2
Fore
SplineSet
512 128 m 1,0,-1
 512 512 l 1,1,-1
 384 512 l 1,2,-1
 384 640 l 1,3,-1
 512 640 l 1,4,-1
 512 1024 l 1,5,-1
 768 1024 l 1,6,-1
 768 896 l 1,7,-1
 640 896 l 1,8,-1
 640 768 l 1,9,-1
 640 128 l 1,10,-1
 512 128 l 1,0,-1
0 640 m 1,11,-1
 0 512 l 1,12,-1
 -128 512 l 1,13,-1
 -128 640 l 1,14,-1
 0 640 l 1,11,-1
0 896 m 1,15,-1
 0 1024 l 1,16,-1
 128 1024 l 1,17,-1
 128 896 l 1,18,-1
 0 896 l 1,15,-1
0 768 m 1,19,-1
 128 768 l 1,20,-1
 128 640 l 1,21,-1
 0 640 l 1,22,-1
 0 768 l 1,19,-1
128 128 m 1,23,-1
 0 128 l 1,24,-1
 0 256 l 1,25,-1
 128 256 l 1,26,-1
 128 128 l 1,23,-1
128 1024 m 1,27,-1
 128 1152 l 1,28,-1
 256 1152 l 1,29,-1
 256 1024 l 1,30,-1
 128 1024 l 1,27,-1
256 896 m 1,31,-1
 256 768 l 1,32,-1
 128 768 l 1,33,-1
 128 896 l 1,34,-1
 256 896 l 1,31,-1
128 384 m 1,35,-1
 256 384 l 1,36,-1
 256 256 l 1,37,-1
 128 256 l 1,38,-1
 128 384 l 1,35,-1
384 1024 m 1,39,-1
 384 896 l 1,40,-1
 256 896 l 1,41,-1
 256 1024 l 1,42,-1
 384 1024 l 1,39,-1
256 640 m 1,43,-1
 256 768 l 1,44,-1
 384 768 l 1,45,-1
 384 640 l 1,46,-1
 256 640 l 1,43,-1
384 384 m 1,47,-1
 256 384 l 1,48,-1
 256 512 l 1,49,-1
 384 512 l 1,50,-1
 384 384 l 1,47,-1
EndSplineSet
Ligature2: "vatu subtable" Sa rakar
Ligature2: "rkrf subtable" Sa virama ra
LCarets2: 2 0 0
EndChar

StartChar: ththa
Encoding: 156 -1 138
Width: 1024
Flags: W
AnchorPoint: "rakar" 896 128 basechar 0
AnchorPoint: "mark_down" 768 128 basechar 0
AnchorPoint: "mark_up" 768 1024 basechar 0
LayerCount: 2
Fore
SplineSet
896 128 m 1,0,-1
 768 128 l 1,1,-1
 768 512 l 1,2,-1
 640 512 l 1,3,-1
 384 512 l 1,4,-1
 384 256 l 1,5,-1
 256 256 l 1,6,-1
 256 512 l 1,7,-1
 0 512 l 1,8,-1
 0 640 l 1,9,-1
 768 640 l 1,10,-1
 768 896 l 1,11,-1
 -128 896 l 5,12,-1
 -128 1024 l 1,13,-1
 1024 1024 l 1,14,-1
 1024 896 l 1,15,-1
 896 896 l 1,16,-1
 896 128 l 1,0,-1
512 128 m 1,17,-1
 384 128 l 1,18,-1
 384 256 l 1,19,-1
 512 256 l 1,20,-1
 512 128 l 1,17,-1
EndSplineSet
Ligature2: "akhn subtable" tha virama tha
LCarets2: 2 0 0
EndChar

StartChar: dhwa
Encoding: 157 -1 139
Width: 768
Flags: W
AnchorPoint: "rakar" 384 0 basechar 0
AnchorPoint: "mark_down" 512 0 basechar 0
AnchorPoint: "mark_up" 512 1024 basechar 0
LayerCount: 2
Fore
SplineSet
-128 896 m 5,0,-1
 -128 1024 l 1,1,-1
 768 1024 l 1,2,-1
 768 896 l 1,3,-1
 640 896 l 1,4,-1
 640 768 l 1,5,-1
 512 768 l 1,6,-1
 512 896 l 1,7,-1
 -128 896 l 5,0,-1
128 0 m 1,8,-1
 128 128 l 1,9,-1
 512 128 l 1,10,-1
 512 0 l 1,11,-1
 128 0 l 1,8,-1
0 128 m 1,12,-1
 0 384 l 1,13,-1
 128 384 l 1,14,-1
 128 128 l 1,15,-1
 0 128 l 1,12,-1
128 384 m 1,16,-1
 128 640 l 1,17,-1
 256 640 l 1,18,-1
 256 384 l 1,19,-1
 128 384 l 1,16,-1
512 768 m 1,20,-1
 512 640 l 1,21,-1
 384 640 l 1,22,-1
 256 640 l 1,23,-1
 256 768 l 1,24,-1
 384 768 l 1,25,-1
 512 768 l 1,20,-1
384 256 m 1,26,-1
 256 256 l 1,27,-1
 256 384 l 1,28,-1
 384 384 l 1,29,-1
 512 384 l 1,30,-1
 512 256 l 1,31,-1
 384 256 l 1,26,-1
640 384 m 1,32,-1
 512 384 l 1,33,-1
 512 512 l 1,34,-1
 640 512 l 1,35,-1
 640 384 l 1,32,-1
512 128 m 1,36,-1
 512 256 l 1,37,-1
 640 256 l 1,38,-1
 640 128 l 1,39,-1
 512 128 l 1,36,-1
EndSplineSet
Ligature2: "akhn subtable" dha virama wa
LCarets2: 2 0 0
EndChar

StartChar: hma
Encoding: 158 -1 140
Width: 1024
Flags: W
AnchorPoint: "rakar" 896 128 basechar 0
AnchorPoint: "mark_down" 768 128 basechar 0
AnchorPoint: "mark_up" 768 1024 basechar 0
LayerCount: 2
Fore
SplineSet
384 640 m 1,0,-1
 128 640 l 1,1,-1
 128 768 l 1,2,-1
 256 768 l 1,3,-1
 256 896 l 1,4,-1
 -128 896 l 5,5,-1
 -128 1024 l 1,6,-1
 1024 1024 l 1,7,-1
 1024 896 l 1,8,-1
 896 896 l 1,9,-1
 896 128 l 1,10,-1
 768 128 l 1,11,-1
 768 384 l 1,12,-1
 512 384 l 1,13,-1
 512 512 l 1,14,-1
 768 512 l 1,15,-1
 768 896 l 1,16,-1
 384 896 l 1,17,-1
 384 640 l 1,0,-1
128 128 m 1,18,-1
 0 128 l 1,19,-1
 0 256 l 1,20,-1
 0 384 l 1,21,-1
 128 384 l 1,22,-1
 128 256 l 1,23,-1
 128 128 l 1,18,-1
256 512 m 1,24,-1
 384 512 l 1,25,-1
 384 384 l 1,26,-1
 256 384 l 1,27,-1
 128 384 l 1,28,-1
 128 512 l 1,29,-1
 256 512 l 1,24,-1
384 128 m 1,30,-1
 384 0 l 1,31,-1
 256 0 l 1,32,-1
 128 0 l 1,33,-1
 128 128 l 1,34,-1
 256 128 l 1,35,-1
 384 128 l 1,30,-1
128 640 m 1,36,-1
 128 512 l 1,37,-1
 0 512 l 1,38,-1
 0 640 l 1,39,-1
 128 640 l 1,36,-1
512 384 m 1,40,-1
 512 256 l 1,41,-1
 384 256 l 1,42,-1
 384 384 l 1,43,-1
 512 384 l 1,40,-1
EndSplineSet
Ligature2: "akhn subtable" ha virama ma
LCarets2: 2 0 0
EndChar

StartChar: hya
Encoding: 159 -1 141
Width: 896
Flags: W
AnchorPoint: "rakar" 256 0 basechar 0
AnchorPoint: "mark_down" 640 128 basechar 0
AnchorPoint: "mark_up" 640 1024 basechar 0
LayerCount: 2
Fore
SplineSet
768 896 m 1,0,-1
 768 128 l 1,1,-1
 640 128 l 1,2,-1
 640 512 l 1,3,-1
 512 512 l 1,4,-1
 512 640 l 1,5,-1
 640 640 l 1,6,-1
 640 896 l 1,7,-1
 384 896 l 1,8,-1
 384 640 l 1,9,-1
 128 640 l 1,10,-1
 128 768 l 1,11,-1
 256 768 l 1,12,-1
 256 896 l 1,13,-1
 -128 896 l 1,14,-1
 -128 1024 l 1,15,-1
 896 1024 l 1,16,-1
 896 896 l 1,17,-1
 768 896 l 1,0,-1
128 0 m 1,18,-1
 128 128 l 1,19,-1
 384 128 l 1,20,-1
 384 0 l 5,21,-1
 128 0 l 1,18,-1
0 256 m 1,22,-1
 0 384 l 1,23,-1
 128 384 l 1,24,-1
 128 256 l 1,25,-1
 128 128 l 1,26,-1
 0 128 l 1,27,-1
 0 256 l 1,22,-1
128 512 m 1,28,-1
 0 512 l 1,29,-1
 0 640 l 1,30,-1
 128 640 l 1,31,-1
 128 512 l 1,28,-1
256 384 m 1,32,-1
 128 384 l 1,33,-1
 128 512 l 1,34,-1
 256 512 l 1,35,-1
 256 384 l 1,32,-1
256 256 m 1,36,-1
 256 384 l 1,37,-1
 384 384 l 1,38,-1
 384 256 l 1,39,-1
 256 256 l 1,36,-1
512 512 m 1,40,-1
 512 384 l 1,41,-1
 384 384 l 1,42,-1
 384 512 l 1,43,-1
 512 512 l 1,40,-1
EndSplineSet
Ligature2: "akhn subtable" ha virama ya
LCarets2: 2 0 0
EndChar

StartChar: dhdha
Encoding: 160 -1 142
Width: 768
Flags: W
AnchorPoint: "rakar" 384 128 basechar 0
AnchorPoint: "mark_down" 256 0 basechar 0
AnchorPoint: "mark_up" 384 1024 basechar 0
LayerCount: 2
Fore
SplineSet
768 1024 m 1,0,-1
 768 896 l 1,1,-1
 512 896 l 1,2,-1
 512 768 l 1,3,-1
 384 768 l 1,4,-1
 384 896 l 1,5,-1
 -128 896 l 5,6,-1
 -128 1024 l 1,7,-1
 768 1024 l 1,0,-1
128 256 m 1,8,-1
 384 256 l 1,9,-1
 384 128 l 1,10,-1
 128 128 l 1,11,-1
 128 256 l 1,8,-1
128 640 m 1,12,-1
 128 768 l 1,13,-1
 256 768 l 1,14,-1
 384 768 l 1,15,-1
 384 640 l 1,16,-1
 256 640 l 1,17,-1
 128 640 l 1,12,-1
640 128 m 1,18,-1
 640 0 l 1,19,-1
 512 0 l 1,20,-1
 512 128 l 1,21,-1
 512 256 l 1,22,-1
 640 256 l 1,23,-1
 640 128 l 1,18,-1
128 512 m 1,24,-1
 0 512 l 1,25,-1
 0 640 l 1,26,-1
 128 640 l 1,27,-1
 128 512 l 1,24,-1
0 256 m 1,28,-1
 0 384 l 1,29,-1
 128 384 l 1,30,-1
 128 256 l 1,31,-1
 0 256 l 1,28,-1
128 384 m 1,32,-1
 128 512 l 1,33,-1
 256 512 l 1,34,-1
 256 384 l 1,35,-1
 128 384 l 1,32,-1
384 384 m 1,36,-1
 512 384 l 1,37,-1
 512 256 l 1,38,-1
 384 256 l 1,39,-1
 384 384 l 1,36,-1
EndSplineSet
Ligature2: "akhn subtable" dha virama dha
LCarets2: 2 0 0
EndChar

StartChar: dhDha
Encoding: 161 -1 143
Width: 1536
Flags: W
AnchorPoint: "rakar" 1152 128 basechar 0
AnchorPoint: "mark_down" 768 0 basechar 0
AnchorPoint: "mark_up" 1024 1024 basechar 0
LayerCount: 2
Fore
SplineSet
-128 1024 m 1,0,-1
 1536 1024 l 1,1,-1
 1536 896 l 1,2,-1
 1152 896 l 1,3,-1
 1152 768 l 1,4,-1
 1024 768 l 1,5,-1
 1024 896 l 1,6,-1
 -128 896 l 1,7,-1
 -128 1024 l 1,0,-1
0 512 m 1,8,-1
 0 640 l 1,9,-1
 128 640 l 1,10,-1
 128 512 l 1,11,-1
 128 384 l 1,12,-1
 0 384 l 1,13,-1
 0 512 l 1,8,-1
384 256 m 1,14,-1
 512 256 l 1,15,-1
 512 128 l 1,16,-1
 384 128 l 1,17,-1
 256 128 l 1,18,-1
 256 256 l 1,19,-1
 384 256 l 1,14,-1
640 640 m 1,20,-1
 768 640 l 1,21,-1
 768 512 l 1,22,-1
 768 384 l 1,23,-1
 640 384 l 1,24,-1
 640 512 l 1,25,-1
 640 640 l 1,20,-1
768 768 m 1,26,-1
 1024 768 l 1,27,-1
 1024 640 l 1,28,-1
 768 640 l 1,29,-1
 768 768 l 1,26,-1
1152 256 m 1,30,-1
 1152 128 l 1,31,-1
 1024 128 l 1,32,-1
 896 128 l 1,33,-1
 896 256 l 1,34,-1
 1024 256 l 1,35,-1
 1152 256 l 1,30,-1
1280 0 m 1,36,-1
 1280 256 l 1,37,-1
 1408 256 l 1,38,-1
 1408 0 l 1,39,-1
 1280 0 l 1,36,-1
128 768 m 1,40,-1
 256 768 l 1,41,-1
 256 640 l 1,42,-1
 128 640 l 1,43,-1
 128 768 l 1,40,-1
256 256 m 1,44,-1
 128 256 l 1,45,-1
 128 384 l 1,46,-1
 256 384 l 1,47,-1
 256 256 l 1,44,-1
384 512 m 1,48,-1
 384 384 l 1,49,-1
 256 384 l 1,50,-1
 256 512 l 1,51,-1
 384 512 l 1,48,-1
640 384 m 1,52,-1
 640 256 l 1,53,-1
 512 256 l 1,54,-1
 512 384 l 1,55,-1
 640 384 l 1,52,-1
768 384 m 1,56,-1
 896 384 l 1,57,-1
 896 256 l 1,58,-1
 768 256 l 1,59,-1
 768 384 l 1,56,-1
1280 384 m 1,60,-1
 1280 256 l 1,61,-1
 1152 256 l 1,62,-1
 1152 384 l 1,63,-1
 1280 384 l 1,60,-1
EndSplineSet
Ligature2: "akhn subtable" dha virama Dha
LCarets2: 2 0 0
EndChar

StartChar: nna
Encoding: 162 -1 144
Width: 768
Flags: W
AnchorPoint: "mark_down" 512 0 basechar 0
AnchorPoint: "mark_up" 512 1024 basechar 0
LayerCount: 2
Fore
SplineSet
512 384 m 1,0,-1
 384 384 l 1,1,-1
 384 512 l 1,2,-1
 512 512 l 1,3,-1
 512 896 l 1,4,-1
 -128 896 l 5,5,-1
 -128 1024 l 1,6,-1
 768 1024 l 1,7,-1
 768 896 l 1,8,-1
 640 896 l 1,9,-1
 640 0 l 1,10,-1
 512 0 l 1,11,-1
 512 384 l 1,0,-1
128 512 m 1,12,-1
 0 512 l 1,13,-1
 0 768 l 1,14,-1
 256 768 l 1,15,-1
 256 640 l 1,16,-1
 128 640 l 1,17,-1
 128 512 l 1,12,-1
384 0 m 1,18,-1
 128 0 l 1,19,-1
 128 128 l 1,20,-1
 128 256 l 1,21,-1
 256 256 l 1,22,-1
 256 128 l 1,23,-1
 384 128 l 1,24,-1
 384 0 l 1,18,-1
256 640 m 1,25,-1
 384 640 l 1,26,-1
 384 512 l 1,27,-1
 256 512 l 1,28,-1
 256 640 l 1,25,-1
384 384 m 1,29,-1
 384 256 l 1,30,-1
 256 256 l 1,31,-1
 256 384 l 1,32,-1
 384 384 l 1,29,-1
EndSplineSet
Ligature2: "akhn subtable" na virama na
LCarets2: 2 0 0
EndChar

StartChar: kwa
Encoding: 163 -1 145
Width: 1024
Flags: W
AnchorPoint: "mark_down" 384 0 basechar 0
AnchorPoint: "mark_up" 384 1024 basechar 0
LayerCount: 2
Fore
SplineSet
384 512 m 1,0,-1
 384 640 l 1,1,-1
 128 640 l 1,2,-1
 128 768 l 1,3,-1
 384 768 l 1,4,-1
 384 896 l 1,5,-1
 256 896 l 1,6,-1
 -128 896 l 5,7,-1
 -128 1024 l 1,8,-1
 256 1024 l 1,9,-1
 1024 1024 l 1,10,-1
 1024 896 l 1,11,-1
 512 896 l 1,12,-1
 512 768 l 1,13,-1
 768 768 l 1,14,-1
 768 640 l 1,15,-1
 512 640 l 1,16,-1
 512 128 l 1,17,-1
 512 0 l 1,18,-1
 384 0 l 1,19,-1
 384 128 l 1,20,-1
 128 128 l 1,21,-1
 128 256 l 1,22,-1
 384 256 l 1,23,-1
 384 384 l 1,24,-1
 128 384 l 1,25,-1
 128 512 l 1,26,-1
 384 512 l 1,0,-1
768 512 m 1,27,-1
 768 640 l 1,28,-1
 896 640 l 1,29,-1
 896 512 l 1,30,-1
 896 384 l 1,31,-1
 768 384 l 1,32,-1
 768 512 l 1,27,-1
128 640 m 1,33,-1
 128 512 l 1,34,-1
 0 512 l 1,35,-1
 0 640 l 1,36,-1
 128 640 l 1,33,-1
128 256 m 1,37,-1
 0 256 l 1,38,-1
 0 384 l 1,39,-1
 128 384 l 1,40,-1
 128 256 l 1,37,-1
640 384 m 1,41,-1
 768 384 l 1,42,-1
 768 256 l 1,43,-1
 640 256 l 1,44,-1
 640 384 l 1,41,-1
EndSplineSet
Ligature2: "akhn subtable" ka virama wa
LCarets2: 2 0 0
EndChar

StartChar: Sra_half
Encoding: 164 -1 146
Width: 512
Flags: W
LayerCount: 2
Fore
SplineSet
512 512 m 1,0,-1
 384 512 l 1,1,-1
 384 640 l 1,2,-1
 512 640 l 1,3,-1
 512 512 l 1,0,-1
0 640 m 1,4,-1
 0 512 l 1,5,-1
 -128 512 l 1,6,-1
 -128 640 l 1,7,-1
 0 640 l 1,4,-1
0 896 m 1,8,-1
 0 1024 l 1,9,-1
 128 1024 l 1,10,-1
 128 896 l 1,11,-1
 0 896 l 1,8,-1
0 768 m 1,12,-1
 128 768 l 1,13,-1
 128 640 l 1,14,-1
 0 640 l 1,15,-1
 0 768 l 1,12,-1
128 128 m 1,16,-1
 0 128 l 1,17,-1
 0 256 l 1,18,-1
 128 256 l 1,19,-1
 128 128 l 1,16,-1
128 1024 m 1,20,-1
 128 1152 l 1,21,-1
 256 1152 l 1,22,-1
 256 1024 l 1,23,-1
 128 1024 l 1,20,-1
256 896 m 1,24,-1
 256 768 l 1,25,-1
 128 768 l 1,26,-1
 128 896 l 1,27,-1
 256 896 l 1,24,-1
128 384 m 1,28,-1
 256 384 l 1,29,-1
 256 256 l 1,30,-1
 128 256 l 1,31,-1
 128 384 l 1,28,-1
384 1024 m 1,32,-1
 384 896 l 1,33,-1
 256 896 l 1,34,-1
 256 1024 l 1,35,-1
 384 1024 l 1,32,-1
256 640 m 1,36,-1
 256 768 l 1,37,-1
 384 768 l 1,38,-1
 384 640 l 1,39,-1
 256 640 l 1,36,-1
384 384 m 1,40,-1
 256 384 l 1,41,-1
 256 512 l 1,42,-1
 384 512 l 1,43,-1
 384 384 l 1,40,-1
EndSplineSet
Ligature2: "half subtable" Sra virama
LCarets2: 1 0
EndChar

StartChar: ththa_half
Encoding: 165 -1 147
Width: 768
Flags: W
LayerCount: 2
Fore
SplineSet
768 512 m 1,0,-1
 640 512 l 1,1,-1
 384 512 l 1,2,-1
 384 256 l 1,3,-1
 256 256 l 1,4,-1
 256 512 l 1,5,-1
 0 512 l 1,6,-1
 0 640 l 1,7,-1
 768 640 l 1,8,-1
 768 512 l 1,0,-1
512 128 m 1,9,-1
 384 128 l 1,10,-1
 384 256 l 1,11,-1
 512 256 l 1,12,-1
 512 128 l 1,9,-1
-128 896 m 5,13,-1
 -128 1024 l 1,14,-1
 768 1024 l 1,15,-1
 768 896 l 1,16,-1
 -128 896 l 5,13,-1
EndSplineSet
Ligature2: "half subtable" ththa virama
LCarets2: 1 0
EndChar

StartChar: nna_half
Encoding: 166 -1 148
Width: 512
Flags: W
LayerCount: 2
Fore
SplineSet
512 384 m 1,0,-1
 384 384 l 1,1,-1
 384 512 l 1,2,-1
 512 512 l 1,3,-1
 512 384 l 1,0,-1
128 512 m 1,4,-1
 0 512 l 1,5,-1
 0 768 l 1,6,-1
 256 768 l 1,7,-1
 256 640 l 1,8,-1
 128 640 l 1,9,-1
 128 512 l 1,4,-1
384 0 m 1,10,-1
 128 0 l 1,11,-1
 128 128 l 1,12,-1
 128 256 l 1,13,-1
 256 256 l 1,14,-1
 256 128 l 1,15,-1
 384 128 l 1,16,-1
 384 0 l 1,10,-1
256 640 m 1,17,-1
 384 640 l 1,18,-1
 384 512 l 1,19,-1
 256 512 l 1,20,-1
 256 640 l 1,17,-1
384 384 m 1,21,-1
 384 256 l 1,22,-1
 256 256 l 1,23,-1
 256 384 l 1,24,-1
 384 384 l 1,21,-1
512 896 m 1,25,-1
 -128 896 l 5,26,-1
 -128 1024 l 1,27,-1
 512 1024 l 1,28,-1
 512 896 l 1,25,-1
EndSplineSet
Ligature2: "half subtable" nna virama
LCarets2: 1 0
EndChar

StartChar: kwa_half
Encoding: 167 -1 149
Width: 768
Flags: W
LayerCount: 2
Fore
SplineSet
384 512 m 1,0,-1
 384 640 l 1,1,-1
 128 640 l 1,2,-1
 128 768 l 1,3,-1
 384 768 l 1,4,-1
 384 896 l 1,5,-1
 256 896 l 1,6,-1
 -128 896 l 5,7,-1
 -128 1024 l 1,8,-1
 256 1024 l 1,9,-1
 768 1024 l 1,10,-1
 768 896 l 1,11,-1
 512 896 l 1,12,-1
 512 768 l 1,13,-1
 768 768 l 1,14,-1
 768 640 l 1,15,-1
 512 640 l 1,16,-1
 512 128 l 1,17,-1
 512 0 l 1,18,-1
 384 0 l 1,19,-1
 384 128 l 1,20,-1
 128 128 l 1,21,-1
 128 256 l 1,22,-1
 384 256 l 1,23,-1
 384 384 l 1,24,-1
 128 384 l 1,25,-1
 128 512 l 1,26,-1
 384 512 l 1,0,-1
128 640 m 1,27,-1
 128 512 l 1,28,-1
 0 512 l 1,29,-1
 0 640 l 1,30,-1
 128 640 l 1,27,-1
128 256 m 1,31,-1
 0 256 l 1,32,-1
 0 384 l 1,33,-1
 128 384 l 1,34,-1
 128 256 l 1,31,-1
EndSplineSet
Ligature2: "half subtable" kwa virama
LCarets2: 1 0
EndChar

StartChar: dhya_half
Encoding: 168 -1 150
Width: 640
Flags: W
LayerCount: 2
Fore
SplineSet
-128 1024 m 1,0,-1
 640 1024 l 1,1,-1
 640 896 l 1,2,-1
 512 896 l 1,3,-1
 512 768 l 1,4,-1
 384 768 l 1,5,-1
 384 896 l 1,6,-1
 -128 896 l 5,7,-1
 -128 1024 l 1,0,-1
384 768 m 1,8,-1
 384 640 l 1,9,-1
 256 640 l 1,10,-1
 128 640 l 1,11,-1
 128 768 l 1,12,-1
 256 768 l 1,13,-1
 384 768 l 1,8,-1
128 640 m 1,14,-1
 128 512 l 1,15,-1
 0 512 l 1,16,-1
 0 640 l 1,17,-1
 128 640 l 1,14,-1
128 512 m 1,18,-1
 256 512 l 1,19,-1
 256 384 l 1,20,-1
 128 384 l 1,21,-1
 128 512 l 1,18,-1
128 384 m 1,22,-1
 128 256 l 1,23,-1
 0 256 l 1,24,-1
 0 384 l 1,25,-1
 128 384 l 1,22,-1
128 256 m 1,26,-1
 384 256 l 1,27,-1
 384 128 l 1,28,-1
 128 128 l 1,29,-1
 128 256 l 1,26,-1
384 256 m 1,30,-1
 384 384 l 1,31,-1
 512 384 l 1,32,-1
 512 256 l 1,33,-1
 384 256 l 1,30,-1
512 384 m 1,34,-1
 512 512 l 1,35,-1
 640 512 l 1,36,-1
 640 384 l 1,37,-1
 512 384 l 1,34,-1
EndSplineSet
Ligature2: "half subtable" dhya virama
LCarets2: 1 0
EndChar

StartChar: hma_half
Encoding: 169 -1 151
Width: 768
Flags: W
LayerCount: 2
Fore
SplineSet
-128 1024 m 1,0,-1
 768 1024 l 1,1,-1
 768 896 l 1,2,-1
 384 896 l 1,3,-1
 384 640 l 1,4,-1
 128 640 l 1,5,-1
 128 768 l 1,6,-1
 256 768 l 1,7,-1
 256 896 l 1,8,-1
 -128 896 l 5,9,-1
 -128 1024 l 1,0,-1
128 640 m 1,10,-1
 128 512 l 1,11,-1
 0 512 l 1,12,-1
 0 640 l 1,13,-1
 128 640 l 1,10,-1
128 512 m 1,14,-1
 256 512 l 1,15,-1
 384 512 l 1,16,-1
 384 384 l 1,17,-1
 256 384 l 1,18,-1
 128 384 l 1,19,-1
 128 512 l 1,14,-1
384 384 m 1,20,-1
 512 384 l 1,21,-1
 512 256 l 1,22,-1
 384 256 l 1,23,-1
 384 384 l 1,20,-1
512 384 m 1,24,-1
 512 512 l 1,25,-1
 768 512 l 1,26,-1
 768 384 l 1,27,-1
 512 384 l 1,24,-1
128 384 m 1,28,-1
 128 256 l 1,29,-1
 128 128 l 1,30,-1
 0 128 l 1,31,-1
 0 256 l 1,32,-1
 0 384 l 1,33,-1
 128 384 l 1,28,-1
128 128 m 1,34,-1
 256 128 l 1,35,-1
 384 128 l 1,36,-1
 384 0 l 1,37,-1
 256 0 l 1,38,-1
 128 0 l 1,39,-1
 128 128 l 1,34,-1
EndSplineSet
Ligature2: "half subtable" hma virama
LCarets2: 1 0
EndChar

StartChar: hya_half
Encoding: 170 -1 152
Width: 640
Flags: W
LayerCount: 2
Fore
SplineSet
-128 1024 m 1,0,-1
 640 1024 l 1,1,-1
 640 896 l 1,2,-1
 384 896 l 1,3,-1
 384 640 l 1,4,-1
 128 640 l 1,5,-1
 128 768 l 1,6,-1
 256 768 l 1,7,-1
 256 896 l 1,8,-1
 -128 896 l 5,9,-1
 -128 1024 l 1,0,-1
128 640 m 1,10,-1
 128 512 l 1,11,-1
 0 512 l 1,12,-1
 0 640 l 1,13,-1
 128 640 l 1,10,-1
128 512 m 1,14,-1
 256 512 l 1,15,-1
 256 384 l 1,16,-1
 128 384 l 1,17,-1
 128 512 l 1,14,-1
256 384 m 1,18,-1
 384 384 l 1,19,-1
 384 256 l 1,20,-1
 256 256 l 1,21,-1
 256 384 l 1,18,-1
384 384 m 1,22,-1
 384 512 l 1,23,-1
 512 512 l 1,24,-1
 512 384 l 1,25,-1
 384 384 l 1,22,-1
512 512 m 1,26,-1
 512 640 l 1,27,-1
 640 640 l 1,28,-1
 640 512 l 1,29,-1
 512 512 l 1,26,-1
128 384 m 1,30,-1
 128 256 l 1,31,-1
 128 128 l 1,32,-1
 0 128 l 1,33,-1
 0 256 l 1,34,-1
 0 384 l 1,35,-1
 128 384 l 1,30,-1
128 128 m 1,36,-1
 512 128 l 1,37,-1
 512 0 l 1,38,-1
 128 0 l 1,39,-1
 128 128 l 1,36,-1
EndSplineSet
Ligature2: "half subtable" hya virama
LCarets2: 1 0
EndChar

StartChar: short_i_three
Encoding: 171 -1 153
Width: 256
Flags: W
LayerCount: 2
Fore
SplineSet
128 512 m 1,0,-1
 128 128 l 1,1,-1
 0 128 l 1,2,-1
 0 384 l 1,3,-1
 0 896 l 1,4,-1
 -128 896 l 1,5,-1
 -128 1024 l 1,6,-1
 0 1024 l 1,7,-1
 0 1280 l 1,8,-1
 128 1280 l 1,9,-1
 128 1024 l 1,10,-1
 256 1024 l 1,11,-1
 256 896 l 1,12,-1
 128 896 l 1,13,-1
 128 512 l 1,0,-1
256 1280 m 1,14,-1
 128 1280 l 1,15,-1
 128 1408 l 1,16,-1
 256 1408 l 1,17,-1
 256 1280 l 1,14,-1
256 1280 m 1,18,-1
 384 1280 l 1,19,-1
 384 1152 l 1,20,-1
 256 1152 l 1,21,-1
 256 1280 l 1,18,-1
512 1152 m 1,22,-1
 512 1024 l 1,23,-1
 384 1024 l 1,24,-1
 384 1152 l 1,25,-1
 512 1152 l 1,22,-1
EndSplineSet
EndChar

StartChar: short_i_four
Encoding: 172 -1 154
Width: 256
Flags: W
LayerCount: 2
Fore
SplineSet
128 512 m 1,0,-1
 128 128 l 1,1,-1
 0 128 l 1,2,-1
 0 384 l 1,3,-1
 0 896 l 1,4,-1
 -128 896 l 1,5,-1
 -128 1024 l 1,6,-1
 0 1024 l 1,7,-1
 0 1280 l 1,8,-1
 128 1280 l 1,9,-1
 128 1024 l 1,10,-1
 256 1024 l 1,11,-1
 256 896 l 1,12,-1
 128 896 l 1,13,-1
 128 512 l 1,0,-1
384 1280 m 1,14,-1
 128 1280 l 1,15,-1
 128 1408 l 1,16,-1
 384 1408 l 1,17,-1
 384 1280 l 1,14,-1
384 1280 m 1,18,-1
 512 1280 l 1,19,-1
 512 1152 l 1,20,-1
 384 1152 l 1,21,-1
 384 1280 l 1,18,-1
640 1152 m 1,22,-1
 640 1024 l 1,23,-1
 512 1024 l 1,24,-1
 512 1152 l 1,25,-1
 640 1152 l 1,22,-1
EndSplineSet
EndChar

StartChar: short_i_five
Encoding: 173 -1 155
Width: 256
Flags: W
LayerCount: 2
Fore
SplineSet
128 512 m 1,0,-1
 128 128 l 1,1,-1
 0 128 l 1,2,-1
 0 384 l 1,3,-1
 0 896 l 1,4,-1
 -128 896 l 1,5,-1
 -128 1024 l 1,6,-1
 0 1024 l 1,7,-1
 0 1280 l 1,8,-1
 128 1280 l 1,9,-1
 128 1024 l 1,10,-1
 256 1024 l 1,11,-1
 256 896 l 1,12,-1
 128 896 l 1,13,-1
 128 512 l 1,0,-1
512 1280 m 5,14,-1
 128 1280 l 1,15,-1
 128 1408 l 1,16,-1
 512 1408 l 5,17,-1
 512 1280 l 5,14,-1
512 1280 m 5,18,-1
 640 1280 l 5,19,-1
 640 1152 l 5,20,-1
 512 1152 l 5,21,-1
 512 1280 l 5,18,-1
768 1152 m 5,22,-1
 768 1024 l 5,23,-1
 640 1024 l 5,24,-1
 640 1152 l 5,25,-1
 768 1152 l 5,22,-1
EndSplineSet
EndChar

StartChar: short_i_seven
Encoding: 174 -1 156
Width: 256
Flags: W
LayerCount: 2
Fore
SplineSet
128 512 m 1,0,-1
 128 128 l 1,1,-1
 0 128 l 1,2,-1
 0 384 l 1,3,-1
 0 896 l 1,4,-1
 -128 896 l 1,5,-1
 -128 1024 l 1,6,-1
 0 1024 l 1,7,-1
 0 1280 l 1,8,-1
 128 1280 l 1,9,-1
 128 1024 l 1,10,-1
 256 1024 l 1,11,-1
 256 896 l 1,12,-1
 128 896 l 1,13,-1
 128 512 l 1,0,-1
768 1280 m 5,14,-1
 128 1280 l 1,15,-1
 128 1408 l 1,16,-1
 768 1408 l 5,17,-1
 768 1280 l 5,14,-1
768 1280 m 5,18,-1
 896 1280 l 5,19,-1
 896 1152 l 5,20,-1
 768 1152 l 5,21,-1
 768 1280 l 5,18,-1
1024 1152 m 5,22,-1
 1024 1024 l 5,23,-1
 896 1024 l 5,24,-1
 896 1152 l 5,25,-1
 1024 1152 l 5,22,-1
EndSplineSet
EndChar

StartChar: short_i_eight
Encoding: 175 -1 157
Width: 256
Flags: W
LayerCount: 2
Fore
SplineSet
128 512 m 1,0,-1
 128 128 l 1,1,-1
 0 128 l 1,2,-1
 0 384 l 1,3,-1
 0 896 l 1,4,-1
 -128 896 l 1,5,-1
 -128 1024 l 1,6,-1
 0 1024 l 1,7,-1
 0 1280 l 1,8,-1
 128 1280 l 1,9,-1
 128 1024 l 1,10,-1
 256 1024 l 1,11,-1
 256 896 l 1,12,-1
 128 896 l 1,13,-1
 128 512 l 1,0,-1
896 1280 m 5,14,-1
 128 1280 l 1,15,-1
 128 1408 l 1,16,-1
 896 1408 l 5,17,-1
 896 1280 l 5,14,-1
896 1280 m 5,18,-1
 1024 1280 l 5,19,-1
 1024 1152 l 5,20,-1
 896 1152 l 5,21,-1
 896 1280 l 5,18,-1
1152 1152 m 5,22,-1
 1152 1024 l 5,23,-1
 1024 1024 l 5,24,-1
 1024 1152 l 5,25,-1
 1152 1152 l 5,22,-1
EndSplineSet
EndChar

StartChar: short_i_nine
Encoding: 176 -1 158
Width: 256
Flags: W
LayerCount: 2
Fore
SplineSet
128 512 m 1,0,-1
 128 128 l 1,1,-1
 0 128 l 1,2,-1
 0 384 l 1,3,-1
 0 896 l 1,4,-1
 -128 896 l 1,5,-1
 -128 1024 l 1,6,-1
 0 1024 l 1,7,-1
 0 1280 l 1,8,-1
 128 1280 l 1,9,-1
 128 1024 l 1,10,-1
 256 1024 l 1,11,-1
 256 896 l 1,12,-1
 128 896 l 1,13,-1
 128 512 l 1,0,-1
1024 1280 m 5,14,-1
 128 1280 l 1,15,-1
 128 1408 l 1,16,-1
 1024 1408 l 5,17,-1
 1024 1280 l 5,14,-1
1024 1280 m 5,18,-1
 1152 1280 l 5,19,-1
 1152 1152 l 5,20,-1
 1024 1152 l 5,21,-1
 1024 1280 l 5,18,-1
1280 1152 m 5,22,-1
 1280 1024 l 5,23,-1
 1152 1024 l 5,24,-1
 1152 1152 l 5,25,-1
 1280 1152 l 5,22,-1
EndSplineSet
EndChar

StartChar: short_i_ten
Encoding: 177 -1 159
Width: 256
Flags: W
LayerCount: 2
Fore
SplineSet
128 512 m 1,0,-1
 128 128 l 1,1,-1
 0 128 l 1,2,-1
 0 384 l 1,3,-1
 0 896 l 1,4,-1
 -128 896 l 1,5,-1
 -128 1024 l 1,6,-1
 0 1024 l 1,7,-1
 0 1280 l 1,8,-1
 128 1280 l 1,9,-1
 128 1024 l 1,10,-1
 256 1024 l 1,11,-1
 256 896 l 1,12,-1
 128 896 l 1,13,-1
 128 512 l 1,0,-1
1152 1280 m 5,14,-1
 128 1280 l 1,15,-1
 128 1408 l 1,16,-1
 1152 1408 l 5,17,-1
 1152 1280 l 5,14,-1
1152 1280 m 5,18,-1
 1280 1280 l 5,19,-1
 1280 1152 l 5,20,-1
 1152 1152 l 5,21,-1
 1152 1280 l 5,18,-1
1408 1152 m 5,22,-1
 1408 1024 l 5,23,-1
 1280 1024 l 5,24,-1
 1280 1152 l 5,25,-1
 1408 1152 l 5,22,-1
EndSplineSet
EndChar

StartChar: short_i_eleven
Encoding: 178 -1 160
Width: 256
Flags: W
LayerCount: 2
Fore
SplineSet
128 512 m 1,0,-1
 128 128 l 1,1,-1
 0 128 l 1,2,-1
 0 384 l 1,3,-1
 0 896 l 1,4,-1
 -128 896 l 1,5,-1
 -128 1024 l 1,6,-1
 0 1024 l 1,7,-1
 0 1280 l 1,8,-1
 128 1280 l 1,9,-1
 128 1024 l 1,10,-1
 256 1024 l 1,11,-1
 256 896 l 1,12,-1
 128 896 l 1,13,-1
 128 512 l 1,0,-1
1280 1280 m 5,14,-1
 128 1280 l 1,15,-1
 128 1408 l 1,16,-1
 1280 1408 l 5,17,-1
 1280 1280 l 5,14,-1
1280 1280 m 5,18,-1
 1408 1280 l 5,19,-1
 1408 1152 l 5,20,-1
 1280 1152 l 5,21,-1
 1280 1280 l 5,18,-1
1536 1152 m 5,22,-1
 1536 1024 l 5,23,-1
 1408 1024 l 5,24,-1
 1408 1152 l 5,25,-1
 1536 1152 l 5,22,-1
EndSplineSet
EndChar

StartChar: short_i_twelve
Encoding: 179 -1 161
Width: 256
Flags: W
LayerCount: 2
Fore
SplineSet
128 512 m 1,0,-1
 128 128 l 1,1,-1
 0 128 l 1,2,-1
 0 384 l 1,3,-1
 0 896 l 1,4,-1
 -128 896 l 1,5,-1
 -128 1024 l 1,6,-1
 0 1024 l 1,7,-1
 0 1280 l 1,8,-1
 128 1280 l 1,9,-1
 128 1024 l 1,10,-1
 256 1024 l 1,11,-1
 256 896 l 1,12,-1
 128 896 l 1,13,-1
 128 512 l 1,0,-1
1408 1280 m 5,14,-1
 128 1280 l 1,15,-1
 128 1408 l 1,16,-1
 1408 1408 l 5,17,-1
 1408 1280 l 5,14,-1
1408 1280 m 5,18,-1
 1536 1280 l 5,19,-1
 1536 1152 l 5,20,-1
 1408 1152 l 5,21,-1
 1408 1280 l 5,18,-1
1664 1152 m 5,22,-1
 1664 1024 l 5,23,-1
 1536 1024 l 5,24,-1
 1536 1152 l 5,25,-1
 1664 1152 l 5,22,-1
EndSplineSet
EndChar

StartChar: short_i_thirteen
Encoding: 180 -1 162
Width: 256
Flags: W
LayerCount: 2
Fore
SplineSet
128 512 m 1,0,-1
 128 128 l 1,1,-1
 0 128 l 1,2,-1
 0 384 l 1,3,-1
 0 896 l 1,4,-1
 -128 896 l 1,5,-1
 -128 1024 l 1,6,-1
 0 1024 l 1,7,-1
 0 1280 l 1,8,-1
 128 1280 l 1,9,-1
 128 1024 l 1,10,-1
 256 1024 l 1,11,-1
 256 896 l 1,12,-1
 128 896 l 1,13,-1
 128 512 l 1,0,-1
1536 1280 m 5,14,-1
 128 1280 l 1,15,-1
 128 1408 l 1,16,-1
 1536 1408 l 5,17,-1
 1536 1280 l 5,14,-1
1536 1280 m 5,18,-1
 1664 1280 l 5,19,-1
 1664 1152 l 5,20,-1
 1536 1152 l 5,21,-1
 1536 1280 l 5,18,-1
1792 1152 m 5,22,-1
 1792 1024 l 5,23,-1
 1664 1024 l 5,24,-1
 1664 1152 l 5,25,-1
 1792 1152 l 5,22,-1
EndSplineSet
EndChar

StartChar: short_i_fourteen
Encoding: 181 -1 163
Width: 256
Flags: W
LayerCount: 2
Fore
SplineSet
128 512 m 1,0,-1
 128 128 l 1,1,-1
 0 128 l 1,2,-1
 0 384 l 1,3,-1
 0 896 l 1,4,-1
 -128 896 l 1,5,-1
 -128 1024 l 1,6,-1
 0 1024 l 1,7,-1
 0 1280 l 1,8,-1
 128 1280 l 1,9,-1
 128 1024 l 1,10,-1
 256 1024 l 1,11,-1
 256 896 l 1,12,-1
 128 896 l 1,13,-1
 128 512 l 1,0,-1
1664 1280 m 5,14,-1
 128 1280 l 1,15,-1
 128 1408 l 1,16,-1
 1664 1408 l 5,17,-1
 1664 1280 l 5,14,-1
1664 1280 m 5,18,-1
 1792 1280 l 5,19,-1
 1792 1152 l 5,20,-1
 1664 1152 l 5,21,-1
 1664 1280 l 5,18,-1
1920 1152 m 5,22,-1
 1920 1024 l 5,23,-1
 1792 1024 l 5,24,-1
 1792 1152 l 5,25,-1
 1920 1152 l 5,22,-1
EndSplineSet
EndChar

StartChar: short_i_fifteen
Encoding: 182 -1 164
Width: 256
Flags: W
LayerCount: 2
Fore
SplineSet
128 512 m 1,0,-1
 128 128 l 1,1,-1
 0 128 l 1,2,-1
 0 384 l 1,3,-1
 0 896 l 1,4,-1
 -128 896 l 1,5,-1
 -128 1024 l 1,6,-1
 0 1024 l 1,7,-1
 0 1280 l 1,8,-1
 128 1280 l 1,9,-1
 128 1024 l 1,10,-1
 256 1024 l 1,11,-1
 256 896 l 1,12,-1
 128 896 l 1,13,-1
 128 512 l 1,0,-1
1792 1280 m 5,14,-1
 128 1280 l 1,15,-1
 128 1408 l 1,16,-1
 1792 1408 l 5,17,-1
 1792 1280 l 5,14,-1
1792 1280 m 5,18,-1
 1920 1280 l 5,19,-1
 1920 1152 l 5,20,-1
 1792 1152 l 5,21,-1
 1792 1280 l 5,18,-1
2048 1152 m 5,22,-1
 2048 1024 l 5,23,-1
 1920 1024 l 5,24,-1
 1920 1152 l 5,25,-1
 2048 1152 l 5,22,-1
EndSplineSet
EndChar

StartChar: long_i_three
Encoding: 183 -1 165
Width: 256
Flags: W
LayerCount: 2
Fore
SplineSet
0 640 m 1,0,-1
 0 896 l 1,1,-1
 -384 896 l 5,2,-1
 -384 1152 l 5,3,-1
 -256 1152 l 5,4,-1
 -256 1024 l 5,5,-1
 0 1024 l 1,6,-1
 0 1280 l 1,7,-1
 128 1280 l 1,8,-1
 128 1152 l 1,9,-1
 128 1024 l 1,10,-1
 256 1024 l 1,11,-1
 256 896 l 1,12,-1
 128 896 l 1,13,-1
 128 640 l 1,14,-1
 128 384 l 1,15,-1
 128 128 l 1,16,-1
 0 128 l 1,17,-1
 0 640 l 1,0,-1
0 1408 m 1,18,-1
 0 1280 l 1,19,-1
 -256 1280 l 5,20,-1
 -384 1280 l 5,21,-1
 -384 1408 l 5,22,-1
 -256 1408 l 5,23,-1
 0 1408 l 1,18,-1
-384 1152 m 5,24,-1
 -512 1152 l 5,25,-1
 -512 1280 l 5,26,-1
 -384 1280 l 5,27,-1
 -384 1152 l 5,24,-1
EndSplineSet
EndChar

StartChar: long_i_four
Encoding: 184 -1 166
Width: 256
Flags: W
LayerCount: 2
Fore
SplineSet
0 640 m 1,0,-1
 0 896 l 1,1,-1
 -512 896 l 1,2,-1
 -512 1152 l 1,3,-1
 -384 1152 l 1,4,-1
 -384 1024 l 1,5,-1
 0 1024 l 1,6,-1
 0 1280 l 1,7,-1
 128 1280 l 1,8,-1
 128 1152 l 1,9,-1
 128 1024 l 1,10,-1
 256 1024 l 1,11,-1
 256 896 l 1,12,-1
 128 896 l 1,13,-1
 128 640 l 1,14,-1
 128 384 l 1,15,-1
 128 128 l 1,16,-1
 0 128 l 1,17,-1
 0 640 l 1,0,-1
0 1408 m 1,18,-1
 0 1280 l 1,19,-1
 -384 1280 l 1,20,-1
 -512 1280 l 1,21,-1
 -512 1408 l 1,22,-1
 -384 1408 l 1,23,-1
 0 1408 l 1,18,-1
-512 1152 m 1,24,-1
 -640 1152 l 1,25,-1
 -640 1280 l 1,26,-1
 -512 1280 l 1,27,-1
 -512 1152 l 1,24,-1
EndSplineSet
EndChar

StartChar: long_i_six
Encoding: 185 -1 167
Width: 256
Flags: W
LayerCount: 2
Fore
SplineSet
0 640 m 1,0,-1
 0 896 l 1,1,-1
 -768 896 l 1,2,-1
 -768 1152 l 1,3,-1
 -640 1152 l 1,4,-1
 -640 1024 l 1,5,-1
 0 1024 l 1,6,-1
 0 1280 l 1,7,-1
 128 1280 l 1,8,-1
 128 1152 l 1,9,-1
 128 1024 l 1,10,-1
 256 1024 l 1,11,-1
 256 896 l 1,12,-1
 128 896 l 1,13,-1
 128 640 l 1,14,-1
 128 384 l 1,15,-1
 128 128 l 1,16,-1
 0 128 l 1,17,-1
 0 640 l 1,0,-1
0 1408 m 1,18,-1
 0 1280 l 1,19,-1
 -640 1280 l 1,20,-1
 -768 1280 l 1,21,-1
 -768 1408 l 1,22,-1
 -640 1408 l 1,23,-1
 0 1408 l 1,18,-1
-768 1152 m 1,24,-1
 -896 1152 l 1,25,-1
 -896 1280 l 1,26,-1
 -768 1280 l 1,27,-1
 -768 1152 l 1,24,-1
EndSplineSet
EndChar

StartChar: long_i_seven
Encoding: 186 -1 168
Width: 256
Flags: W
LayerCount: 2
Fore
SplineSet
0 640 m 1,0,-1
 0 896 l 1,1,-1
 -896 896 l 5,2,-1
 -896 1152 l 1,3,-1
 -768 1152 l 1,4,-1
 -768 1024 l 1,5,-1
 0 1024 l 1,6,-1
 0 1280 l 1,7,-1
 128 1280 l 1,8,-1
 128 1152 l 1,9,-1
 128 1024 l 1,10,-1
 256 1024 l 1,11,-1
 256 896 l 1,12,-1
 128 896 l 1,13,-1
 128 640 l 1,14,-1
 128 384 l 1,15,-1
 128 128 l 1,16,-1
 0 128 l 1,17,-1
 0 640 l 1,0,-1
0 1408 m 1,18,-1
 0 1280 l 1,19,-1
 -768 1280 l 1,20,-1
 -896 1280 l 1,21,-1
 -896 1408 l 1,22,-1
 -768 1408 l 1,23,-1
 0 1408 l 1,18,-1
-896 1152 m 1,24,-1
 -1024 1152 l 1,25,-1
 -1024 1280 l 1,26,-1
 -896 1280 l 1,27,-1
 -896 1152 l 1,24,-1
EndSplineSet
EndChar

StartChar: long_i_eight
Encoding: 187 -1 169
Width: 256
Flags: W
LayerCount: 2
Fore
SplineSet
0 640 m 1,0,-1
 0 896 l 1,1,-1
 -1024 896 l 5,2,-1
 -1024 1152 l 1,3,-1
 -896 1152 l 1,4,-1
 -896 1024 l 1,5,-1
 0 1024 l 1,6,-1
 0 1280 l 1,7,-1
 128 1280 l 1,8,-1
 128 1152 l 1,9,-1
 128 1024 l 1,10,-1
 256 1024 l 1,11,-1
 256 896 l 1,12,-1
 128 896 l 1,13,-1
 128 640 l 1,14,-1
 128 384 l 1,15,-1
 128 128 l 1,16,-1
 0 128 l 1,17,-1
 0 640 l 1,0,-1
0 1408 m 1,18,-1
 0 1280 l 1,19,-1
 -896 1280 l 1,20,-1
 -1024 1280 l 1,21,-1
 -1024 1408 l 1,22,-1
 -896 1408 l 1,23,-1
 0 1408 l 1,18,-1
-1024 1152 m 1,24,-1
 -1152 1152 l 1,25,-1
 -1152 1280 l 1,26,-1
 -1024 1280 l 1,27,-1
 -1024 1152 l 1,24,-1
EndSplineSet
EndChar

StartChar: long_i_nine
Encoding: 188 -1 170
Width: 256
Flags: W
LayerCount: 2
Fore
SplineSet
0 640 m 1,0,-1
 0 896 l 1,1,-1
 -1152 896 l 1,2,-1
 -1152 1152 l 1,3,-1
 -1024 1152 l 1,4,-1
 -1024 1024 l 1,5,-1
 0 1024 l 1,6,-1
 0 1280 l 1,7,-1
 128 1280 l 1,8,-1
 128 1152 l 1,9,-1
 128 1024 l 1,10,-1
 256 1024 l 1,11,-1
 256 896 l 1,12,-1
 128 896 l 1,13,-1
 128 640 l 1,14,-1
 128 384 l 1,15,-1
 128 128 l 1,16,-1
 0 128 l 1,17,-1
 0 640 l 1,0,-1
0 1408 m 1,18,-1
 0 1280 l 1,19,-1
 -1024 1280 l 1,20,-1
 -1152 1280 l 1,21,-1
 -1152 1408 l 1,22,-1
 -1024 1408 l 1,23,-1
 0 1408 l 1,18,-1
-1152 1152 m 1,24,-1
 -1280 1152 l 1,25,-1
 -1280 1280 l 1,26,-1
 -1152 1280 l 1,27,-1
 -1152 1152 l 1,24,-1
EndSplineSet
EndChar

StartChar: marwari_da
Encoding: 104 2424 171
Width: 768
Flags: W
AnchorPoint: "nukta" 128 256 basechar 0
AnchorPoint: "rakar" 256 384 basechar 0
AnchorPoint: "mark_down" 256 0 basechar 0
AnchorPoint: "mark_up" 128 1024 basechar 0
LayerCount: 2
Fore
SplineSet
-128 1024 m 1,0,-1
 768 1024 l 1,1,-1
 768 896 l 1,2,-1
 256 896 l 1,3,-1
 256 640 l 1,4,-1
 128 640 l 1,5,-1
 128 896 l 1,6,-1
 -128 896 l 1,7,-1
 -128 1024 l 1,0,-1
384 640 m 1,8,-1
 512 640 l 1,9,-1
 512 512 l 1,10,-1
 384 512 l 1,11,-1
 256 512 l 1,12,-1
 256 640 l 1,13,-1
 384 640 l 1,8,-1
512 512 m 1,14,-1
 640 512 l 1,15,-1
 640 384 l 1,16,-1
 640 256 l 1,17,-1
 512 256 l 1,18,-1
 512 384 l 1,19,-1
 512 512 l 1,14,-1
128 640 m 1,20,-1
 128 512 l 1,21,-1
 0 512 l 1,22,-1
 0 640 l 1,23,-1
 128 640 l 1,20,-1
256 512 m 1,24,-1
 256 384 l 1,25,-1
 128 384 l 1,26,-1
 128 512 l 1,27,-1
 256 512 l 1,24,-1
384 128 m 1,28,-1
 384 256 l 1,29,-1
 512 256 l 1,30,-1
 512 128 l 1,31,-1
 384 128 l 1,28,-1
EndSplineSet
EndChar

StartChar: ya_slash
Encoding: 106 2426 172
Width: 768
Flags: W
AnchorPoint: "rakar" 640 128 basechar 0
AnchorPoint: "mark_down" 512 128 basechar 0
AnchorPoint: "mark_up" 512 1024 basechar 0
LayerCount: 2
Fore
SplineSet
256 640 m 1,0,-1
 256 768 l 1,1,-1
 384 768 l 1,2,-1
 384 640 l 1,3,-1
 256 640 l 1,0,-1
384 1024 m 1,4,-1
 768 1024 l 1,5,-1
 768 896 l 1,6,-1
 640 896 l 1,7,-1
 640 128 l 1,8,-1
 512 128 l 1,9,-1
 512 512 l 1,10,-1
 384 512 l 1,11,-1
 384 640 l 1,12,-1
 512 640 l 1,13,-1
 512 896 l 1,14,-1
 256 896 l 1,15,-1
 256 640 l 1,16,-1
 128 640 l 1,17,-1
 128 896 l 1,18,-1
 -128 896 l 1,19,-1
 -128 1024 l 1,20,-1
 128 1024 l 1,21,-1
 384 1024 l 1,4,-1
256 512 m 1,22,-1
 384 512 l 1,23,-1
 384 384 l 1,24,-1
 256 384 l 1,25,-1
 128 384 l 1,26,-1
 128 512 l 1,27,-1
 256 512 l 1,22,-1
128 512 m 1,28,-1
 0 512 l 1,29,-1
 0 640 l 1,30,-1
 128 640 l 1,31,-1
 128 512 l 1,28,-1
EndSplineSet
EndChar

StartChar: ja_nukta_triple
Encoding: 105 2425 173
Width: 896
Flags: W
AnchorPoint: "rakar" 768 128 basechar 0
AnchorPoint: "mark_down" 640 128 basechar 0
AnchorPoint: "mark_up" 640 1024 basechar 0
LayerCount: 2
Fore
SplineSet
128 -128 m 1,0,-1
 128 0 l 1,1,-1
 256 0 l 1,2,-1
 256 -128 l 1,3,-1
 128 -128 l 1,0,-1
256 0 m 1,4,-1
 256 128 l 1,5,-1
 384 128 l 1,6,-1
 384 0 l 1,7,-1
 256 0 l 1,4,-1
0 0 m 1,8,-1
 0 128 l 1,9,-1
 128 128 l 1,10,-1
 128 0 l 1,11,-1
 0 0 l 1,8,-1
384 384 m 1,12,-1
 384 640 l 1,13,-1
 640 640 l 1,14,-1
 640 896 l 1,15,-1
 -128 896 l 1,16,-1
 -128 1024 l 1,17,-1
 896 1024 l 1,18,-1
 896 896 l 1,19,-1
 768 896 l 1,20,-1
 768 512 l 1,21,-1
 768 128 l 1,22,-1
 640 128 l 1,23,-1
 640 512 l 1,24,-1
 512 512 l 1,25,-1
 512 384 l 1,26,-1
 384 384 l 1,12,-1
0 384 m 1,27,-1
 0 640 l 1,28,-1
 128 640 l 1,29,-1
 128 384 l 1,30,-1
 0 384 l 1,27,-1
256 256 m 1,31,-1
 128 256 l 1,32,-1
 128 384 l 1,33,-1
 256 384 l 1,34,-1
 384 384 l 1,35,-1
 384 256 l 1,36,-1
 256 256 l 1,31,-1
EndSplineSet
EndChar

StartChar: ga_bar
Encoding: 107 2427 185
Width: 768
Flags: W
AnchorPoint: "rakar" 512 256 basechar 0
AnchorPoint: "mark_down" 512 128 basechar 0
AnchorPoint: "mark_up" 512 1024 basechar 0
LayerCount: 2
Fore
SplineSet
0 0 m 1,0,-1
 0 128 l 1,1,-1
 640 128 l 1,2,-1
 640 0 l 5,3,-1
 0 0 l 1,0,-1
384 512 m 1,4,-1
 256 512 l 1,5,-1
 256 896 l 1,6,-1
 -128 896 l 1,7,-1
 -128 1024 l 1,8,-1
 768 1024 l 1,9,-1
 768 896 l 1,10,-1
 640 896 l 1,11,-1
 640 128 l 1,12,-1
 512 128 l 1,13,-1
 512 896 l 1,14,-1
 384 896 l 1,15,-1
 384 512 l 1,4,-1
128 640 m 1,16,-1
 128 512 l 1,17,-1
 0 512 l 1,18,-1
 0 640 l 1,19,-1
 128 640 l 1,16,-1
256 512 m 1,20,-1
 256 384 l 1,21,-1
 128 384 l 1,22,-1
 128 512 l 1,23,-1
 256 512 l 1,20,-1
EndSplineSet
EndChar

StartChar: ja_bar
Encoding: 108 2428 186
Width: 896
Flags: W
AnchorPoint: "rakar" 768 128 basechar 0
AnchorPoint: "mark_down" 640 128 basechar 0
AnchorPoint: "mark_up" 640 1024 basechar 0
LayerCount: 2
Fore
SplineSet
0 0 m 1,0,-1
 0 128 l 1,1,-1
 768 128 l 1,2,-1
 768 0 l 1,3,-1
 0 0 l 1,0,-1
384 384 m 1,4,-1
 384 640 l 1,5,-1
 640 640 l 1,6,-1
 640 896 l 1,7,-1
 -128 896 l 1,8,-1
 -128 1024 l 1,9,-1
 896 1024 l 1,10,-1
 896 896 l 1,11,-1
 768 896 l 1,12,-1
 768 512 l 1,13,-1
 768 128 l 1,14,-1
 640 128 l 1,15,-1
 640 512 l 1,16,-1
 512 512 l 1,17,-1
 512 384 l 1,18,-1
 384 384 l 1,4,-1
0 384 m 1,19,-1
 0 640 l 1,20,-1
 128 640 l 1,21,-1
 128 384 l 1,22,-1
 0 384 l 1,19,-1
256 256 m 1,23,-1
 128 256 l 1,24,-1
 128 384 l 1,25,-1
 256 384 l 1,26,-1
 384 384 l 1,27,-1
 384 256 l 1,28,-1
 256 256 l 1,23,-1
EndSplineSet
EndChar

StartChar: da_bar
Encoding: 109 2430 187
Width: 640
Flags: W
AnchorPoint: "mark_down" 256 0 basechar 0
AnchorPoint: "rakar" 256 128 basechar 0
AnchorPoint: "mark_up" 256 1024 basechar 0
LayerCount: 2
Fore
SplineSet
0 -128 m 5,0,-1
 0 0 l 5,1,-1
 512 0 l 5,2,-1
 512 -128 l 5,3,-1
 0 -128 l 5,0,-1
384 768 m 1,4,-1
 384 640 l 1,5,-1
 128 640 l 1,6,-1
 128 768 l 1,7,-1
 256 768 l 1,8,-1
 256 896 l 1,9,-1
 -128 896 l 1,10,-1
 -128 1024 l 1,11,-1
 256 1024 l 1,12,-1
 640 1024 l 1,13,-1
 640 896 l 1,14,-1
 384 896 l 1,15,-1
 384 768 l 1,4,-1
384 256 m 1,16,-1
 384 128 l 1,17,-1
 0 128 l 1,18,-1
 0 256 l 1,19,-1
 384 256 l 1,16,-1
256 512 m 1,20,-1
 384 512 l 1,21,-1
 384 384 l 1,22,-1
 256 384 l 1,23,-1
 128 384 l 1,24,-1
 128 512 l 1,25,-1
 256 512 l 1,20,-1
128 640 m 1,26,-1
 128 512 l 1,27,-1
 0 512 l 1,28,-1
 0 640 l 1,29,-1
 128 640 l 1,26,-1
512 384 m 1,30,-1
 512 256 l 1,31,-1
 384 256 l 1,32,-1
 384 384 l 1,33,-1
 512 384 l 1,30,-1
EndSplineSet
EndChar

StartChar: ba_bar
Encoding: 110 2431 188
Width: 768
Flags: W
AnchorPoint: "rakar" 384 256 basechar 0
AnchorPoint: "mark_down" 512 128 basechar 0
AnchorPoint: "mark_up" 512 1024 basechar 0
LayerCount: 2
Fore
SplineSet
0 0 m 5,0,-1
 0 128 l 1,1,-1
 640 128 l 1,2,-1
 640 0 l 1,3,-1
 0 0 l 5,0,-1
640 128 m 1,4,-1
 512 128 l 1,5,-1
 512 384 l 1,6,-1
 384 384 l 1,7,-1
 384 512 l 1,8,-1
 256 512 l 1,9,-1
 256 640 l 1,10,-1
 128 640 l 1,11,-1
 128 768 l 1,12,-1
 512 768 l 1,13,-1
 512 896 l 1,14,-1
 256 896 l 1,15,-1
 -128 896 l 1,16,-1
 -128 1024 l 1,17,-1
 256 1024 l 1,18,-1
 768 1024 l 1,19,-1
 768 896 l 1,20,-1
 640 896 l 1,21,-1
 640 128 l 1,4,-1
512 512 m 1,22,-1
 512 640 l 1,23,-1
 384 640 l 1,24,-1
 384 512 l 1,25,-1
 512 512 l 1,22,-1
0 384 m 1,26,-1
 0 640 l 1,27,-1
 128 640 l 1,28,-1
 128 384 l 1,29,-1
 0 384 l 1,26,-1
256 256 m 1,30,-1
 128 256 l 1,31,-1
 128 384 l 1,32,-1
 256 384 l 1,33,-1
 384 384 l 1,34,-1
 384 256 l 1,35,-1
 256 256 l 1,30,-1
EndSplineSet
EndChar

StartChar: uni0900
Encoding: 2 2304 189
Width: 0
Flags: W
AnchorPoint: "mark_up" -256 1024 mark 0
LayerCount: 2
Fore
SplineSet
-512 1152 m 5,0,-1
 -384 1152 l 5,1,-1
 -384 1280 l 5,2,-1
 -512 1280 l 5,3,-1
 -512 1152 l 5,0,-1
-128 1152 m 5,4,-1
 0 1152 l 5,5,-1
 0 1280 l 5,6,-1
 -128 1280 l 5,7,-1
 -128 1152 l 5,4,-1
-384 1280 m 5,8,-1
 -128 1280 l 5,9,-1
 -128 1408 l 5,10,-1
 -384 1408 l 5,11,-1
 -384 1280 l 5,8,-1
EndSplineSet
EndChar

StartChar: ra_nukta_half
Encoding: 189 -1 190
Width: 640
Flags: W
LayerCount: 2
Fore
SplineSet
-128 1024 m 1,0,-1
 640 1024 l 1,1,-1
 640 896 l 1,2,-1
 -128 896 l 1,3,-1
 -128 1024 l 1,0,-1
0 640 m 1,4,-1
 128 640 l 1,5,-1
 128 512 l 1,6,-1
 0 512 l 1,7,-1
 0 640 l 1,4,-1
512 640 m 1,8,-1
 640 640 l 1,9,-1
 640 512 l 1,10,-1
 512 512 l 1,11,-1
 512 640 l 1,8,-1
128 512 m 1,12,-1
 512 512 l 1,13,-1
 512 384 l 1,14,-1
 128 384 l 1,15,-1
 128 512 l 1,12,-1
EndSplineSet
Ligature2: "half subtable" ra_nukta virama
EndChar
